<svg xmlns="http://www.w3.org/2000/svg" width="111" height="113" viewBox="0 0 111 113">
  <path fill="#FFCC5C" fill-rule="evenodd" d="M56.634834,54.5159664 C48.9587725,52.0208501 33.4778238,45.4268673 23.9114098,38.7283921 C11.0178621,29.7002329 11.3076912,21.8262393 12.099635,20.6952263 C12.8915788,19.5642134 18.2105145,17.2035427 31.1040622,26.231702 C40.9257852,33.1089465 53.7273496,45.8149205 58.9196234,51.9787702 C58.8816501,44.9853681 60.9696667,26.2607844 65.1087756,14.2399393 C70.2332559,-0.642632148 77.882112,-2.53439732 79.1876007,-2.0848815 C80.4930894,-1.63536569 84.2284091,2.82683447 79.1039288,17.7094059 C74.9356243,29.8150412 65.3152672,47.0186268 61.1676787,52.7752665 C67.7242269,50.4659198 86.169759,46.3230287 98.9156314,46.3230287 C114.655747,46.3230287 118.93467,52.9392658 118.93467,54.3199776 C118.93467,55.7006895 115.931678,60.6852539 100.191562,60.6852539 C87.396036,60.6852539 68.0131605,57.1941395 61.2088488,55.1461924 C61.2563727,55.2724368 61.2710423,55.3678611 61.2509216,55.4302032 C65.3578993,60.9784988 74.7558995,77.4663207 78.4931604,89.6903502 C83.0951247,104.742697 78.0190218,110.769052 76.6986405,111.172734 C75.3782591,111.576415 69.7335066,110.161985 65.1315423,95.1096374 C61.2997075,82.5762707 58.94988,62.3630944 59.0329508,55.7157867 C55.4214131,61.001856 42.2260604,75.6131195 31.4657793,83.1475494 C18.5722316,92.1757087 11.2722253,89.2102941 10.4802815,88.0792811 C9.68833773,86.9482681 9.2892161,81.1427066 22.1827638,72.1145473 C32.339964,65.0023992 49.4449124,57.027617 56.634834,54.5159664 Z" transform="rotate(-45 58.215 56.165)"/>
</svg>
