<svg xmlns="http://www.w3.org/2000/svg" width="800" height="800" viewBox="0 0 800 800" xmlns:xlink="http://www.w3.org/1999/xlink" style="background:#7e7184">
  <defs>
    <path id="a" d="M0,3.750728 C0,1.67925812 1.68250792,0 3.74708178,0 L244.252918,0 C246.322374,0 248,1.67445484 248,3.750728 L248,355.009111 C248,382.618317 225.609124,405 198.000023,405 L3.74708178,405 C1.67762566,405 0,403.325545 0,401.249272 L0,3.750728 Z"/>
    <path id="b" d="M20.040404,34.9985394 C20.040404,32.9282782 21.7241199,31.25 23.7820974,31.25 L225.470428,31.25 C227.536908,31.25 229.212121,32.9250387 229.212121,34.9985394 L229.212121,154.99917 C229.212121,175.710307 212.426298,192.5 191.710787,192.5 L23.7820974,192.5 C21.7156172,192.5 20.040404,190.824961 20.040404,188.751461 L20.040404,34.9985394 Z"/>
    <rect id="c" width="135.273" height="120" x="56.364" y="50"/>
    <ellipse id="d" cx="54.485" cy="15.625" rx="15.657" ry="15.625"/>
    <ellipse id="e" cx="15.657" cy="34.375" rx="15.657" ry="15.625"/>
    <path id="f" d="M60.7474747,261.849747 L60.7474747,250.006146 C60.7474747,247.933451 59.0684021,246.25 56.997161,246.25 L39.4472834,246.25 C37.3795019,246.25 35.6969697,247.931684 35.6969697,250.006146 L35.6969697,261.849747 L23.8533681,261.849747 C21.780673,261.849747 20.0972222,263.52882 20.0972222,265.600061 L20.0972222,283.149939 C20.0972222,285.21772 21.778906,286.900253 23.8533681,286.900253 L35.6969697,286.900253 L35.6969697,298.743854 C35.6969697,300.816549 37.3760423,302.5 39.4472834,302.5 L56.997161,302.5 C59.0649426,302.5 60.7474747,300.818316 60.7474747,298.743854 L60.7474747,286.900253 L72.5910763,286.900253 C74.6637715,286.900253 76.3472222,285.22118 76.3472222,283.149939 L76.3472222,265.600061 C76.3472222,263.53228 74.6655384,261.849747 72.5910763,261.849747 L60.7474747,261.849747 Z"/>
    <rect id="g" width="31.313" height="8.75" x="75.489" y="331.407" rx="2.5"/>
    <rect id="h" width="31.313" height="8.75" x="116.822" y="331.407" rx="2.5"/>
    <rect id="i" width="40.081" height="6.25" x=".48" y=".628" rx="2.5"/>
    <rect id="j" width="40.081" height="6.25" x=".48" y="13.128" rx="2.5"/>
    <rect id="k" width="40.081" height="6.25" x=".48" y="25.628" rx="2.5"/>
    <rect id="l" width="40.081" height="6.25" x=".48" y="38.128" rx="2.5"/>
    <rect id="m" width="40.081" height="6.25" x=".48" y="50.628" rx="2.5"/>
    <rect id="n" width="40.081" height="6.25" x=".48" y="63.128" rx="2.5"/>
  </defs>
  <g fill="none" fill-rule="evenodd">
    <g stroke="#0A2D4B" stroke-width="6" transform="translate(147 600)" stroke-linecap="square">
      <path d="M0 3L450 3M470 3L480 3M500 3L508 3"/>
    </g>
    <g transform="translate(276 201)">
      <use fill="#EAAD45" xlink:href="#a"/>
      <path stroke="#0A2D4B" stroke-width="7.5" d="M244.252918,3.75 C244.252894,3.75 244.250431,3.74753844 244.250049,3.75 L244.252918,3.75 Z M3.74708178,401.25 C3.74710621,401.25 3.74956945,401.252462 3.74995068,401.25 L3.74708178,401.25 Z M244.250049,3.75 C244.250017,3.75020655 244.25,3.75044776 244.25,3.750728 L244.25,355.009111 C244.25,380.545267 223.540038,401.25 198.000023,401.25 L3.74995096,401.25 C3.74998267,401.249793 3.75,401.249552 3.75,401.249272 L3.75,3.750728 C3.75,3.75195097 3.75195083,3.75 3.74708178,3.75 L244.250049,3.75 L244.250049,3.75 Z"/>
      <use fill="#7E7184" xlink:href="#b"/>
      <path stroke="#0A2D4B" stroke-width="5" d="M22.540404,34.9985394 C22.540404,34.3117822 23.1020405,33.75 23.7820974,33.75 L225.470428,33.75 C226.156624,33.75 226.712121,34.3061811 226.712121,34.9985394 L226.712121,154.99917 C226.712121,174.331044 211.044137,190 191.710787,190 L23.7820974,190 C23.095901,190 22.540404,189.443819 22.540404,188.751461 L22.540404,34.9985394 Z"/>
      <use fill="#D6F6DD" xlink:href="#c"/>
      <rect width="132.773" height="117.5" x="57.614" y="51.25" stroke="#0A2D4B" stroke-width="2.5"/>
      <ellipse cx="36.323" cy="92.5" stroke="#0A2D4B" stroke-width="1.25" rx="3.758" ry="3.75"/>
      <g transform="translate(159.07 246.25)">
        <use fill="#F07E7A" xlink:href="#d"/>
        <ellipse cx="54.485" cy="15.625" stroke="#0A2D4B" stroke-width="2.5" rx="14.407" ry="14.375"/>
        <g>
          <use fill="#F07E7A" xlink:href="#e"/>
          <ellipse cx="15.657" cy="34.375" stroke="#0A2D4B" stroke-width="2.5" rx="14.407" ry="14.375"/>
        </g>
      </g>
      <use fill="#0A2D4B" xlink:href="#f"/>
      <path stroke="#0A2D4B" stroke-width="2.5" d="M59.4974747,261.849747 L59.4974747,263.099747 L60.7474747,263.099747 L72.5910763,263.099747 C73.974243,263.099747 75.0972222,264.221697 75.0972222,265.600061 L75.0972222,283.149939 C75.0972222,284.529689 73.974551,285.650253 72.5910763,285.650253 L60.7474747,285.650253 L59.4974747,285.650253 L59.4974747,286.900253 L59.4974747,298.743854 C59.4974747,300.127021 58.3755248,301.25 56.997161,301.25 L39.4472834,301.25 C38.0675337,301.25 36.9469697,300.127329 36.9469697,298.743854 L36.9469697,286.900253 L36.9469697,285.650253 L35.6969697,285.650253 L23.8533681,285.650253 C22.4702014,285.650253 21.3472222,284.528303 21.3472222,283.149939 L21.3472222,265.600061 C21.3472222,264.220311 22.4698935,263.099747 23.8533681,263.099747 L35.6969697,263.099747 L36.9469697,263.099747 L36.9469697,261.849747 L36.9469697,250.006146 C36.9469697,248.622979 38.0689197,247.5 39.4472834,247.5 L56.997161,247.5 C58.3769108,247.5 59.4974747,248.622671 59.4974747,250.006146 L59.4974747,261.849747 Z"/>
      <g transform="rotate(-26 91.145 335.782)">
        <use fill="#7E7184" xlink:href="#g"/>
        <rect width="28.813" height="6.25" x="76.739" y="332.657" stroke="#0A2D4B" stroke-width="2.5" rx="2.5"/>
      </g>
      <g transform="rotate(-26 132.479 335.782)">
        <use fill="#7E7184" xlink:href="#h"/>
        <rect width="28.813" height="6.25" x="118.072" y="332.657" stroke="#0A2D4B" stroke-width="2.5" rx="2.5"/>
      </g>
      <g transform="rotate(-122 200.578 148.381)">
        <use fill="#7E7184" xlink:href="#i"/>
        <rect width="37.581" height="3.75" x="1.73" y="1.878" stroke="#0A2D4B" stroke-width="2.5" rx="1.875"/>
        <use fill="#7E7184" xlink:href="#j"/>
        <rect width="37.581" height="3.75" x="1.73" y="14.378" stroke="#0A2D4B" stroke-width="2.5" rx="1.875"/>
        <use fill="#7E7184" xlink:href="#k"/>
        <rect width="37.581" height="3.75" x="1.73" y="26.878" stroke="#0A2D4B" stroke-width="2.5" rx="1.875"/>
        <g>
          <use fill="#7E7184" xlink:href="#l"/>
          <rect width="37.581" height="3.75" x="1.73" y="39.378" stroke="#0A2D4B" stroke-width="2.5" rx="1.875"/>
        </g>
        <g>
          <use fill="#7E7184" xlink:href="#m"/>
          <rect width="37.581" height="3.75" x="1.73" y="51.878" stroke="#0A2D4B" stroke-width="2.5" rx="1.875"/>
        </g>
        <g>
          <use fill="#7E7184" xlink:href="#n"/>
          <rect width="37.581" height="3.75" x="1.73" y="64.378" stroke="#0A2D4B" stroke-width="2.5" rx="1.875"/>
        </g>
      </g>
    </g>
  </g>
</svg>
