<svg xmlns="http://www.w3.org/2000/svg" width="600" height="600" viewBox="0 0 600 600" xmlns:xlink="http://www.w3.org/1999/xlink" style="background:#3e8182">
  <defs>
    <path id="a" d="M79.345325,146.31218 C79.345325,116.554176 76,26.9686298 76,26.9686298 C76,26.9686298 88.9561015,23.4657063 94.6631851,20.0408166 C103.348986,14.828363 119.51776,1.50893154 119.51776,1.50893154 C121.22317,0.123286914 123.508952,0.552283452 124.624498,2.45077413 C124.624498,2.45077413 134.234455,19.1600263 140.401413,26.9686305 C144.063043,31.6049877 154.026042,40.0043443 154.026042,40.0043443 C155.693382,41.4418158 156.337105,44.2510305 155.463078,46.2806633 L106.281155,160.489105 C106.281155,160.489105 79.345325,146.354567 79.345325,146.31218 Z"/>
    <path id="b" d="M32.3660432,163.339837 C27.4185811,133.305001 1.20531636,81.1236108 1.20531636,81.1236108 C-0.727352497,77.1554735 -0.0974347423,71.1126479 2.60953644,67.6136869 C2.60953644,67.6136869 18.346141,47.4894595 25.3610804,37.1023432 C32.6425108,26.3206299 45.4465049,3.99097706 45.4465049,3.99097706 C47.101839,1.12984996 50.6961774,0.285501688 53.4732143,2.086864 C53.4732143,2.086864 93.7921788,28.7739186 114.838387,37.1023447 C125.748185,41.4195808 149.356942,41.645511 149.356942,41.645511 C153.766738,41.7880527 155.97368,45.2147113 154.288226,49.2944702 L107.173134,163.339837 C107.173134,163.339837 37.3135053,193.374672 32.3660432,163.339837 Z"/>
    <path id="c" d="M221,423.337479 C224.616086,387.431184 253.617577,345.909731 253.617577,315.916573 C253.617577,283.103566 222.349716,222.671632 222.349716,222.671632 C221.604288,221.196131 222.343025,220 224.007157,220 L371.992843,220 C373.65365,220 374.437231,221.212331 373.740558,222.732637 C373.740558,222.732637 345.581752,282.56334 343.101494,315.916573 C340.949443,344.856235 370.911438,387.687984 375.000008,423.337479 C378.349326,452.541216 355.814255,478 355.814255,478 L240.579664,478 C240.579664,478 218.203666,451.103966 221,423.337479 Z"/>
    <path id="d" d="M248.994401,318 C248.994401,306.74958 241,284 241,284 L355,284 C355,284 347.986771,307.085907 347.986771,318 C347.986771,329.752574 355,352 355,352 L241,352 C241,352 248.994401,329.416247 248.994401,318 Z"/>
  </defs>
  <g fill="none" fill-rule="evenodd">
    <g stroke="#0A2D4B" stroke-width="8" transform="translate(146 475)" stroke-linecap="square">
      <path d="M.5 1L250.5 1M.5 1L250.5 1M270.5 1L280.5 1M300.5 1L308.5 1"/>
    </g>
    <g transform="translate(227 123)">
      <use fill="#F9CF8E" xlink:href="#a"/>
      <path stroke="#0A2D4B" stroke-width="4" d="M80.7657552,144.808248 C80.7013752,144.773875 80.643613,144.742967 80.592553,144.71557 C80.4612904,144.644981 80.4612904,144.644981 80.385096,144.603412 C80.2923064,144.457371 80.5127924,144.536038 80.7657552,144.808248 Z M81.3436524,145.115631 C81.3139176,134.174541 80.8889326,115.533033 80.1648677,91.3208113 C80.0115042,86.1924452 79.8465438,80.8789335 79.6716378,75.4171391 C79.3056651,63.988901 78.9135607,52.4422316 78.5214562,41.3606178 C78.384219,37.4820354 78.2567831,33.9385887 78.1424152,30.8032248 C78.111062,29.943687 78.0824645,29.1635151 78.0568188,28.4670903 C78.6335754,28.300769 79.2529735,28.118359 79.9066898,27.9213193 C82.4369012,27.1586761 84.9681304,26.3328583 87.3377005,25.4715028 C90.6021799,24.2848414 93.3004285,23.1248684 95.2701472,22.0024759 C95.4147953,21.9200519 95.5555277,21.8378071 95.6923179,21.7557177 C98.2903396,20.1966135 101.647132,17.8731111 105.596698,14.9439643 C106.271078,14.4438186 106.959439,13.9284 107.660406,13.3989641 C110.658052,11.1348599 113.7602,8.71123551 116.790886,6.28787267 C117.851416,5.43986396 118.827458,4.65230293 119.69689,3.94524535 C120.001508,3.6975175 120.27115,3.47745701 120.503048,3.2875729 C120.642714,3.17321063 120.738397,3.09461928 120.7894,3.05260598 C121.527936,2.45260484 122.400988,2.61450006 122.900149,3.46399556 C122.924306,3.50617104 122.987053,3.61487166 123.078734,3.77308201 C123.230909,4.03568312 123.407986,4.3399922 123.608199,4.68254303 C124.179597,5.66016627 124.822301,6.74906961 125.522206,7.92155247 C127.52255,11.2725348 129.581683,14.6240196 131.587714,17.7556452 C132.196269,18.7056645 132.791974,19.6227667 133.372981,20.5032746 C135.434966,23.628188 137.271399,26.2323324 138.831869,28.2082002 C139.944586,29.6171222 141.613659,31.3780959 143.738376,33.4308572 C144.200889,33.8777072 144.682235,34.3356019 145.18055,34.8031806 C146.8349,36.3554871 148.603981,37.9480376 150.372641,39.4952781 C150.991392,40.0365675 151.566129,40.5337374 152.082326,40.975945 C152.393134,41.2422027 152.616185,41.4316635 152.736921,41.5334509 C153.725504,42.3859032 154.155045,44.2614745 153.626162,45.4896266 L105.298393,157.714582 C104.582496,157.338806 103.813594,156.935169 103.002114,156.509133 C99.845796,154.852032 96.6894861,153.194273 93.7436506,151.646132 C93.7284839,151.638161 93.7284839,151.638161 93.7133172,151.630191 C89.9330906,149.643539 86.783823,147.986825 84.4752761,146.769959 C83.1647774,146.079177 82.1428968,145.539456 81.4363619,145.164804 C81.4048192,145.148078 81.3739151,145.131687 81.3436524,145.115631 Z"/>
      <g>
        <use fill="#F9CF8E" xlink:href="#b"/>
        <path stroke="#0A2D4B" stroke-width="4" d="M105.639152,161.814948 C105.454414,161.89158 105.254047,161.974131 105.038482,162.062312 C103.93607,162.513278 102.669419,163.016408 101.258131,163.558649 C97.2221488,165.109342 92.8415825,166.660485 88.2740574,168.107655 C81.6862903,170.194915 75.2735698,171.885126 69.2559364,173.036249 C48.7542841,176.95804 36.1744371,174.154534 34.3394492,163.014769 C32.9511234,154.586582 29.8711045,144.053718 25.4139363,131.872989 C23.501209,126.645811 21.3611802,121.189986 19.033703,115.567248 C15.5252476,107.091495 11.7676258,98.652838 8.00997686,90.6401472 C6.69467751,87.8354448 5.47309544,85.2838506 4.37640638,83.0341187 C3.99219475,82.2459526 3.65091515,81.5515748 3.35646569,80.9570836 C3.17920548,80.5991967 3.05658016,80.353411 2.99248842,80.2258269 C1.40473961,76.965531 1.94875615,71.7362791 4.19139997,68.8374956 C4.23678972,68.7794936 4.33572585,68.6527876 4.47947589,68.4684028 C4.71871549,68.1615357 4.99613558,67.8051045 5.30855746,67.4029898 C6.20084435,66.2545374 7.19496462,64.9699557 8.265498,63.5802764 C11.3244965,59.6093336 14.3836555,55.5909435 17.2400136,51.7727838 C17.5534695,51.3537802 17.8630956,50.9390248 18.1687195,50.528728 C21.8781798,45.5488166 24.8967129,41.3634593 27.0185086,38.2216874 C29.067953,35.1870473 31.6530256,31.0978447 34.6540749,26.1780204 C35.0037619,25.6047547 35.3581481,25.0217457 35.7169536,24.4295122 C38.2944713,20.1751389 40.9957147,15.6189533 43.6573748,11.0630496 C44.5888313,9.4686967 45.4488744,7.98814749 46.2170325,6.65925186 C46.4859968,6.19394991 46.7243024,5.78077287 46.9293891,5.42445395 C47.0526267,5.21034008 47.1372767,5.06298291 47.1815101,4.98584234 C48.2564184,3.12796987 50.5623403,2.58260276 52.3848147,3.76477525 C52.4819638,3.82918088 52.6991412,3.97235589 53.014813,4.17958045 C53.5397062,4.5241496 54.1509931,4.92362008 54.8426302,5.3734223 C56.8174502,6.65773498 59.0410642,8.08848011 61.4651551,9.62911568 C68.3915571,14.0312036 75.5388372,18.4334872 82.5216471,22.5441787 C84.8704211,23.9268722 87.1658469,25.2556899 89.3991638,26.5239717 C99.3502912,32.1751331 107.740798,36.4445823 114.10247,38.9620294 C117.774613,40.4151733 122.899326,41.496355 129.143517,42.2806321 C133.56727,42.8362603 138.295345,43.2106696 143.021754,43.438704 C144.674739,43.5184554 146.210066,43.5742587 147.588997,43.6103118 C148.072649,43.6229572 148.502576,43.632232 148.873923,43.6386582 C149.098497,43.6425445 149.254743,43.6446246 149.337804,43.6454195 C152.304186,43.7418219 153.592441,45.7406681 152.439757,48.5308198 L105.639152,161.814948 Z"/>
      </g>
    </g>
    <use fill="#FFFFFF" fill-opacity=".45" xlink:href="#c"/>
    <path stroke="#0A2D4B" stroke-width="8" d="M227.497929,224 L368.753903,224 C367.697437,226.324187 366.522352,228.962867 365.258078,231.868976 C361.622615,240.225586 357.987382,249.087336 354.592241,258.072208 C351.857747,265.308752 349.394125,272.327861 347.267377,279.026229 C342.694498,293.428894 339.842511,305.803236 339.112508,315.619938 C338.515049,323.65426 340.103191,332.790637 343.659437,343.922569 C346.240406,352.001641 348.246692,357.092044 355.52787,374.727057 C357.653792,379.876039 359.021719,383.239153 360.377421,386.684909 C366.438316,402.089733 369.840052,413.452096 371.026057,423.793243 C372.468845,436.37335 368.924729,449.307043 362.07524,461.711664 C360.028489,465.418389 357.834466,468.793922 355.64511,471.764521 C355.034476,472.593051 354.460838,473.339751 353.934053,474 L242.526195,474 C241.980658,473.280245 241.386161,472.467902 240.753145,471.56888 C238.517746,468.394117 236.278661,464.823233 234.190587,460.946396 C227.392703,448.325054 223.78863,435.566811 224.979868,423.738287 C226.000308,413.605726 229.120465,402.496502 234.549235,388.277186 C236.259318,383.798051 238.001058,379.482767 240.821113,372.660381 C247.929489,355.463524 249.696849,351.017524 252.259581,343.301508 C255.793903,332.660175 257.617577,323.829468 257.617577,315.916573 C257.617577,305.927326 254.946519,293.23015 250.122892,278.369462 C247.752528,271.066819 244.907538,263.391773 241.688633,255.481555 C238.238098,247.002122 234.543829,238.699095 230.849173,230.912164 C229.64432,228.372791 228.519036,226.057226 227.497929,224 L227.497929,224 Z"/>
    <path fill="#8B572A" d="M225,426 L371,426 C371,426 368.28607,444.34646 365.201996,452.816092 C362.183618,461.105305 352.692642,476.276535 352.692642,476.276535 L241.299257,473.760853 L225,426 Z" opacity=".7"/>
    <path stroke="#0A2D4B" stroke-width="8" d="M227.490241,224 L368.761644,224 C368.530089,224.502034 368.272486,225.064422 367.99055,225.68445 C366.95612,227.959354 365.804447,230.54658 364.564766,233.399937 C361.024099,241.549444 357.483707,250.206372 354.177121,259.003352 C351.387438,266.425142 348.88839,273.624003 346.753124,280.487007 C342.490297,294.188253 339.823793,306.054947 339.112508,315.619938 C338.515049,323.65426 340.103191,332.790637 343.659437,343.922569 C346.240406,352.001641 348.246692,357.092044 355.52787,374.727057 C357.653792,379.876039 359.021719,383.239153 360.377421,386.684909 C366.438316,402.089733 369.840052,413.452096 371.026057,423.793243 C372.468845,436.37335 368.924729,449.307043 362.07524,461.711664 C360.028489,465.418389 357.834466,468.793922 355.64511,471.764521 C355.034476,472.593051 354.460838,473.339751 353.934053,474 L242.526195,474 C241.980658,473.280245 241.386161,472.467902 240.753145,471.56888 C238.517746,468.394117 236.278661,464.823233 234.190587,460.946396 C227.392703,448.325054 223.78863,435.566811 224.979868,423.738287 C226.000308,413.605726 229.120465,402.496502 234.549235,388.277186 C236.259318,383.798051 238.001058,379.482767 240.821113,372.660381 C247.929489,355.463524 249.696849,351.017524 252.259581,343.301508 C255.793903,332.660175 257.617577,323.829468 257.617577,315.916573 C257.617577,306.161706 255.137264,293.953201 250.645576,279.776558 C248.281857,272.316203 245.407789,264.468415 242.134259,256.382015 C238.780057,248.096333 235.188944,240.001116 231.597389,232.422091 C230.339699,229.76807 229.171146,227.36687 228.121331,225.259495 C227.895324,224.805815 227.684676,224.385588 227.490241,224 Z"/>
    <use fill="#FD9C62" xlink:href="#d"/>
    <path stroke="#0A2D4B" stroke-width="4" d="M243.787153,286 L352.330004,286 C352.216922,286.394629 352.099774,286.806905 351.979057,287.23559 C351.151482,290.174421 350.323978,293.2847 349.551155,296.429994 C348.961237,298.830883 348.426461,301.159751 347.959768,303.384746 C346.694805,309.415555 345.986771,314.387018 345.986771,318 C345.986771,321.624647 346.607357,326.317807 347.726091,331.853747 C348.244482,334.41895 348.860128,337.113403 349.552813,339.891137 C350.326401,342.993298 351.154734,346.037369 351.983185,348.896774 C352.09378,349.278492 352.201386,349.646528 352.305624,350 L243.792781,350 C243.908493,349.651379 244.027819,349.288978 244.150363,348.913631 C245.095045,346.020115 246.039613,342.9471 246.921839,339.824935 C247.662814,337.202654 248.327019,334.658992 248.8952,332.233493 C250.243369,326.478322 250.994401,321.651571 250.994401,318 C250.994401,314.350588 250.223638,309.46899 248.842465,303.615917 C248.286004,301.257771 247.640058,298.786446 246.922255,296.238722 C246.040218,293.108081 245.095855,290.02202 244.151389,287.112839 C244.026492,286.728128 243.90494,286.356883 243.787153,286 Z"/>
    <path stroke="#0A2D4B" stroke-width="4" d="M249.395618,318 L350.074051,318" stroke-linecap="square"/>
    <circle cx="356" cy="317" r="9" fill="#F36450" stroke="#0A2D4B" stroke-width="4"/>
    <path stroke="#0A2D4B" stroke-width="4" d="M364,323 C364,323 367.518279,342.086823 368.54378,352 C369.518279,361.420156 370,381 370,381" stroke-linecap="square"/>
    <ellipse cx="254" cy="387.5" fill="#FFFFFF" fill-opacity=".45" transform="rotate(19 254 387.5)" rx="5" ry="30.5"/>
  </g>
</svg>
