<svg xmlns="http://www.w3.org/2000/svg" width="600" height="600" viewBox="0 0 600 600" xmlns:xlink="http://www.w3.org/1999/xlink" style="background:#f9cf8e">
  <defs>
    <path id="a" d="M326.956622,197.930819 C326.956622,197.930819 350.665161,176.437321 350.665161,149.923749 C350.665161,123.410176 326.956622,101.916679 326.956622,101.916679 C326.956622,101.916679 303.248083,123.410176 303.248083,149.923749 C303.248083,176.437321 326.956622,197.930819 326.956622,197.930819 Z"/>
    <path id="b" d="M299.293296,185.851732 C299.293296,185.851732 323.001835,164.358235 323.001835,137.844662 C323.001835,111.331089 299.293296,89.837592 299.293296,89.837592 C299.293296,89.837592 275.584757,111.331089 275.584757,137.844662 C275.584757,164.358235 299.293296,185.851732 299.293296,185.851732 Z"/>
    <path id="c" d="M271.689212,195.654489 C271.689212,195.654489 295.397751,174.160992 295.397751,147.647419 C295.397751,121.133847 271.689212,99.6403495 271.689212,99.6403495 C271.689212,99.6403495 247.980673,121.133847 247.980673,147.647419 C247.980673,174.160992 271.689212,195.654489 271.689212,195.654489 Z"/>
    <path id="d" d="M336.983712,402.250725 C325.917067,447.928296 321.344072,486.828113 299.885494,486.828103 C278.854945,486.828093 273.199881,452.73547 262.160373,406.635949 C248.533255,349.730913 232.015209,275.854995 232.015209,241.119322 C232.015209,178.243821 367.755779,171.189143 367.755779,243.397365 C367.755779,282.631181 350.151099,347.902349 336.983712,402.250725 Z"/>
    <rect id="e" width="50" height="7" x="316" y="244" rx="3.5"/>
    <rect id="f" width="30" height="7" x="236" y="244" rx="3.5"/>
    <rect id="g" width="40" height="7" x="238" y="284" rx="3.5"/>
    <rect id="h" width="30" height="7" x="306" y="284" rx="3.5"/>
    <rect id="i" width="60" height="7" x="296" y="314" rx="3.5"/>
    <rect id="j" width="40" height="7" x="309" y="344" rx="3.5"/>
    <rect id="k" width="20" height="7" x="251" y="344" rx="3.5"/>
    <rect id="l" width="40" height="7" x="299" y="384" rx="3.5"/>
    <rect id="m" width="28" height="7" x="268" y="424" rx="3.5"/>
    <rect id="n" width="9" height="14" x="295" y="182"/>
  </defs>
  <g fill="none" fill-rule="evenodd">
    <g transform="rotate(35 326.957 149.924)">
      <use fill="#3E8182" xlink:href="#a"/>
      <path stroke="#0A2D4B" stroke-width="6" d="M326.956622,193.719766 C326.483607,193.230498 325.98525,192.701123 325.465519,192.133079 C322.778548,189.196334 320.088457,185.855064 317.580531,182.179125 C310.482431,171.775236 306.248083,160.833505 306.248083,149.923749 C306.248083,139.013993 310.482431,128.072261 317.580531,117.668373 C320.088457,113.992434 322.778548,110.651164 325.465519,107.714419 C325.98525,107.146375 326.483607,106.617 326.956622,106.127732 C327.429637,106.617 327.927995,107.146375 328.447726,107.714419 C331.134697,110.651164 333.824787,113.992434 336.332713,117.668373 C343.430814,128.072261 347.665161,139.013993 347.665161,149.923749 C347.665161,160.833505 343.430814,171.775236 336.332713,182.179125 C333.824787,185.855064 331.134697,189.196334 328.447726,192.133079 C327.927995,192.701123 327.429637,193.230498 326.956622,193.719766 L326.956622,193.719766 Z"/>
    </g>
    <g transform="rotate(3 299.293 137.845)">
      <use fill="#3E8182" xlink:href="#b"/>
      <path stroke="#0A2D4B" stroke-width="6" d="M299.293296,181.640679 C298.820281,181.151411 298.321924,180.622036 297.802193,180.053992 C295.115222,177.117247 292.425131,173.775977 289.917205,170.100038 C282.819105,159.696149 278.584757,148.754418 278.584757,137.844662 C278.584757,126.934906 282.819105,115.993174 289.917205,105.589286 C292.425131,101.913347 295.115222,98.572077 297.802193,95.6353322 C298.321924,95.0672878 298.820281,94.5379127 299.293296,94.0486451 C299.766311,94.5379127 300.264668,95.0672878 300.7844,95.6353322 C303.471371,98.572077 306.161461,101.913347 308.669387,105.589286 C315.767488,115.993174 320.001835,126.934906 320.001835,137.844662 C320.001835,148.754418 315.767488,159.696149 308.669387,170.100038 C306.161461,173.775977 303.471371,177.117247 300.7844,180.053992 C300.264668,180.622036 299.766311,181.151411 299.293296,181.640679 L299.293296,181.640679 Z"/>
    </g>
    <g transform="rotate(-36 271.69 147.647)">
      <use fill="#3E8182" xlink:href="#c"/>
      <path stroke="#0A2D4B" stroke-width="6" d="M271.689212,191.443436 C271.216197,190.954169 270.71784,190.424794 270.198108,189.856749 C267.511138,186.920004 264.821047,183.578735 262.313121,179.902796 C255.215021,169.498907 250.980673,158.557175 250.980673,147.647419 C250.980673,136.737664 255.215021,125.795932 262.313121,115.392043 C264.821047,111.716104 267.511138,108.374835 270.198108,105.43809 C270.71784,104.870045 271.216197,104.34067 271.689212,103.851403 C272.162227,104.34067 272.660584,104.870045 273.180316,105.43809 C275.867286,108.374835 278.557377,111.716104 281.065303,115.392043 C288.163403,125.795932 292.397751,136.737664 292.397751,147.647419 C292.397751,158.557175 288.163403,169.498907 281.065303,179.902796 C278.557377,183.578735 275.867286,186.920004 273.180316,189.856749 C272.660584,190.424794 272.162227,190.954169 271.689212,191.443436 L271.689212,191.443436 Z"/>
    </g>
    <g transform="matrix(-1 0 0 1 599.771 0)">
      <use fill="#FD9C62" xlink:href="#d"/>
      <path stroke="#0A2D4B" stroke-width="6" d="M334.068064,401.544329 C332.135882,409.519411 326.468067,434.711163 325.843751,437.368995 C317.931108,471.054587 311.352639,483.828108 299.885495,483.828103 C288.06214,483.828097 281.088263,471.42048 272.935388,438.966614 C271.29039,432.418427 265.232035,406.581001 265.077885,405.937289 C245.826195,325.544786 235.015209,270.082047 235.015209,241.119322 C235.015209,214.086347 263.652074,195.239929 299.93827,194.601483 C316.994284,194.301387 333.130175,198.373524 344.878595,206.230444 C357.683003,214.793571 364.755779,227.360435 364.755779,243.397365 C364.755779,267.050526 358.803395,299.678362 346.334824,351.455884 C345.142998,356.40511 343.881913,361.579717 342.382175,367.685932 C341.75773,370.228371 341.12288,372.806765 340.262693,376.29572 C340.023312,377.266658 339.734466,378.437961 339.207931,380.573112 C338.78561,382.285779 338.468424,383.572553 338.159293,384.827471 C336.474327,391.667603 335.243573,396.692419 334.068064,401.544329 Z"/>
    </g>
    <g transform="matrix(-1 0 0 1 682 0)">
      <use fill="#3E8182" xlink:href="#e"/>
      <rect width="44" height="1" x="319" y="247" stroke="#0A2D4B" stroke-width="6" rx=".5"/>
    </g>
    <g transform="matrix(-1 0 0 1 502 0)">
      <use fill="#3E8182" xlink:href="#f"/>
      <rect width="24" height="1" x="239" y="247" stroke="#0A2D4B" stroke-width="6" rx=".5"/>
    </g>
    <g transform="matrix(-1 0 0 1 516 0)">
      <use fill="#3E8182" xlink:href="#g"/>
      <rect width="34" height="1" x="241" y="287" stroke="#0A2D4B" stroke-width="6" rx=".5"/>
    </g>
    <g transform="matrix(-1 0 0 1 642 0)">
      <use fill="#3E8182" xlink:href="#h"/>
      <rect width="24" height="1" x="309" y="287" stroke="#0A2D4B" stroke-width="6" rx=".5"/>
    </g>
    <g transform="matrix(-1 0 0 1 652 0)">
      <use fill="#3E8182" xlink:href="#i"/>
      <rect width="54" height="1" x="299" y="317" stroke="#0A2D4B" stroke-width="6" rx=".5"/>
    </g>
    <g transform="matrix(-1 0 0 1 658 0)">
      <use fill="#3E8182" xlink:href="#j"/>
      <rect width="34" height="1" x="312" y="347" stroke="#0A2D4B" stroke-width="6" rx=".5"/>
    </g>
    <g transform="matrix(-1 0 0 1 522 0)">
      <use fill="#3E8182" xlink:href="#k"/>
      <rect width="14" height="1" x="254" y="347" stroke="#0A2D4B" stroke-width="6" rx=".5"/>
    </g>
    <g transform="matrix(-1 0 0 1 638 0)">
      <use fill="#3E8182" xlink:href="#l"/>
      <rect width="34" height="1" x="302" y="387" stroke="#0A2D4B" stroke-width="6" rx=".5"/>
    </g>
    <g transform="matrix(-1 0 0 1 564 0)">
      <use fill="#3E8182" xlink:href="#m"/>
      <rect width="22" height="1" x="271" y="427" stroke="#0A2D4B" stroke-width="6" rx=".5"/>
    </g>
    <g transform="matrix(-1 0 0 1 599 0)">
      <use fill="#0A2D4B" xlink:href="#n"/>
      <rect width="3" height="8" x="298" y="185" stroke="#0A2D4B" stroke-width="6"/>
    </g>
  </g>
</svg>
