<svg xmlns="http://www.w3.org/2000/svg" width="600" height="600" viewBox="0 0 600 600" xmlns:xlink="http://www.w3.org/1999/xlink" style="background:#fd9c62">
  <defs>
    <path id="a" d="M288.425624,459.168849 C290.20091,459.426124 302.859423,486.018114 293.444679,502.009674 C282.818407,520.059095 258.03969,525.613037 260.123894,525.613037 C262.019171,525.613037 286.707768,526.823009 300,510.552216 C314.543028,492.750345 309.6916,459.444452 311.684289,459.152842 C350.328619,453.497638 380,420.21388 380,380 C380,335.81722 344.18278,300 300,300 C255.81722,300 220,335.81722 220,380 C220,420.251997 249.727656,453.560729 288.425624,459.168849 Z"/>
    <path id="b" d="M338.928934,320.026831 C338.928934,320.026831 362.637473,298.533334 362.637473,272.019761 C362.637473,245.506189 338.928934,224.012691 338.928934,224.012691 C338.928934,224.012691 315.220395,245.506189 315.220395,272.019761 C315.220395,298.533334 338.928934,320.026831 338.928934,320.026831 Z"/>
    <path id="c" d="M261.426522,320.245757 C261.426522,320.245757 285.135061,298.75226 285.135061,272.238687 C285.135061,245.725115 261.426522,224.231617 261.426522,224.231617 C261.426522,224.231617 237.717982,245.725115 237.717982,272.238687 C237.717982,298.75226 261.426522,320.245757 261.426522,320.245757 Z"/>
    <path id="d" d="M327.779082,178.930819 C327.779082,178.930819 351.487621,157.437321 351.487621,130.923749 C351.487621,104.410176 327.779082,82.9166789 327.779082,82.9166789 C327.779082,82.9166789 304.070543,104.410176 304.070543,130.923749 C304.070543,157.437321 327.779082,178.930819 327.779082,178.930819 Z"/>
    <path id="e" d="M300.011003,167.189157 C300.011003,167.189157 323.719542,145.69566 323.719542,119.182087 C323.719542,92.6685144 300.011003,71.175017 300.011003,71.175017 C300.011003,71.175017 276.302464,92.6685144 276.302464,119.182087 C276.302464,145.69566 300.011003,167.189157 300.011003,167.189157 Z"/>
    <path id="f" d="M272.220918,176.781135 C272.220918,176.781135 295.929457,155.287638 295.929457,128.774065 C295.929457,102.260492 272.220918,80.7669951 272.220918,80.7669951 C272.220918,80.7669951 248.512379,102.260492 248.512379,128.774065 C248.512379,155.287638 272.220918,176.781135 272.220918,176.781135 Z"/>
    <path id="g" d="M76.0110027,97.1891569 C76.0110027,97.1891569 99.7195418,75.6956596 99.7195418,49.182087 C99.7195418,22.6685144 76.0110027,1.17501704 76.0110027,1.17501704 C76.0110027,1.17501704 52.3024636,22.6685144 52.3024636,49.182087 C52.3024636,75.6956596 76.0110027,97.1891569 76.0110027,97.1891569 Z"/>
    <path id="h" d="M103.779082,108.930819 C103.779082,108.930819 127.487621,87.4373215 127.487621,60.9237488 C127.487621,34.4101762 103.779082,12.9166789 103.779082,12.9166789 C103.779082,12.9166789 80.0705427,34.4101762 80.0705427,60.9237488 C80.0705427,87.4373215 103.779082,108.930819 103.779082,108.930819 Z"/>
    <path id="i" d="M48.2209182,106.781135 C48.2209182,106.781135 71.9294573,85.2876377 71.9294573,58.7740651 C71.9294573,32.2604925 48.2209182,10.7669951 48.2209182,10.7669951 C48.2209182,10.7669951 24.5123791,32.2604925 24.5123791,58.7740651 C24.5123791,85.2876377 48.2209182,106.781135 48.2209182,106.781135 Z"/>
    <rect id="j" width="8" height="137" x="296" y="163"/>
    <path id="k" d="M318.904932,231.922738 C339.416832,208.403173 379.085083,196.544507 379.085083,196.544507 L382.833664,200.412758 C382.833664,200.412758 341.230072,215.950933 322.72901,236.684621 C304.227947,257.418309 304,300 304,300 L296,300 C296,300 298.393032,255.442304 318.904932,231.922738 Z"/>
    <rect id="l" width="70" height="6" x="245" y="320" rx="3"/>
    <rect id="m" width="70" height="6" x="233" y="340" rx="3"/>
    <rect id="n" width="60" height="6" x="225" y="360" rx="3"/>
    <rect id="o" width="40" height="6" x="224" y="380" rx="3"/>
    <rect id="p" width="40" height="6" x="336" y="360" rx="3"/>
    <rect id="q" width="30" height="6" x="304" y="380" rx="3"/>
    <rect id="r" width="30" height="6" x="324" y="400" rx="3"/>
    <rect id="s" width="50" height="6" x="226" y="400" rx="3"/>
    <rect id="t" width="70" height="6" x="233" y="420" rx="3"/>
    <rect id="u" width="30" height="6" x="253" y="440" rx="3"/>
  </defs>
  <g fill="none" fill-rule="evenodd">
    <use fill="#EA3342" xlink:href="#a"/>
    <path stroke="#0A2D4B" stroke-width="6" d="M278.509892,520.424424 C279.255727,519.971638 279.995512,519.50326 280.729177,519.018267 C287.201504,514.739703 292.442713,509.624796 296.02992,503.531688 C300.668637,495.652524 300.909209,485.223449 298.038667,473.948719 C296.982562,469.800618 295.539346,465.769046 294.004146,462.459918 C292.110316,458.377762 290.915834,456.498392 288.85589,456.199864 L288.85589,456.199864 C251.24978,450.749976 223,418.377478 223,380 C223,337.474074 257.474074,303 300,303 C342.525926,303 377,337.474074 377,380 C377,418.338028 348.807104,450.688343 311.249896,456.184458 C309.536092,456.435256 308.854718,457.470949 308.48257,458.819618 C308.345063,459.317946 308.263503,459.88457 308.205441,460.601977 C308.124397,461.603353 308.093026,462.719575 308.056605,465.214906 C307.895216,476.272185 307.499562,482.260477 305.921909,489.697614 C304.27586,497.457168 301.593151,503.860189 297.676713,508.654233 C293.952107,513.213459 289.000456,516.576617 283.081502,518.894829 C281.593186,519.477741 280.066477,519.986014 278.509892,520.424424 Z"/>
    <g transform="rotate(52 338.929 272.02)">
      <use fill="#3E8182" xlink:href="#b"/>
      <path stroke="#0A2D4B" stroke-width="6" d="M338.928934,315.815778 C338.455919,315.32651 337.957561,314.797135 337.43783,314.229091 C334.750859,311.292346 332.060769,307.951076 329.552843,304.275137 C322.454742,293.871249 318.220395,282.929517 318.220395,272.019761 C318.220395,261.110005 322.454742,250.168274 329.552843,239.764385 C332.060769,236.088446 334.750859,232.747176 337.43783,229.810431 C337.957561,229.242387 338.455919,228.713012 338.928934,228.223744 C339.401949,228.713012 339.900306,229.242387 340.420037,229.810431 C343.107008,232.747176 345.797098,236.088446 348.305025,239.764385 C355.403125,250.168274 359.637473,261.110005 359.637473,272.019761 C359.637473,282.929517 355.403125,293.871249 348.305025,304.275137 C345.797098,307.951076 343.107008,311.292346 340.420037,314.229091 C339.900306,314.797135 339.401949,315.32651 338.928934,315.815778 Z"/>
    </g>
    <g transform="scale(-1 1) rotate(52 0 -263.765)">
      <use fill="#3E8182" xlink:href="#c"/>
      <path stroke="#0A2D4B" stroke-width="6" d="M261.426522,316.034704 C260.953507,315.545437 260.455149,315.016061 259.935418,314.448017 C257.248447,311.511272 254.558357,308.170002 252.050431,304.494063 C244.95233,294.090175 240.717982,283.148443 240.717982,272.238687 C240.717982,261.328932 244.95233,250.3872 252.050431,239.983311 C254.558357,236.307372 257.248447,232.966102 259.935418,230.029358 C260.455149,229.461313 260.953507,228.931938 261.426522,228.44267 C261.899537,228.931938 262.397894,229.461313 262.917625,230.029358 C265.604596,232.966102 268.294686,236.307372 270.802612,239.983311 C277.900713,250.3872 282.135061,261.328932 282.135061,272.238687 C282.135061,283.148443 277.900713,294.090175 270.802612,304.494063 C268.294686,308.170002 265.604596,311.511272 262.917625,314.448017 C262.397894,315.016061 261.899537,315.545437 261.426522,316.034704 Z"/>
    </g>
    <g transform="rotate(35 327.78 130.924)">
      <use fill="#3E8182" xlink:href="#d"/>
      <path stroke="#0A2D4B" stroke-width="6" d="M327.779082,174.719766 C327.306067,174.230498 326.80771,173.701123 326.287978,173.133079 C323.601007,170.196334 320.910917,166.855064 318.402991,163.179125 C311.304891,152.775236 307.070543,141.833505 307.070543,130.923749 C307.070543,120.013993 311.304891,109.072261 318.402991,98.6683728 C320.910917,94.9924338 323.601007,91.6511639 326.287978,88.7144191 C326.80771,88.1463748 327.306067,87.6169996 327.779082,87.127732 C328.252097,87.6169996 328.750454,88.1463748 329.270185,88.7144191 C331.957156,91.6511639 334.647247,94.9924338 337.155173,98.6683728 C344.253273,109.072261 348.487621,120.013993 348.487621,130.923749 C348.487621,141.833505 344.253273,152.775236 337.155173,163.179125 C334.647247,166.855064 331.957156,170.196334 329.270185,173.133079 C328.750454,173.701123 328.252097,174.230498 327.779082,174.719766 Z"/>
    </g>
    <g transform="rotate(3 300.011 119.182)">
      <use fill="#3E8182" xlink:href="#e"/>
      <path stroke="#0A2D4B" stroke-width="6" d="M300.011003,162.978104 C299.537988,162.488836 299.03963,161.959461 298.519899,161.391417 C295.832928,158.454672 293.142838,155.113402 290.634912,151.437463 C283.536811,141.033575 279.302464,130.091843 279.302464,119.182087 C279.302464,108.272331 283.536811,97.3305995 290.634912,86.9267109 C293.142838,83.2507719 295.832928,79.909502 298.519899,76.9727573 C299.03963,76.4047129 299.537988,75.8753377 300.011003,75.3860701 C300.484018,75.8753377 300.982375,76.4047129 301.502106,76.9727573 C304.189077,79.909502 306.879168,83.2507719 309.387094,86.9267109 C316.485194,97.3305995 320.719542,108.272331 320.719542,119.182087 C320.719542,130.091843 316.485194,141.033575 309.387094,151.437463 C306.879168,155.113402 304.189077,158.454672 301.502106,161.391417 C300.982375,161.959461 300.484018,162.488836 300.011003,162.978104 Z"/>
    </g>
    <g transform="rotate(-36 272.22 128.774)">
      <use fill="#3E8182" xlink:href="#f"/>
      <path stroke="#0A2D4B" stroke-width="6" d="M272.220918,172.570082 C271.747903,172.080814 271.249546,171.551439 270.729815,170.983395 C268.042844,168.04665 265.352753,164.70538 262.844827,161.029441 C255.746727,150.625553 251.512379,139.683821 251.512379,128.774065 C251.512379,117.864309 255.746727,106.922578 262.844827,96.518689 C265.352753,92.84275 268.042844,89.5014801 270.729815,86.5647353 C271.249546,85.996691 271.747903,85.4673158 272.220918,84.9780482 C272.693933,85.4673158 273.19229,85.996691 273.712022,86.5647353 C276.398993,89.5014801 279.089083,92.84275 281.597009,96.518689 C288.695109,106.922578 292.929457,117.864309 292.929457,128.774065 C292.929457,139.683821 288.695109,150.625553 281.597009,161.029441 C279.089083,164.70538 276.398993,168.04665 273.712022,170.983395 C273.19229,171.551439 272.693933,172.080814 272.220918,172.570082 Z"/>
    </g>
    <g transform="rotate(65 148.309 386.942)">
      <g transform="rotate(3 76.011 49.182)">
        <use fill="#3E8182" xlink:href="#g"/>
        <path stroke="#0A2D4B" stroke-width="6" d="M76.0110027,92.9781038 C75.5379877,92.4888363 75.0396305,91.9594611 74.5198991,91.3914167 C71.8329284,88.4546719 69.1428378,85.113402 66.6349118,81.4374631 C59.5368115,71.0335745 55.3024636,60.0918427 55.3024636,49.182087 C55.3024636,38.2723313 59.5368115,27.3305995 66.6349118,16.9267109 C69.1428378,13.2507719 71.8329284,9.90950204 74.5198991,6.97275726 C75.0396305,6.40471289 75.5379877,5.87533773 76.0110027,5.38607014 C76.4840177,5.87533773 76.9823749,6.40471289 77.5021064,6.97275726 C80.189077,9.90950204 82.8791676,13.2507719 85.3870937,16.9267109 C92.485194,27.3305995 96.7195418,38.2723313 96.7195418,49.182087 C96.7195418,60.0918427 92.485194,71.0335745 85.3870937,81.4374631 C82.8791676,85.113402 80.189077,88.4546719 77.5021064,91.3914167 C76.9823749,91.9594611 76.4840177,92.4888363 76.0110027,92.9781038 Z"/>
      </g>
      <g transform="rotate(35 103.78 60.924)">
        <use fill="#3E8182" xlink:href="#h"/>
        <path stroke="#0A2D4B" stroke-width="6" d="M103.779082,104.719766 C103.306067,104.230498 102.80771,103.701123 102.287978,103.133079 C99.6010075,100.196334 96.9109169,96.8550639 94.4029908,93.1791249 C87.3048905,82.7752364 83.0705427,71.8335045 83.0705427,60.9237488 C83.0705427,50.0139932 87.3048905,39.0722613 94.4029908,28.6683728 C96.9109169,24.9924338 99.6010075,21.6511639 102.287978,18.7144191 C102.80771,18.1463748 103.306067,17.6169996 103.779082,17.127732 C104.252097,17.6169996 104.750454,18.1463748 105.270185,18.7144191 C107.957156,21.6511639 110.647247,24.9924338 113.155173,28.6683728 C120.253273,39.0722613 124.487621,50.0139932 124.487621,60.9237488 C124.487621,71.8335045 120.253273,82.7752364 113.155173,93.1791249 C110.647247,96.8550639 107.957156,100.196334 105.270185,103.133079 C104.750454,103.701123 104.252097,104.230498 103.779082,104.719766 L103.779082,104.719766 Z"/>
      </g>
      <g transform="rotate(-36 48.22 58.774)">
        <use fill="#3E8182" xlink:href="#i"/>
        <path stroke="#0A2D4B" stroke-width="6" d="M48.2209182,102.570082 C47.7479032,102.080814 47.249546,101.551439 46.7298145,100.983395 C44.0428439,98.04665 41.3527533,94.7053801 38.8448272,91.0294412 C31.7467269,80.6255526 27.5123791,69.6838208 27.5123791,58.7740651 C27.5123791,47.8643094 31.7467269,36.9225775 38.8448272,26.518689 C41.3527533,22.84275 44.0428439,19.5014801 46.7298145,16.5647353 C47.249546,15.996691 47.7479032,15.4673158 48.2209182,14.9780482 C48.6939332,15.4673158 49.1922904,15.996691 49.7120218,16.5647353 C52.3989925,19.5014801 55.0890831,22.84275 57.5970092,26.518689 C64.6951095,36.9225775 68.9294573,47.8643094 68.9294573,58.7740651 C68.9294573,69.6838208 64.6951095,80.6255526 57.5970092,91.0294412 C55.0890831,94.7053801 52.3989925,98.04665 49.7120218,100.983395 C49.1922904,101.551439 48.6939332,102.080814 48.2209182,102.570082 Z"/>
      </g>
    </g>
    <use fill="#3E8182" xlink:href="#j"/>
    <rect width="2" height="131" x="299" y="166" stroke="#0A2D4B" stroke-width="6"/>
    <use fill="#3E8182" xlink:href="#k"/>
    <path stroke="#0A2D4B" stroke-width="6" d="M309.267591,254.055442 C308.306413,256.57214 307.427562,259.21136 306.627217,261.963752 C304.204562,270.295277 302.634013,279.188011 301.74086,288.075461 C301.428579,291.182862 301.222954,294.069985 301.103249,296.665006 C301.098027,296.778222 301.093016,296.889892 301.088213,297 L299.24692,297 C299.254603,296.918131 299.262437,296.835425 299.270426,296.751888 C299.534161,293.993936 299.907878,290.916157 300.410399,287.599651 C301.845046,278.131365 304.019527,268.667768 307.075574,259.864551 C307.769272,257.86629 308.499768,255.928677 309.267591,254.055442 Z M362.083773,206.238537 C356.904307,208.769002 351.802293,211.478724 346.916858,214.347074 C335.794665,220.877165 326.748759,227.673876 320.490598,234.687244 C320.480382,234.698694 320.47017,234.71015 320.459962,234.721613 C320.693419,234.442194 320.928725,234.166497 321.165885,233.894562 C327.068985,227.12589 335.030118,220.894641 344.540294,215.240555 C350.159106,211.900002 356.079688,208.89777 362.083773,206.238537 Z M378.224493,199.967338 L380.679281,202.500492 L381.784036,197.60237 C381.638184,197.656843 381.366231,197.760287 380.976547,197.911377 C380.333783,198.160592 379.590092,198.454783 378.753835,198.792632 C378.597197,198.855914 378.439395,198.919882 378.280447,198.984532 C378.04225,199.081416 377.80148,199.179834 377.558202,199.279775 C375.494747,200.127463 373.250799,201.084754 370.865335,202.145558 C367.930148,203.450822 364.994728,204.816369 362.083773,206.238537 C364.354123,205.23299 366.636412,204.276487 368.91884,203.369281 C371.830657,202.21191 374.53248,201.219915 376.95333,200.393988 C377.405229,200.239812 377.829404,200.097592 378.224493,199.967338 C378.567007,199.854417 378.887661,199.750488 379.18557,199.655559 C379.564533,199.534802 379.820407,199.45587 379.944347,199.418819 L378.280447,198.984532 L378.280445,198.984532 L376.9307,198.632241 L377.558202,199.279775 L378.224493,199.967338 Z"/>
    <g transform="matrix(-1 0 0 1 560 0)">
      <use fill="#3E8182" xlink:href="#l"/>
      <rect width="64" height="1" x="248" y="323" stroke="#0A2D4B" stroke-width="6" rx=".5"/>
    </g>
    <g transform="matrix(-1 0 0 1 536 0)">
      <use fill="#3E8182" xlink:href="#m"/>
      <rect width="64" height="1" x="236" y="343" stroke="#0A2D4B" stroke-width="6" rx=".5"/>
    </g>
    <g transform="matrix(-1 0 0 1 510 0)">
      <use fill="#3E8182" xlink:href="#n"/>
      <rect width="54" height="1" x="228" y="363" stroke="#0A2D4B" stroke-width="6" rx=".5"/>
    </g>
    <g transform="matrix(-1 0 0 1 488 0)">
      <use fill="#3E8182" xlink:href="#o"/>
      <rect width="34" height="1" x="227" y="383" stroke="#0A2D4B" stroke-width="6" rx=".5"/>
    </g>
    <g transform="matrix(-1 0 0 1 712 0)">
      <use fill="#3E8182" xlink:href="#p"/>
      <rect width="34" height="1" x="339" y="363" stroke="#0A2D4B" stroke-width="6" rx=".5"/>
    </g>
    <g transform="matrix(-1 0 0 1 638 0)">
      <use fill="#3E8182" xlink:href="#q"/>
      <rect width="24" height="1" x="307" y="383" stroke="#0A2D4B" stroke-width="6" rx=".5"/>
    </g>
    <g transform="matrix(-1 0 0 1 678 0)">
      <use fill="#3E8182" xlink:href="#r"/>
      <rect width="24" height="1" x="327" y="403" stroke="#0A2D4B" stroke-width="6" rx=".5"/>
    </g>
    <g transform="matrix(-1 0 0 1 502 0)">
      <use fill="#3E8182" xlink:href="#s"/>
      <rect width="44" height="1" x="229" y="403" stroke="#0A2D4B" stroke-width="6" rx=".5"/>
    </g>
    <g transform="matrix(-1 0 0 1 536 0)">
      <use fill="#3E8182" xlink:href="#t"/>
      <rect width="64" height="1" x="236" y="423" stroke="#0A2D4B" stroke-width="6" rx=".5"/>
    </g>
    <g transform="matrix(-1 0 0 1 536 0)">
      <use fill="#3E8182" xlink:href="#u"/>
      <rect width="24" height="1" x="256" y="443" stroke="#0A2D4B" stroke-width="6" rx=".5"/>
    </g>
  </g>
</svg>
