<svg xmlns="http://www.w3.org/2000/svg" width="600" height="600" viewBox="0 0 600 600" xmlns:xlink="http://www.w3.org/1999/xlink" style="background:#fd9c62">
  <defs>
    <path id="a" d="M180,180 C279.411255,180 360,99.411255 360,2.27373675e-13 C256.783722,2.27373675e-13 103.691864,1.58847668e-06 0,2.27373675e-13 C0,99.411255 80.588745,180 180,180 Z"/>
    <path id="b" d="M180,165 C271.126984,165 345,91.1269837 345,-2.94357683e-14 C248.555573,-2.84213764e-14 160.593307,-5.87483945e-07 15,-2.94357683e-14 C15,91.1269837 88.8730163,165 180,165 Z"/>
    <path id="c" d="M180,150 C262.842712,150 330,82.8427125 330,3.97941194e-14 C217.53981,5.68443923e-14 154.862625,-1.87165911e-06 30,3.97941194e-14 C30,82.8427125 97.1572875,150 180,150 Z"/>
    <circle id="d" cx="243" cy="329" r="180"/>
    <rect id="f" width="100" height="6" x="129" y="169" rx="3"/>
    <rect id="g" width="100" height="6" x="59" y="189" rx="3"/>
    <rect id="h" width="100" height="6" x="109" y="209" rx="3"/>
    <rect id="i" width="100" height="6" x="75" y="229" rx="3"/>
    <rect id="j" width="100" height="6" x="83" y="249" rx="3"/>
    <rect id="k" width="100" height="6" x="243" y="249" rx="3"/>
    <rect id="l" width="100" height="6" x="36" y="269" rx="3"/>
    <path id="m" d="M57,292 C57,290.343146 58.3380125,289 59.9928014,289 L154.007199,289 C155.660077,289 157,290.346517 157,292 L157,292 C157,293.656854 155.661987,295 154.007199,295 L59.9928014,295 C58.3399228,295 57,293.653483 57,292 L57,292 Z"/>
    <rect id="n" width="100" height="6" x="36" y="309" rx="3"/>
    <rect id="o" width="100" height="6" x="-4" y="329" rx="3"/>
    <rect id="p" width="100" height="6" x="66" y="349" rx="3"/>
    <rect id="q" width="130" height="6" x="68" y="369" rx="3"/>
    <rect id="r" width="100" height="6" x="258" y="369" rx="3"/>
    <rect id="s" width="100" height="6" x="268" y="369" rx="3"/>
    <rect id="t" width="100" height="6" x="75" y="389" rx="3"/>
    <rect id="u" width="100" height="6" x="53" y="409" rx="3"/>
    <rect id="v" width="100" height="6" x="93" y="429" rx="3"/>
    <rect id="w" width="100" height="6" x="329" y="209" rx="3"/>
    <rect id="x" width="100" height="6" x="376" y="309" rx="3"/>
    <rect id="y" width="100" height="6" x="336" y="329" rx="3"/>
    <rect id="z" width="100" height="6" x="313" y="429" rx="3"/>
    <rect id="A" width="100" height="6" x="53" y="449" rx="3"/>
    <rect id="B" width="100" height="6" x="113" y="469" rx="3"/>
    <rect id="C" width="100" height="6" x="143" y="489" rx="3"/>
  </defs>
  <g fill="none" fill-rule="evenodd">
    <g transform="rotate(-45 666.046 -52.327)">
      <use fill="#3E8182" xlink:href="#a"/>
      <path stroke="#0A2D4B" stroke-width="6" d="M3.02491101,3.00000005 C47.2991255,3.0000007 85.6374349,3.00000079 179.256592,3.0000006 C211.785853,3.00000049 211.785853,3.00000049 243.835402,3.00000035 C304.453595,3.00000009 305.598938,3.00000009 356.975084,3 C355.373547,99.3705836 276.752434,177 180,177 C83.2475656,177 4.62645292,99.3705836 3.02491101,3.00000005 L3.02491101,3.00000005 Z"/>
      <use fill="#F9CF8E" xlink:href="#b"/>
      <path stroke="#0A2D4B" stroke-width="6" d="M18.0272208,2.99999999 C147.79234,2.99999967 148.560959,2.99999968 248.934323,2.99999987 C278.83134,2.99999993 278.83134,2.99999993 308.158485,2.99999997 C325.449242,2.99999999 326.448183,3 341.973273,3 C340.373066,91.0858382 268.467978,162 180,162 C91.5320219,162 19.6269338,91.0858382 18.027221,2.99999999 L18.0272208,2.99999999 Z"/>
      <use fill="#EA3342" xlink:href="#c"/>
      <path stroke="#0A2D4B" stroke-width="6" d="M33.0300036,2.99999995 C91.4788274,2.99999909 125.698608,2.99999902 199.677652,2.99999938 C214.755255,2.99999948 214.755255,2.99999948 229.987165,2.99999958 C275.63922,2.99999989 276.518365,2.9999999 326.969997,2.99999999 C325.372486,82.8009963 260.183483,147 180,147 C99.8165186,147 34.6275172,82.8009994 33.0300033,3.00000565 L33.0300036,2.99999995 Z"/>
      <path stroke="#0A2D4B" stroke-width="4" d="M179.996722,132.199873 L179.904214,132.12607 C179.7422,131.996817 179.399782,131.628736 179.033003,131.03116 C178.389326,129.982445 178,128.700715 178,127.151536 C178,125.601663 178.387561,124.322404 179.027889,123.278119 C179.392122,122.684104 179.731622,122.319408 179.891251,122.19236 L180.003278,122.103198 L180.095786,122.177001 C180.2578,122.306254 180.600218,122.674335 180.966997,123.271911 C181.610674,124.320626 182,125.602356 182,127.151536 C182,128.701408 181.612439,129.980667 180.972111,131.024953 C180.607878,131.618967 180.268378,131.983664 180.108749,132.110712 L179.996722,132.199873 Z"/>
      <path stroke="#0A2D4B" stroke-width="4" d="M212.996722,127.199873 L212.904214,127.12607 C212.7422,126.996817 212.399782,126.628736 212.033003,126.03116 C211.389326,124.982445 211,123.700715 211,122.151536 C211,120.601663 211.387561,119.322404 212.027889,118.278119 C212.392122,117.684104 212.731622,117.319408 212.891251,117.19236 L213.003278,117.103198 L213.095786,117.177001 C213.2578,117.306254 213.600218,117.674335 213.966997,118.271911 C214.610674,119.320626 215,120.602356 215,122.151536 C215,123.701408 214.612439,124.980667 213.972111,126.024953 C213.607878,126.618967 213.268378,126.983664 213.108749,127.110712 L212.996722,127.199873 Z" transform="scale(-1 1) rotate(15 0 -1495.32)"/>
      <path stroke="#0A2D4B" stroke-width="4" d="M302.996722,37.1998726 L302.904214,37.1260704 C302.7422,36.9968168 302.399782,36.6287359 302.033003,36.03116 C301.389326,34.982445 301,33.7007152 301,32.1515355 C301,30.6016631 301.387561,29.322404 302.027889,28.2781186 C302.392122,27.684104 302.731622,27.3194076 302.891251,27.1923596 L303.003278,27.1031985 L303.095786,27.1770007 C303.2578,27.3062543 303.600218,27.6743352 303.966997,28.2719111 C304.610674,29.3206261 305,30.6023559 305,32.1515355 C305,33.701408 304.612439,34.9806671 303.972111,36.0249525 C303.607878,36.6189671 303.268378,36.9836635 303.108749,37.1107115 L302.996722,37.1998726 Z" transform="rotate(-75 303 32.576)"/>
      <path stroke="#0A2D4B" stroke-width="4" d="M287.996722,67.1998726 L287.904214,67.1260704 C287.7422,66.9968168 287.399782,66.6287359 287.033003,66.03116 C286.389326,64.982445 286,63.7007152 286,62.1515355 C286,60.6016631 286.387561,59.322404 287.027889,58.2781186 C287.392122,57.684104 287.731622,57.3194076 287.891251,57.1923596 L288.003278,57.1031985 L288.095786,57.1770007 C288.2578,57.3062543 288.600218,57.6743352 288.966997,58.2719111 C289.610674,59.3206261 290,60.6023559 290,62.1515355 C290,63.701408 289.612439,64.9806671 288.972111,66.0249525 C288.607878,66.6189671 288.268378,66.9836635 288.108749,67.1107115 L287.996722,67.1998726 Z" transform="rotate(-60 288 62.576)"/>
      <path stroke="#0A2D4B" stroke-width="4" d="M266.996722,92.1998726 L266.904214,92.1260704 C266.7422,91.9968168 266.399782,91.6287359 266.033003,91.03116 C265.389326,89.982445 265,88.7007152 265,87.1515355 C265,85.6016631 265.387561,84.322404 266.027889,83.2781186 C266.392122,82.684104 266.731622,82.3194076 266.891251,82.1923596 L267.003278,82.1031985 L267.095786,82.1770007 C267.2578,82.3062543 267.600218,82.6743352 267.966997,83.2719111 C268.610674,84.3206261 269,85.6023559 269,87.1515355 C269,88.701408 268.612439,89.9806671 267.972111,91.0249525 C267.607878,91.6189671 267.268378,91.9836635 267.108749,92.1107115 L266.996722,92.1998726 Z" transform="rotate(-45 267 87.576)"/>
      <path stroke="#0A2D4B" stroke-width="4" d="M241.996722,113.199873 L241.904214,113.12607 C241.7422,112.996817 241.399782,112.628736 241.033003,112.03116 C240.389326,110.982445 240,109.700715 240,108.151536 C240,106.601663 240.387561,105.322404 241.027889,104.278119 C241.392122,103.684104 241.731622,103.319408 241.891251,103.19236 L242.003278,103.103198 L242.095786,103.177001 C242.2578,103.306254 242.600218,103.674335 242.966997,104.271911 C243.610674,105.320626 244,106.602356 244,108.151536 C244,109.701408 243.612439,110.980667 242.972111,112.024953 C242.607878,112.618967 242.268378,112.983664 242.108749,113.110712 L241.996722,113.199873 Z" transform="rotate(-30 242 108.576)"/>
      <path stroke="#0A2D4B" stroke-width="4" d="M145.996722,127.199873 L145.904214,127.12607 C145.7422,126.996817 145.399782,126.628736 145.033003,126.03116 C144.389326,124.982445 144,123.700715 144,122.151536 C144,120.601663 144.387561,119.322404 145.027889,118.278119 C145.392122,117.684104 145.731622,117.319408 145.891251,117.19236 L146.003278,117.103198 L146.095786,117.177001 C146.2578,117.306254 146.600218,117.674335 146.966997,118.271911 C147.610674,119.320626 148,120.602356 148,122.151536 C148,123.701408 147.612439,124.980667 146.972111,126.024953 C146.607878,126.618967 146.268378,126.983664 146.108749,127.110712 L145.996722,127.199873 Z" transform="rotate(15 146 122.576)"/>
      <path stroke="#0A2D4B" stroke-width="4" d="M55.9967223,37.1998726 L55.9042142,37.1260704 C55.7422,36.9968168 55.399782,36.6287359 55.0330033,36.03116 C54.3893255,34.982445 54,33.7007152 54,32.1515355 C54,30.6016631 54.3875611,29.322404 55.0278887,28.2781186 C55.3921225,27.684104 55.7316223,27.3194076 55.8912515,27.1923596 L56.0032777,27.1031985 L56.0957858,27.1770007 C56.2578,27.3062543 56.600218,27.6743352 56.9669967,28.2719111 C57.6106745,29.3206261 58,30.6023559 58,32.1515355 C58,33.701408 57.6124389,34.9806671 56.9721113,36.0249525 C56.6078775,36.6189671 56.2683777,36.9836635 56.1087485,37.1107115 L55.9967223,37.1998726 Z" transform="scale(-1 1) rotate(-75 0 105.556)"/>
      <path stroke="#0A2D4B" stroke-width="4" d="M70.9967223,67.1998726 L70.9042142,67.1260704 C70.7422,66.9968168 70.399782,66.6287359 70.0330033,66.03116 C69.3893255,64.982445 69,63.7007152 69,62.1515355 C69,60.6016631 69.3875611,59.322404 70.0278887,58.2781186 C70.3921225,57.684104 70.7316223,57.3194076 70.8912515,57.1923596 L71.0032777,57.1031985 L71.0957858,57.1770007 C71.2578,57.3062543 71.600218,57.6743352 71.9669967,58.2719111 C72.6106745,59.3206261 73,60.6023559 73,62.1515355 C73,63.701408 72.6124389,64.9806671 71.9721113,66.0249525 C71.6078775,66.6189671 71.2683777,66.9836635 71.1087485,67.1107115 L70.9967223,67.1998726 Z" transform="scale(-1 1) rotate(-60 0 185.551)"/>
      <path stroke="#0A2D4B" stroke-width="4" d="M91.9967223,92.1998726 L91.9042142,92.1260704 C91.7422,91.9968168 91.399782,91.6287359 91.0330033,91.03116 C90.3893255,89.982445 90,88.7007152 90,87.1515355 C90,85.6016631 90.3875611,84.322404 91.0278887,83.2781186 C91.3921225,82.684104 91.7316223,82.3194076 91.8912515,82.1923596 L92.0032777,82.1031985 L92.0957858,82.1770007 C92.2578,82.3062543 92.600218,82.6743352 92.9669967,83.2719111 C93.6106745,84.3206261 94,85.6023559 94,87.1515355 C94,88.701408 93.6124389,89.9806671 92.9721113,91.0249525 C92.6078775,91.6189671 92.2683777,91.9836635 92.1087485,92.1107115 L91.9967223,92.1998726 Z" transform="scale(-1 1) rotate(-45 0 309.683)"/>
      <path stroke="#0A2D4B" stroke-width="4" d="M116.996722,113.199873 L116.904214,113.12607 C116.7422,112.996817 116.399782,112.628736 116.033003,112.03116 C115.389326,110.982445 115,109.700715 115,108.151536 C115,106.601663 115.387561,105.322404 116.027889,104.278119 C116.392122,103.684104 116.731622,103.319408 116.891251,103.19236 L117.003278,103.103198 L117.095786,103.177001 C117.2578,103.306254 117.600218,103.674335 117.966997,104.271911 C118.610674,105.320626 119,106.602356 119,108.151536 C119,109.701408 118.612439,110.980667 117.972111,112.024953 C117.607878,112.618967 117.268378,112.983664 117.108749,113.110712 L116.996722,113.199873 Z" transform="scale(-1 1) rotate(-30 0 545.226)"/>
    </g>
    <g stroke="#0A2D4B" stroke-width="6" transform="translate(55 503)" stroke-linecap="square">
      <path d="M.600244499 3L420.771394 3M444.781174 3L456.786064 3M480.795844 3L490.399756 3"/>
    </g>
    <mask id="e" fill="white">
      <use xlink:href="#d"/>
    </mask>
    <use fill="#3E8182" xlink:href="#d"/>
    <circle cx="243" cy="329" r="177" stroke="#0A2D4B" stroke-width="6"/>
    <g mask="url(#e)" transform="matrix(-1 0 0 1 358 0)">
      <use fill="#3E8182" xlink:href="#f"/>
      <rect width="94" height="1" x="132" y="172" stroke="#0A2D4B" stroke-width="6" rx=".5"/>
    </g>
    <g mask="url(#e)" transform="matrix(-1 0 0 1 218 0)">
      <use fill="#3E8182" xlink:href="#g"/>
      <rect width="94" height="1" x="62" y="192" stroke="#0A2D4B" stroke-width="6" rx=".5"/>
    </g>
    <g mask="url(#e)" transform="matrix(-1 0 0 1 318 0)">
      <use fill="#3E8182" xlink:href="#h"/>
      <rect width="94" height="1" x="112" y="212" stroke="#0A2D4B" stroke-width="6" rx=".5"/>
    </g>
    <g mask="url(#e)" transform="matrix(-1 0 0 1 250 0)">
      <use fill="#3E8182" xlink:href="#i"/>
      <rect width="94" height="1" x="78" y="232" stroke="#0A2D4B" stroke-width="6" rx=".5"/>
    </g>
    <g mask="url(#e)" transform="matrix(-1 0 0 1 266 0)">
      <use fill="#3E8182" xlink:href="#j"/>
      <rect width="94" height="1" x="86" y="252" stroke="#0A2D4B" stroke-width="6" rx=".5"/>
    </g>
    <g mask="url(#e)" transform="matrix(-1 0 0 1 586 0)">
      <use fill="#3E8182" xlink:href="#k"/>
      <rect width="94" height="1" x="246" y="252" stroke="#0A2D4B" stroke-width="6" rx=".5"/>
    </g>
    <g mask="url(#e)" transform="matrix(-1 0 0 1 172 0)">
      <use fill="#3E8182" xlink:href="#l"/>
      <rect width="94" height="1" x="39" y="272" stroke="#0A2D4B" stroke-width="6" rx=".5"/>
    </g>
    <g mask="url(#e)" transform="matrix(-1 0 0 1 214 0)">
      <use fill="#3E8182" xlink:href="#m"/>
      <path stroke="#0A2D4B" stroke-width="6" d="M60,292 C60,291.997432 59.9974391,292 59.9928014,292 L154.007199,292 C153.999924,292 154,292.000076 154,292 C154,292.002568 154.002561,292 154.007199,292 L59.9928014,292 C60.000076,292 60,291.999924 60,292 Z"/>
    </g>
    <g mask="url(#e)" transform="matrix(-1 0 0 1 172 0)">
      <use fill="#3E8182" xlink:href="#n"/>
      <rect width="94" height="1" x="39" y="312" stroke="#0A2D4B" stroke-width="6" rx=".5"/>
    </g>
    <g mask="url(#e)" transform="matrix(-1 0 0 1 92 0)">
      <use fill="#3E8182" xlink:href="#o"/>
      <rect width="94" height="1" x="-1" y="332" stroke="#0A2D4B" stroke-width="6" rx=".5"/>
    </g>
    <g mask="url(#e)" transform="matrix(-1 0 0 1 232 0)">
      <use fill="#3E8182" xlink:href="#p"/>
      <rect width="94" height="1" x="69" y="352" stroke="#0A2D4B" stroke-width="6" rx=".5"/>
    </g>
    <g mask="url(#e)" transform="matrix(-1 0 0 1 266 0)">
      <use fill="#3E8182" xlink:href="#q"/>
      <rect width="124" height="1" x="71" y="372" stroke="#0A2D4B" stroke-width="6" rx=".5"/>
    </g>
    <g mask="url(#e)" transform="matrix(-1 0 0 1 616 0)">
      <use fill="#3E8182" xlink:href="#r"/>
      <rect width="94" height="1" x="261" y="372" stroke="#0A2D4B" stroke-width="6" rx=".5"/>
    </g>
    <g mask="url(#e)" transform="matrix(-1 0 0 1 636 0)">
      <use fill="#3E8182" xlink:href="#s"/>
      <rect width="94" height="1" x="271" y="372" stroke="#0A2D4B" stroke-width="6" rx=".5"/>
    </g>
    <g mask="url(#e)" transform="matrix(-1 0 0 1 250 0)">
      <use fill="#3E8182" xlink:href="#t"/>
      <rect width="94" height="1" x="78" y="392" stroke="#0A2D4B" stroke-width="6" rx=".5"/>
    </g>
    <g mask="url(#e)" transform="matrix(-1 0 0 1 206 0)">
      <use fill="#3E8182" xlink:href="#u"/>
      <rect width="94" height="1" x="56" y="412" stroke="#0A2D4B" stroke-width="6" rx=".5"/>
    </g>
    <g mask="url(#e)" transform="matrix(-1 0 0 1 286 0)">
      <use fill="#3E8182" xlink:href="#v"/>
      <rect width="94" height="1" x="96" y="432" stroke="#0A2D4B" stroke-width="6" rx=".5"/>
    </g>
    <g mask="url(#e)" transform="matrix(-1 0 0 1 758 0)">
      <use fill="#3E8182" xlink:href="#w"/>
      <rect width="94" height="1" x="332" y="212" stroke="#0A2D4B" stroke-width="6" rx=".5"/>
    </g>
    <g mask="url(#e)" transform="matrix(-1 0 0 1 852 0)">
      <use fill="#3E8182" xlink:href="#x"/>
      <rect width="94" height="1" x="379" y="312" stroke="#0A2D4B" stroke-width="6" rx=".5"/>
    </g>
    <g mask="url(#e)" transform="matrix(-1 0 0 1 772 0)">
      <use fill="#3E8182" xlink:href="#y"/>
      <rect width="94" height="1" x="339" y="332" stroke="#0A2D4B" stroke-width="6" rx=".5"/>
    </g>
    <g mask="url(#e)" transform="matrix(-1 0 0 1 726 0)">
      <use fill="#3E8182" xlink:href="#z"/>
      <rect width="94" height="1" x="316" y="432" stroke="#0A2D4B" stroke-width="6" rx=".5"/>
    </g>
    <g mask="url(#e)" transform="matrix(-1 0 0 1 206 0)">
      <use fill="#3E8182" xlink:href="#A"/>
      <rect width="94" height="1" x="56" y="452" stroke="#0A2D4B" stroke-width="6" rx=".5"/>
    </g>
    <g mask="url(#e)" transform="matrix(-1 0 0 1 326 0)">
      <use fill="#3E8182" xlink:href="#B"/>
      <rect width="94" height="1" x="116" y="472" stroke="#0A2D4B" stroke-width="6" rx=".5"/>
    </g>
    <g mask="url(#e)" transform="matrix(-1 0 0 1 386 0)">
      <use fill="#3E8182" xlink:href="#C"/>
      <rect width="94" height="1" x="146" y="492" stroke="#0A2D4B" stroke-width="6" rx=".5"/>
    </g>
  </g>
</svg>
