<svg xmlns="http://www.w3.org/2000/svg" width="800" height="800" viewBox="0 0 800 800" style="background:#ffe16c">
  <g fill="none" fill-rule="evenodd">
    <g stroke="#0A2D4B" stroke-width="4" transform="translate(121 626)" stroke-linecap="square">
      <path d="M0 2L500 2M520 2L530 2M550 2L558 2"/>
    </g>
    <path fill="#6ED2E6" stroke="#0A2D4B" stroke-width="4" d="M461.475,467.6 C456.595,463.89 454.875,457.13 458.1,451.875 L471.85,429.475 C475.05,424.24 472.69,420 466.535,420 L333.175,420 C327.045,420 324.855,424.12 328.295,429.2 L343.08,451.055 C346.515,456.155 344.955,462.695 339.99,466.31 C314.545,484.825 298,514.845 298,548.73 C298,573.03 310.655,600.685 325.99,619.65 C329.855,624.435 338.39,627.93 344.525,627.93 L451.83,627.93 C457.98,627.93 466.65,624.61 470.795,620.06 C487.845,601.29 501.71,574.65 501.71,548.71 C501.73,515.625 485.95,486.21 461.475,467.6 L461.475,467.6 Z"/>
    <g fill="#0A2D4B" transform="matrix(-1 0 0 1 397 563)">
      <path stroke="#0A2D4B" stroke-width="2" d="M54.876,34.8139102 C54.868,34.7279102 54.89,34.6499102 54.882,34.5719102 C53.438,25.9939102 54.078,16.7599102 54.89,8.85391018 C54.984,8.00191018 54.406,7.22791018 53.57,7.06391018 C52.734,6.89991018 51.906,7.39991018 51.672,8.22191018 C50.562,12.0499102 48.796,15.6819102 46.586,18.9859102 C43.016,14.6739102 38.688,11.1039102 34.008,8.72191018 C34.39,6.68191018 35.524,3.63591018 36.578,1.61191018 C36.758,1.25991018 36.742,0.845910179 36.532,0.509910179 C36.32,0.181910179 35.954,-0.0220898208 35.562,0.00191017916 C31.14,0.189910179 23.618,2.10391018 20.156,5.63591018 C16.25,5.89991018 12.562,7.14991018 9.344,9.43991018 C8.602,9.97191018 2.156,17.3139102 1.704,18.1039102 C1.156,19.0259102 0.64,20.0179102 0.148,21.0499102 C0.086,21.2359102 0.07,21.3459102 0.046,21.4639102 C0.024,21.5639102 0,21.6579102 0,21.7599102 C0,21.8619102 0.024,21.9559102 0.046,22.0559102 C0.062,22.1659102 0.078,22.2759102 0.124,22.3859102 C3.852,30.2919102 9.25,35.3139102 15.758,37.1659102 C17.946,41.0559102 22.868,42.2439102 27.032,42.7999102 C27.532,42.8139102 27.868,42.6419102 28.078,42.3459102 C28.312,42.0099102 28.344,41.5719102 28.156,41.2059102 L27.828,40.5879102 C27.148,39.2919102 26.718,38.4319102 26.508,37.4559102 C33.938,35.9399102 41.148,31.1739102 46.624,24.5419102 C48.828,27.8539102 50.57,31.4939102 51.672,35.2999102 C51.704,35.4079102 51.758,35.4939102 51.812,35.5959102 C51.844,35.6419102 51.86,35.7059102 51.89,35.7519102 C52,35.9159102 52.132,36.0559102 52.29,36.1739102 C52.516,36.3059102 52.656,36.3779102 52.812,36.4159102 C52.876,36.4319102 52.946,36.4399102 53.008,36.4479102 C53.086,36.4639102 53.172,36.4859102 53.25,36.4859102 C53.312,36.4859102 53.376,36.4719102 53.438,36.4639102 C53.632,36.4319102 53.672,36.4399102 53.71,36.4239102 C53.79,36.3999102 53.852,36.3459102 53.922,36.3139102 C54.024,36.2759102 54.118,36.2279102 54.21,36.1659102 C54.296,36.1039102 54.368,36.0259102 54.438,35.9479102 C54.508,35.8779102 54.578,35.7999102 54.632,35.7139102 C54.696,35.6279102 54.726,35.5259102 54.766,35.4319102 C54.804,35.3299102 54.844,35.2359102 54.86,35.1279102 C54.882,35.0259102 54.876,34.9239102 54.876,34.8139102 Z"/>
      <circle cx="13.5" cy="14.5" r="2.5"/>
    </g>
    <g fill="#0A2D4B" transform="matrix(-1 0 0 1 483 518.137)">
      <path stroke="#0A2D4B" stroke-width="2" d="M79.0818949,20.841672 L80.8586123,12.2454885 C80.9526931,11.7892814 80.8359726,11.3132282 80.5401465,10.9544708 C80.2453266,10.5957134 79.8051092,10.3929264 79.3422521,10.4028495 C70.9585005,10.5964767 66.3943266,14.7321098 64.2334881,17.583595 C62.4753856,14.8842637 59.1443235,12.481098 54.527072,10.6392222 C52.2344198,9.72502698 49.681662,8.96960095 46.9518111,8.38515716 L47.2280161,1.61278438 C47.2624788,0.768813964 46.6139757,0.0563879281 45.7795751,0.0215299399 C44.9592614,-0.0133280483 25.8726931,-0.695984853 18.3799415,9.35812757 C15.3801745,10.3341512 12.7476745,11.4791217 10.6162676,12.5396187 C7.11515582,14.2820092 2.2088701,17.4495063 0.521705507,19.7165477 C-0.0500739964,20.4839323 -0.30867027,21.0304649 0.575789358,21.9240506 C2.6677024,24.0371572 11.253954,30.6703524 22.6701745,33.4671335 C22.8696558,34.3826009 23.2794353,35.7362104 24.1155968,37.1198435 C25.4568763,39.3380329 28.168867,42.0762933 33.4771341,42.523595 C33.5193949,42.527666 33.5616558,42.5294471 33.6039167,42.5294471 C33.9812459,42.5294471 34.3477583,42.3854353 34.6277366,42.1251453 C34.9394105,41.8358495 35.1162521,41.4272222 35.1162521,40.9990033 L35.1162521,34.691743 C42.3169508,34.4670743 49.138308,33.194885 54.527072,31.0441217 C59.1443235,29.2022459 62.4753856,26.800098 64.2334881,24.0997489 C66.3943266,26.9512341 70.9585005,31.0868672 79.3432583,31.2804944 L79.377721,31.2804944 C79.8257366,31.2804944 80.2521186,31.0787252 80.5401465,30.7288731 C80.8359726,30.3701157 80.9526931,29.8950802 80.8586123,29.4378554 L79.0818949,20.841672 Z" transform="matrix(-1 0 0 1 80.89 0)"/>
      <circle cx="65.5" cy="16.5" r="2.5"/>
    </g>
    <path fill="#0A2D4B" d="M397.965046 366.297C399.192137 366.297 400.193591 365.328 400.193591 364.134 400.193591 362.946 399.192137 361.977 397.965046 361.977 396.737955 361.977 395.739591 362.946 395.739591 364.134 395.739591 365.328 396.737955 366.297 397.965046 366.297M387.965046 353.297C389.192137 353.297 390.193591 352.328 390.193591 351.134 390.193591 349.946 389.192137 348.977 387.965046 348.977 386.737955 348.977 385.739591 349.946 385.739591 351.134 385.739591 352.328 386.737955 353.297 387.965046 353.297M405.965046 348.297C407.192137 348.297 408.193591 347.328 408.193591 346.134 408.193591 344.946 407.192137 343.977 405.965046 343.977 404.737955 343.977 403.739591 344.946 403.739591 346.134 403.739591 347.328 404.737955 348.297 405.965046 348.297M416.965046 358.297C418.192137 358.297 419.193591 357.328 419.193591 356.134 419.193591 354.946 418.192137 353.977 416.965046 353.977 415.737955 353.977 414.739591 354.946 414.739591 356.134 414.739591 357.328 415.737955 358.297 416.965046 358.297M376.965046 318.297C378.192137 318.297 379.193591 317.328 379.193591 316.134 379.193591 314.946 378.192137 313.977 376.965046 313.977 375.737955 313.977 374.739591 314.946 374.739591 316.134 374.739591 317.328 375.737955 318.297 376.965046 318.297M402.965046 328.297C404.192137 328.297 405.193591 327.328 405.193591 326.134 405.193591 324.946 404.192137 323.977 402.965046 323.977 401.737955 323.977 400.739591 324.946 400.739591 326.134 400.739591 327.328 401.737955 328.297 402.965046 328.297M420.965046 338.297C422.192137 338.297 423.193591 337.328 423.193591 336.134 423.193591 334.946 422.192137 333.977 420.965046 333.977 419.737955 333.977 418.739591 334.946 418.739591 336.134 418.739591 337.328 419.737955 338.297 420.965046 338.297M416.965046 298.297C418.192137 298.297 419.193591 297.328 419.193591 296.134 419.193591 294.946 418.192137 293.977 416.965046 293.977 415.737955 293.977 414.739591 294.946 414.739591 296.134 414.739591 297.328 415.737955 298.297 416.965046 298.297M377.965046 258.297C379.192137 258.297 380.193591 257.328 380.193591 256.134 380.193591 254.946 379.192137 253.977 377.965046 253.977 376.737955 253.977 375.739591 254.946 375.739591 256.134 375.739591 257.328 376.737955 258.297 377.965046 258.297M507.965046 208.297C509.192137 208.297 510.193591 207.328 510.193591 206.134 510.193591 204.946 509.192137 203.977 507.965046 203.977 506.737955 203.977 505.739591 204.946 505.739591 206.134 505.739591 207.328 506.737955 208.297 507.965046 208.297M297.965046 218.297C299.192137 218.297 300.193591 217.328 300.193591 216.134 300.193591 214.946 299.192137 213.977 297.965046 213.977 296.737955 213.977 295.739591 214.946 295.739591 216.134 295.739591 217.328 296.737955 218.297 297.965046 218.297M427.965046 138.297C429.192137 138.297 430.193591 137.328 430.193591 136.134 430.193591 134.946 429.192137 133.977 427.965046 133.977 426.737955 133.977 425.739591 134.946 425.739591 136.134 425.739591 137.328 426.737955 138.297 427.965046 138.297M237.965046 98.297C239.192137 98.297 240.193591 97.328 240.193591 96.134 240.193591 94.946 239.192137 93.977 237.965046 93.977 236.737955 93.977 235.739591 94.946 235.739591 96.134 235.739591 97.328 236.737955 98.297 237.965046 98.297M547.965046 58.297C549.192137 58.297 550.193591 57.328 550.193591 56.134 550.193591 54.946 549.192137 53.977 547.965046 53.977 546.737955 53.977 545.739591 54.946 545.739591 56.134 545.739591 57.328 546.737955 58.297 547.965046 58.297M637.965046 108.297C639.192137 108.297 640.193591 107.328 640.193591 106.134 640.193591 104.946 639.192137 103.977 637.965046 103.977 636.737955 103.977 635.739591 104.946 635.739591 106.134 635.739591 107.328 636.737955 108.297 637.965046 108.297M347.965046 28.297C349.192137 28.297 350.193591 27.328 350.193591 26.134 350.193591 24.946 349.192137 23.977 347.965046 23.977 346.737955 23.977 345.739591 24.946 345.739591 26.134 345.739591 27.328 346.737955 28.297 347.965046 28.297M77.9650458 38.297C79.1921367 38.297 80.1935912 37.328 80.1935912 36.134 80.1935912 34.946 79.1921367 33.977 77.9650458 33.977 76.7379549 33.977 75.7395912 34.946 75.7395912 36.134 75.7395912 37.328 76.7379549 38.297 77.9650458 38.297M727.965046 68.297C729.192137 68.297 730.193591 67.328 730.193591 66.134 730.193591 64.946 729.192137 63.977 727.965046 63.977 726.737955 63.977 725.739591 64.946 725.739591 66.134 725.739591 67.328 726.737955 68.297 727.965046 68.297"/>
    <polygon fill="#0A2D4B" points="286 39 280.122 42.09 281.245 35.545 276.489 30.91 283.061 29.955 286 24 288.939 29.955 295.511 30.91 290.755 35.545 291.878 42.09"/>
    <polygon fill="#0A2D4B" points="111 91 105.122 94.09 106.245 87.545 101.489 82.91 108.061 81.955 111 76 113.939 81.955 120.511 82.91 115.755 87.545 116.878 94.09"/>
    <polygon fill="#0A2D4B" points="589 103 583.122 106.09 584.245 99.545 579.489 94.91 586.061 93.955 589 88 591.939 93.955 598.511 94.91 593.755 99.545 594.878 106.09"/>
    <polygon fill="#0A2D4B" points="740 41 734.122 44.09 735.245 37.545 730.489 32.91 737.061 31.955 740 26 742.939 31.955 749.511 32.91 744.755 37.545 745.878 44.09"/>
    <polygon fill="#0A2D4B" points="342 153 336.122 156.09 337.245 149.545 332.489 144.91 339.061 143.955 342 138 344.939 143.955 351.511 144.91 346.755 149.545 347.878 156.09"/>
    <polygon fill="#0A2D4B" points="465 29 459.122 32.09 460.245 25.545 455.489 20.91 462.061 19.955 465 14 467.939 19.955 474.511 20.91 469.755 25.545 470.878 32.09"/>
    <polygon fill="#0A2D4B" points="33 29 27.122 32.09 28.245 25.545 23.489 20.91 30.061 19.955 33 14 35.939 19.955 42.511 20.91 37.755 25.545 38.878 32.09"/>
    <polygon fill="#0A2D4B" points="336 263 330.122 266.09 331.245 259.545 326.489 254.91 333.061 253.955 336 248 338.939 253.955 345.511 254.91 340.755 259.545 341.878 266.09"/>
    <polygon fill="#0A2D4B" points="440 213 434.122 216.09 435.245 209.545 430.489 204.91 437.061 203.955 440 198 442.939 203.955 449.511 204.91 444.755 209.545 445.878 216.09"/>
    <polygon fill="#0A2D4B" points="550 183 544.122 186.09 545.245 179.545 540.489 174.91 547.061 173.955 550 168 552.939 173.955 559.511 174.91 554.755 179.545 555.878 186.09"/>
    <polygon fill="#0A2D4B" points="389 341.956 383.122 345.046 384.245 338.501 379.489 333.866 386.061 332.911 389 326.956 391.939 332.911 398.511 333.866 393.755 338.501 394.878 345.046"/>
    <polygon fill="#0A2D4B" points="439 291.956 433.122 295.046 434.245 288.501 429.489 283.866 436.061 282.911 439 276.956 441.939 282.911 448.511 283.866 443.755 288.501 444.878 295.046"/>
    <path fill="#0A2D4B" d="M398.600559 581.408C399.394559 581.408 400.040559 580.76 400.040559 579.966 400.040559 579.172 399.394559 578.526 398.600559 578.526 397.806559 578.526 397.158559 579.172 397.158559 579.966 397.158559 580.76 397.806559 581.408 398.600559 581.408M402.682559 578.286C403.476559 578.286 404.122559 577.64 404.122559 576.844 404.122559 576.052 403.476559 575.406 402.682559 575.406 401.888559 575.406 401.240559 576.052 401.240559 576.844 401.240559 577.64 401.888559 578.286 402.682559 578.286M398.840559 571.684C399.634559 571.684 400.280559 571.036 400.280559 570.244 400.280559 569.45 399.634559 568.804 398.840559 568.804 398.046559 568.804 397.400559 569.45 397.400559 570.244 397.400559 571.036 398.046559 571.684 398.840559 571.684M403.882559 568.284C404.676559 568.284 405.322559 567.636 405.322559 566.842 405.322559 566.048 404.676559 565.402 403.882559 565.402 403.088559 565.402 402.442559 566.048 402.442559 566.842 402.442559 567.636 403.088559 568.284 403.882559 568.284M402.682559 546.52C403.476559 546.52 404.122559 545.872 404.122559 545.08 404.122559 544.286 403.476559 543.638 402.682559 543.638 401.888559 543.638 401.240559 544.286 401.240559 545.08 401.240559 545.872 401.888559 546.52 402.682559 546.52M404.362559 561.718C405.156559 561.718 405.804559 561.072 405.804559 560.278 405.804559 559.484 405.156559 558.838 404.362559 558.838 403.570559 558.838 402.920559 559.484 402.920559 560.278 402.920559 561.072 403.570559 561.718 404.362559 561.718M396.918559 562.198C397.712559 562.198 398.360559 561.552 398.360559 560.756 398.360559 559.964 397.712559 559.318 396.918559 559.318 396.124559 559.318 395.478559 559.964 395.478559 560.756 395.478559 561.552 396.124559 562.198 396.918559 562.198M403.882559 553.284C404.676559 553.284 405.322559 552.636 405.322559 551.842 405.322559 551.048 404.676559 550.402 403.882559 550.402 403.088559 550.402 402.442559 551.048 402.442559 551.842 402.442559 552.636 403.088559 553.284 403.882559 553.284M401.362559 534.718C402.156559 534.718 402.804559 534.072 402.804559 533.278 402.804559 532.484 402.156559 531.838 401.362559 531.838 400.570559 531.838 399.920559 532.484 399.920559 533.278 399.920559 534.072 400.570559 534.718 401.362559 534.718M396.918559 542.198C397.712559 542.198 398.360559 541.552 398.360559 540.756 398.360559 539.964 397.712559 539.318 396.918559 539.318 396.124559 539.318 395.478559 539.964 395.478559 540.756 395.478559 541.552 396.124559 542.198 396.918559 542.198"/>
    <path fill="#0A2D4B" d="M402.401441,526.408 C403.195441,526.408 403.841441,525.76 403.841441,524.966 C403.841441,524.172 403.195441,523.526 402.401441,523.526 C401.607441,523.526 400.959441,524.172 400.959441,524.966 C400.959441,525.76 401.607441,526.408 402.401441,526.408" transform="matrix(-1 0 0 1 804.8 0)"/>
    <path fill="#0A2D4B" d="M398.319441,528.286 C399.113441,528.286 399.759441,527.64 399.759441,526.844 C399.759441,526.052 399.113441,525.406 398.319441,525.406 C397.525441,525.406 396.877441,526.052 396.877441,526.844 C396.877441,527.64 397.525441,528.286 398.319441,528.286" transform="matrix(-1 0 0 1 796.637 0)"/>
    <path fill="#0A2D4B" d="M402.159441,517.684 C402.953441,517.684 403.599441,517.036 403.599441,516.244 C403.599441,515.45 402.953441,514.804 402.159441,514.804 C401.365441,514.804 400.719441,515.45 400.719441,516.244 C400.719441,517.036 401.365441,517.684 402.159441,517.684" transform="matrix(-1 0 0 1 804.319 0)"/>
    <path fill="#0A2D4B" d="M397.117441,511.284 C397.911441,511.284 398.557441,510.636 398.557441,509.842 C398.557441,509.048 397.911441,508.402 397.117441,508.402 C396.323441,508.402 395.677441,509.048 395.677441,509.842 C395.677441,510.636 396.323441,511.284 397.117441,511.284" transform="matrix(-1 0 0 1 794.235 0)"/>
    <path fill="#0A2D4B" d="M405.319441,509.52 C406.113441,509.52 406.759441,508.872 406.759441,508.08 C406.759441,507.286 406.113441,506.638 405.319441,506.638 C404.525441,506.638 403.877441,507.286 403.877441,508.08 C403.877441,508.872 404.525441,509.52 405.319441,509.52" transform="matrix(-1 0 0 1 810.637 0)"/>
    <path fill="#0A2D4B" d="M396.637441,500.718 C397.431441,500.718 398.079441,500.072 398.079441,499.278 C398.079441,498.484 397.431441,497.838 396.637441,497.838 C395.845441,497.838 395.195441,498.484 395.195441,499.278 C395.195441,500.072 395.845441,500.718 396.637441,500.718" transform="matrix(-1 0 0 1 793.275 0)"/>
    <path fill="#0A2D4B" d="M403.882559 478.284C404.676559 478.284 405.322559 477.636 405.322559 476.842 405.322559 476.048 404.676559 475.402 403.882559 475.402 403.088559 475.402 402.442559 476.048 402.442559 476.842 402.442559 477.636 403.088559 478.284 403.882559 478.284M404.362559 437.718C405.156559 437.718 405.804559 437.072 405.804559 436.278 405.804559 435.484 405.156559 434.838 404.362559 434.838 403.570559 434.838 402.920559 435.484 402.920559 436.278 402.920559 437.072 403.570559 437.718 404.362559 437.718M394.918559 474.198C395.712559 474.198 396.360559 473.552 396.360559 472.756 396.360559 471.964 395.712559 471.318 394.918559 471.318 394.124559 471.318 393.478559 471.964 393.478559 472.756 393.478559 473.552 394.124559 474.198 394.918559 474.198M394.918559 428.198C395.712559 428.198 396.360559 427.552 396.360559 426.756 396.360559 425.964 395.712559 425.318 394.918559 425.318 394.124559 425.318 393.478559 425.964 393.478559 426.756 393.478559 427.552 394.124559 428.198 394.918559 428.198M394.918559 398.198C395.712559 398.198 396.360559 397.552 396.360559 396.756 396.360559 395.964 395.712559 395.318 394.918559 395.318 394.124559 395.318 393.478559 395.964 393.478559 396.756 393.478559 397.552 394.124559 398.198 394.918559 398.198M404.918559 408.198C405.712559 408.198 406.360559 407.552 406.360559 406.756 406.360559 405.964 405.712559 405.318 404.918559 405.318 404.124559 405.318 403.478559 405.964 403.478559 406.756 403.478559 407.552 404.124559 408.198 404.918559 408.198M396.918559 374.198C397.712559 374.198 398.360559 373.552 398.360559 372.756 398.360559 371.964 397.712559 371.318 396.918559 371.318 396.124559 371.318 395.478559 371.964 395.478559 372.756 395.478559 373.552 396.124559 374.198 396.918559 374.198M408.918559 356.198C409.712559 356.198 410.360559 355.552 410.360559 354.756 410.360559 353.964 409.712559 353.318 408.918559 353.318 408.124559 353.318 407.478559 353.964 407.478559 354.756 407.478559 355.552 408.124559 356.198 408.918559 356.198"/>
    <path fill="#0A2D4B" d="M404.079441,501.198 C404.873441,501.198 405.521441,500.552 405.521441,499.756 C405.521441,498.964 404.873441,498.318 404.079441,498.318 C403.285441,498.318 402.639441,498.964 402.639441,499.756 C402.639441,500.552 403.285441,501.198 404.079441,501.198" transform="matrix(-1 0 0 1 808.16 0)"/>
    <path fill="#0A2D4B" d="M397.5645 554.112C398.791591 554.112 399.789955 553.14 399.789955 551.949 399.789955 550.758 398.791591 549.789 397.5645 549.789 396.337409 549.789 395.335955 550.758 395.335955 551.949 395.335955 553.14 396.337409 554.112 397.5645 554.112M406.0985 490.266C406.0985 489.078 405.100137 488.109 403.873046 488.109 402.645955 488.109 401.6445 489.078 401.6445 490.266 401.6445 491.46 402.645955 492.429 403.873046 492.429 405.100137 492.429 406.0985 491.46 406.0985 490.266zM397.935409 467.026C399.1625 467.026 400.160864 466.054 400.160864 464.866 400.160864 463.675 399.1625 462.706 397.935409 462.706 396.708318 462.706 395.709955 463.675 395.709955 464.866 395.709955 466.054 396.708318 467.026 397.935409 467.026M405.727591 458.426C406.954682 458.426 407.953046 457.454 407.953046 456.263 407.953046 455.072 406.954682 454.103 405.727591 454.103 404.5005 454.103 403.502137 455.072 403.502137 456.263 403.502137 457.454 404.5005 458.426 405.727591 458.426M403.873046 444.78C405.100137 444.78 406.0985 443.808 406.0985 442.62 406.0985 441.429 405.100137 440.457 403.873046 440.457 402.645955 440.457 401.6445 441.429 401.6445 442.62 401.6445 443.808 402.645955 444.78 403.873046 444.78M406.469409 427.577C407.6965 427.577 408.697955 426.608 408.697955 425.417 408.697955 424.226 407.6965 423.257 406.469409 423.257 405.245409 423.257 404.240864 424.226 404.240864 425.417 404.240864 426.608 405.245409 427.577 406.469409 427.577M394.965046 438.297C396.192137 438.297 397.193591 437.328 397.193591 436.134 397.193591 434.946 396.192137 433.977 394.965046 433.977 393.737955 433.977 392.739591 434.946 392.739591 436.134 392.739591 437.328 393.737955 438.297 394.965046 438.297M394.965046 388.297C396.192137 388.297 397.193591 387.328 397.193591 386.134 397.193591 384.946 396.192137 383.977 394.965046 383.977 393.737955 383.977 392.739591 384.946 392.739591 386.134 392.739591 387.328 393.737955 388.297 394.965046 388.297M400.225455 411.568C401.452545 411.568 402.454 410.599 402.454 409.405 402.454 408.217 401.452545 407.248 400.225455 407.248 398.998364 407.248 398 408.217 398 409.405 398 410.599 398.998364 411.568 400.225455 411.568M404.965046 378.297C406.192137 378.297 407.193591 377.328 407.193591 376.134 407.193591 374.946 406.192137 373.977 404.965046 373.977 403.737955 373.977 402.739591 374.946 402.739591 376.134 402.739591 377.328 403.737955 378.297 404.965046 378.297M400.965046 398.297C402.192137 398.297 403.193591 397.328 403.193591 396.134 403.193591 394.946 402.192137 393.977 400.965046 393.977 399.737955 393.977 398.739591 394.946 398.739591 396.134 398.739591 397.328 399.737955 398.297 400.965046 398.297M394.965046 488.297C396.192137 488.297 397.193591 487.328 397.193591 486.134 397.193591 484.946 396.192137 483.977 394.965046 483.977 393.737955 483.977 392.739591 484.946 392.739591 486.134 392.739591 487.328 393.737955 488.297 394.965046 488.297M394.965046 518.297C396.192137 518.297 397.193591 517.328 397.193591 516.134 397.193591 514.946 396.192137 513.977 394.965046 513.977 393.737955 513.977 392.739591 514.946 392.739591 516.134 392.739591 517.328 393.737955 518.297 394.965046 518.297M394.965046 458.297C396.192137 458.297 397.193591 457.328 397.193591 456.134 397.193591 454.946 396.192137 453.977 394.965046 453.977 393.737955 453.977 392.739591 454.946 392.739591 456.134 392.739591 457.328 393.737955 458.297 394.965046 458.297M397.965046 448.297C399.192137 448.297 400.193591 447.328 400.193591 446.134 400.193591 444.946 399.192137 443.977 397.965046 443.977 396.737955 443.977 395.739591 444.946 395.739591 446.134 395.739591 447.328 396.737955 448.297 397.965046 448.297M399.965046 430.297C401.192137 430.297 402.193591 429.328 402.193591 428.134 402.193591 426.946 401.192137 425.977 399.965046 425.977 398.737955 425.977 397.739591 426.946 397.739591 428.134 397.739591 429.328 398.737955 430.297 399.965046 430.297"/>
    <polygon fill="#0A2D4B" points="226 143 220.122 146.09 221.245 139.545 216.489 134.91 223.061 133.955 226 128 228.939 133.955 235.511 134.91 230.755 139.545 231.878 146.09"/>
    <polygon fill="#0A2D4B" points="190 31 184.122 34.09 185.245 27.545 180.489 22.91 187.061 21.955 190 16 192.939 21.955 199.511 22.91 194.755 27.545 195.878 34.09"/>
    <polygon fill="#0A2D4B" points="622 19 616.122 22.09 617.245 15.545 612.489 10.91 619.061 9.955 622 4 624.939 9.955 631.511 10.91 626.755 15.545 627.878 22.09"/>
    <polygon fill="#0A2D4B" points="502 133 496.122 136.09 497.245 129.545 492.489 124.91 499.061 123.955 502 118 504.939 123.955 511.511 124.91 506.755 129.545 507.878 136.09"/>
    <polygon fill="#0A2D4B" points="400 91 394.122 94.09 395.245 87.545 390.489 82.91 397.061 81.955 400 76 402.939 81.955 409.511 82.91 404.755 87.545 405.878 94.09"/>
    <path fill="#0A2D4B" d="M391.918559,414.198 C392.712559,414.198 393.360559,413.552 393.360559,412.756 C393.360559,411.964 392.712559,411.318 391.918559,411.318 C391.124559,411.318 390.478559,411.964 390.478559,412.756 C390.478559,413.552 391.124559,414.198 391.918559,414.198"/>
  </g>
</svg>
