<svg xmlns="http://www.w3.org/2000/svg" width="800" height="800" viewBox="0 0 800 800" xmlns:xlink="http://www.w3.org/1999/xlink" style="background:#7e7184">
  <defs>
    <path id="a" d="M397,263.990795 C397,262.891309 397.88773,262 399,262 L399,262 C400.104569,262 401,262.898212 401,263.990795 L401,282 L397,282 L397,263.990795 Z"/>
    <rect id="b" width="653" height="537"/>
    <path id="d" d="M396,371.992452 C396,370.339766 397.346517,369 399,369 L399,369 C400.656854,369 402,370.343336 402,371.992452 L402,571 L396,571 L396,371.992452 Z"/>
  </defs>
  <g fill="none" fill-rule="evenodd">
    <polygon fill="#D6F6DD" points="234 397 565 397 657.873 595 326.233 595" opacity=".75"/>
    <g stroke="#0A2D4B" stroke-width="6" transform="translate(71 595)" stroke-linecap="square">
      <path d="M0 3L600 3M620 3L630 3M650 3L658 3"/>
    </g>
    <path fill="#D6F6DD" d="M562,394 C562,332.144108 489.246272,282 400,282 C309.753728,282 237,332.144108 237,394 C317.053979,394 484.085223,394 562,394 Z" opacity=".75"/>
    <path fill="#EAAD45" stroke="#0A2D4B" stroke-width="6" d="M562,394 C562,332.144108 489.246272,282 400,282 C309.753728,282 237,332.144108 237,394 C317.053979,394 484.085223,394 562,394 Z"/>
    <path stroke="#0A2D4B" stroke-width="4" d="M562,394 C562,332.144108 489.39102,282 400,282 C390.695596,295.73555 366,332.144108 366,394 C445.894706,394 484.24024,394 562,394 Z"/>
    <path stroke="#0A2D4B" stroke-width="4" d="M433,394 C433,332.144108 360.39102,282 271,282 C261.695596,295.73555 237,332.144108 237,394 C316.894706,394 355.24024,394 433,394 Z" transform="matrix(-1 0 0 1 670 0)"/>
    <path stroke="#0A2D4B" stroke-width="4" d="M302,394 C301.574613,332.144108 343.431675,292.368587 399,282 C309.529871,282 237,332.144108 237,394 C316.807659,394 223.899573,394 302,394 Z"/>
    <path stroke="#0A2D4B" stroke-width="4" d="M464,394 C463.574613,332.144108 505.431675,292.368587 561,282 C471.529871,282 399,332.144108 399,394 C478.807659,394 385.899573,394 464,394 Z" transform="matrix(-1 0 0 1 960 0)"/>
    <path stroke="#0A2D4B" stroke-width="6" d="M302 394C302 380.192881 287.449254 369 270 369 251.550746 369 237 380.192881 237 394 269.5 394 273.974897 394 302 394zM562 394C562 380.192881 547.449254 369 530 369 511.550746 369 497 380.192881 497 394 529.5 394 533.974897 394 562 394zM367 394C367 380.192881 352.449254 369 335 369 316.550746 369 302 380.192881 302 394 334.5 394 338.974897 394 367 394zM432 394C432 380.192881 417.449254 369 400 369 381.550746 369 367 380.192881 367 394 399.5 394 403.974897 394 432 394zM497 394C497 380.192881 482.449254 369 465 369 446.550746 369 432 380.192881 432 394 464.5 394 468.974897 394 497 394z"/>
    <use fill="#0A2D4B" xlink:href="#a"/>
    <path stroke="#0A2D4B" stroke-width="1.25" d="M400.375,281.375 L397.625,281.375 L397.625,263.990795 C397.625,263.234106 398.235295,262.625 399,262.625 C399.757312,262.625 400.375,263.241317 400.375,263.990795 L400.375,281.375 Z"/>
    <path stroke="#0A2D4B" stroke-width="6" d="M363.5,606.5 C377.859403,606.5 389.5,596.426407 389.5,584.5 C389.5,571.573593 377.859403,561.5 363.5,561.5" stroke-linecap="round" transform="rotate(90 376.5 584)"/>
    <g transform="translate(76 64)">
      <mask id="c" fill="white">
        <use xlink:href="#b"/>
      </mask>
      <path stroke="#0A2D4B" stroke-width="2" d="M114-22L223.880748 213.640025M194 68L265.845104 222.072324M186 218L194.452365 236.126156M74-22L158.523652 159.261557M34-22L152.333113 231.76618M142 298L247.654565 524.576947M-6-22L99.6545654 204.576947M-46-22L165.309131 431.153894M87 348L125.035644 429.567701M-6 148L21.470187 206.910006M65 388L92.470187 446.910006M-65 109L36.4283828 326.513869M-166-22L24.1782178 385.838504M-206-22L68.7018701 567.100062M-246-22L28.7018701 567.100062M394-12L427.809461 60.504623M483 168L516.809461 240.504623M575 368L608.809461 440.504623M615 368L661.488009 467.693857M354-22L501.916392 295.207725M526 348L673.916392 665.207725M314-22L440.785479 249.892336M274-22L328.940374 95.8200123M358 158L387.583278 221.441545M234-22L305.845104 132.072324M194-22L221.470187 36.9100062M154-22L175.130913 23.3153894M674-22L948.70187 567.100062M634-22L908.70187 567.100062M594-22L868.70187 567.100062M625 131L899.70187 720.100062M554-22L579.357096 32.3784672M514-22L788.70187 567.100062M474-22L558.523652 159.261557M600 248L676.071287 411.135402M434-22L603.047305 340.523115M54 448L79.3570957 502.378467M104 471L131.470187 529.910006M636 498L657.130913 543.315389" stroke-linecap="square" mask="url(#c)"/>
    </g>
    <g fill="#7E7184" transform="translate(239 372)">
      <path d="M61 25C61 11.1928813 47.3446849 0 30.9692308 0 13.6553151 0 0 11.1928813 0 25 30.5 25 34.6995191 25 61 25zM126 25C126 11.1928813 112.344685 0 95.9692308 0 78.6553151 0 65 11.1928813 65 25 95.5 25 99.6995191 25 126 25zM191 25C191 11.1928813 177.344685 0 160.969231 0 143.655315 0 130 11.1928813 130 25 160.5 25 164.699519 25 191 25zM256 25C256 11.1928813 242.344685 0 225.969231 0 208.655315 0 195 11.1928813 195 25 225.5 25 229.699519 25 256 25zM321 25C321 11.1928813 307.344685 0 290.969231 0 273.655315 0 260 11.1928813 260 25 290.5 25 294.699519 25 321 25z"/>
    </g>
    <g fill="#D6F6DD" transform="translate(239 372)" opacity=".75">
      <path d="M61 25C61 11.1928813 47.3446849 0 30.9692308 0 13.6553151 0 0 11.1928813 0 25 30.5 25 34.6995191 25 61 25zM126 25C126 11.1928813 112.344685 0 95.9692308 0 78.6553151 0 65 11.1928813 65 25 95.5 25 99.6995191 25 126 25zM191 25C191 11.1928813 177.344685 0 160.969231 0 143.655315 0 130 11.1928813 130 25 160.5 25 164.699519 25 191 25zM256 25C256 11.1928813 242.344685 0 225.969231 0 208.655315 0 195 11.1928813 195 25 225.5 25 229.699519 25 256 25zM321 25C321 11.1928813 307.344685 0 290.969231 0 273.655315 0 260 11.1928813 260 25 290.5 25 294.699519 25 321 25z"/>
    </g>
    <g>
      <use fill="#0A2D4B" xlink:href="#d"/>
      <path stroke="#0A2D4B" d="M401.5,570.5 L396.5,570.5 L396.5,371.992452 C396.5,370.617439 397.621127,369.5 399,369.5 C400.379667,369.5 401.5,370.618435 401.5,371.992452 L401.5,570.5 Z"/>
    </g>
  </g>
</svg>
