<svg xmlns="http://www.w3.org/2000/svg" width="600" height="600" viewBox="0 0 600 600" xmlns:xlink="http://www.w3.org/1999/xlink" style="background:#f9cf8e">
  <defs>
    <path id="a" d="M176,305 L425,305 L425,459.999887 C425,471.045644 416.046147,480 404.991784,480 L196.008216,480 C184.957983,480 176,471.050855 176,459.999887 L176,305 Z"/>
    <path id="b" d="M170,204.00898 C170,179.151207 190.15483,159 214.997466,159 L386.002534,159 C410.853948,159 431,179.152579 431,204.00898 L431,309.992843 C431,311.65365 429.657954,313 428.001275,313 L172.998725,313 C171.342575,313 170,311.656975 170,309.992843 L170,204.00898 Z"/>
    <path id="c" d="M178,447 L423,447 L423,462.5 C423,471.060414 416.062279,478 407.499931,478 L193.500069,478 C184.939617,478 178,471.062296 178,462.5 L178,447 Z"/>
    <rect id="d" width="257" height="31" x="172" y="280"/>
    <path id="e" d="M284,307 L317,307 L317,375.994595 C317,381.520428 312.515129,386 307.009358,386 L293.990642,386 C288.472963,386 284,381.526266 284,375.994595 L284,307 Z"/>
    <rect id="f" width="56" height="30" x="273" y="338" rx="5"/>
    <path id="g" d="M146,360.004536 C146,357.792892 147.785246,356 149.990179,356 L182,356 L182,433 L164,433 C154.058875,433 146,424.941404 146,414.995531 L146,360.004536 Z"/>
    <path id="h" d="M146,360.009558 C146,357.79514 147.785246,356 149.990179,356 L182,356 L182,378 L146,378 L146,360.009558 Z"/>
    <path id="i" d="M419,356 L419,433 L437,433 C446.941125,433 455,424.941404 455,414.995531 L455,360.008621 C455,357.794721 453.214754,356 451.009821,356 L419,356 Z"/>
    <path id="j" d="M419,356 L451.009821,356 C453.213536,356 455,357.800352 455,360.009558 L455,378 L419,378 L419,356 Z"/>
    <rect id="k" width="71" height="30" x="265" y="206"/>
  </defs>
  <g fill="none" fill-rule="evenodd">
    <use fill="#3E8182" xlink:href="#a"/>
    <path stroke="#0A2D4B" stroke-width="8" d="M180,309 L421,309 L421,459.999887 C421,468.837697 413.835817,476 404.991784,476 L196.008216,476 C187.164798,476 180,468.839392 180,459.999887 L180,309 Z"/>
    <path stroke="#0A2D4B" stroke-width="7" d="M332.5,165.5 L268.5,165.5 L268.5,145.990642 C268.5,142.402821 271.404402,139.5 275.003215,139.5 L325.996785,139.5 C329.584638,139.5 332.5,142.414095 332.5,145.990642 L332.5,165.5 Z"/>
    <g stroke="#0A2D4B" stroke-width="8" transform="translate(96 475)" stroke-linecap="square">
      <path d="M100.5 1L350.5 1M.5 1L350.5 1M370.5 1L380.5 1M400.5 1L408.5 1"/>
    </g>
    <use fill="#3E8182" xlink:href="#b"/>
    <path stroke="#0A2D4B" stroke-width="8" d="M427,309 L174,309 L174,204.00898 C174,181.363269 192.361046,163 214.997466,163 L386.002534,163 C408.644087,163 427,181.360996 427,204.00898 L427,309 Z"/>
    <use fill="#FD9C62" xlink:href="#c"/>
    <path stroke="#0A2D4B" stroke-width="6" d="M181,450 L420,450 L420,462.5 C420,469.404268 414.404716,475 407.499931,475 L193.500069,475 C186.595762,475 181,469.404732 181,462.5 L181,450 Z"/>
    <use fill="#FD9C62" xlink:href="#d"/>
    <rect width="251" height="25" x="175" y="283" stroke="#0A2D4B" stroke-width="6"/>
    <use fill="#F36450" xlink:href="#e"/>
    <path stroke="#0A2D4B" stroke-width="6" d="M287,310 L314,310 L314,375.994595 C314,379.859897 310.861949,383 307.009358,383 L293.990642,383 C290.128524,383 287,379.868116 287,375.994595 L287,310 Z"/>
    <use fill="#FD9C62" xlink:href="#f"/>
    <rect width="50" height="24" x="276" y="341" stroke="#0A2D4B" stroke-width="6" rx="5"/>
    <g>
      <use fill="#3E8182" xlink:href="#g"/>
      <path stroke="#0A2D4B" stroke-width="6" d="M179,359 L179,430 L164,430 C155.71505,430 149,423.28387 149,414.995531 L149,360.004536 C149,359.446776 149.44508,359 149.990179,359 L179,359 Z"/>
    </g>
    <g>
      <use fill="#FD9C62" xlink:href="#h"/>
      <path stroke="#0A2D4B" stroke-width="6" d="M179,359 L179,375 L149,375 L149,360.009558 C149,359.448186 149.445925,359 149.990179,359 L179,359 Z"/>
    </g>
    <g>
      <use fill="#3E8182" xlink:href="#i"/>
      <path stroke="#0A2D4B" stroke-width="6" d="M422,359 L451.009821,359 C451.554232,359 452,359.447922 452,360.008621 L452,414.995531 C452,423.28387 445.28495,430 437,430 L422,430 L422,359 Z"/>
    </g>
    <g>
      <use fill="#FD9C62" xlink:href="#j"/>
      <path stroke="#0A2D4B" stroke-width="6" d="M422,359 L451.009821,359 C451.551023,359 452,359.451562 452,360.009558 L452,375 L422,375 L422,359 Z"/>
    </g>
    <g>
      <use fill="#F36450" xlink:href="#k"/>
      <rect width="65" height="24" x="268" y="209" stroke="#0A2D4B" stroke-width="6"/>
    </g>
  </g>
</svg>
