<svg xmlns="http://www.w3.org/2000/svg" width="600" height="600" viewBox="0 0 600 600" xmlns:xlink="http://www.w3.org/1999/xlink" style="background:#f36450">
  <defs>
    <path id="a" d="M59.8916984,202.001221 C67.0611918,255.537022 106.306682,187.618868 106.972986,179.217284 C107.76124,169.277994 108.21539,158.95899 108.21539,148.375137 C108.21539,68.2938486 82.2153897,3.3751373 82.2153897,3.3751373 C82.2153897,3.3751373 56.2153897,68.2938486 56.2153897,148.375137 C56.2153897,167.318478 57.6702604,185.413373 59.8916984,202.001221 Z"/>
    <path id="b" d="M95.4263898,227.15706 C101.8271,255.742688 118.375483,251.347246 125.134452,217.000156 C129.083803,196.93072 132.212306,172.868642 132.212306,147.000149 C132.212306,76.8599861 109.212306,20.0001493 109.212306,20.0001493 C109.212306,20.0001493 86.2123055,76.8599861 86.2123055,147.000149 C86.2123055,177.395161 90.5314618,205.296268 95.4263898,227.15706 Z"/>
    <path id="c" d="M52.5543006,229.394948 C58.9168099,266.44799 87.6234797,213.02424 87.9839887,209.966379 C89.4421488,197.598167 90.3612651,184.322053 90.3612651,170.505031 C90.3612651,103.678577 68.8612651,49.5050314 68.8612651,49.5050314 C68.8612651,49.5050314 47.3612651,103.678577 47.3612651,170.505031 C47.3612651,191.882972 49.5615218,211.966045 52.5543006,229.394948 Z"/>
    <path id="d" d="M112,284 C112,284 131,236.542183 131,178 C131,119.457817 112,72 112,72 C112,72 93,119.457817 93,178 C93,236.542183 112,284 112,284 Z"/>
    <path id="e" d="M72,301 C72,301 90,255.78076 90,200 C90,144.21924 72,99 72,99 C72,99 54,144.21924 54,200 C54,255.78076 72,301 72,301 Z"/>
    <path id="f" d="M104,328 C104,328 121,286.362482 121,235 C121,183.637518 104,142 104,142 C104,142 87,183.637518 87,235 C87,286.362482 104,328 104,328 Z"/>
    <path id="g" d="M76,345 C76,345 94,301.347763 94,247.5 C94,193.652237 76,150 76,150 C76,150 58,193.652237 58,247.5 C58,301.347763 76,345 76,345 Z"/>
    <path id="h" d="M221.345796,421.451328 L220.121859,363.995141 C219.451322,332.517594 244.422113,307 275.904452,307 L325.778723,307 C357.257135,307 381.869766,332.50611 380.808681,363.960756 C380.808681,363.960756 379.306858,401.873142 379.306858,421.451328 C379.306858,440.112971 380.961779,478.538443 380.961779,478.538443 C381.963431,504.750737 361.499615,526 335.26808,526 L266.415094,526 C240.177509,526 219.403324,504.748527 220.015303,478.505579 L221.345796,421.451328 Z"/>
    <rect id="j" width="80" height="5" x="73" y="20" rx="2.5"/>
    <rect id="k" width="58" height="5" x="53" y="50" rx="2.5"/>
    <rect id="l" width="100" height="5" x="39" y="80" rx="2.5"/>
    <rect id="m" width="53" height="5" x="170" y="80" rx="2.5"/>
    <rect id="n" width="80" height="5" x="18.768" y="109.866" rx="2.5"/>
    <rect id="o" width="30" height="5" x="187.768" y="108.866" rx="2.5"/>
    <rect id="p" width="100" height="5" x="4" y="140" rx="2.5"/>
    <rect id="q" width="30" height="5" x="129" y="139" rx="2.5"/>
    <rect id="r" width="60" height="5" x=".768" y="172.866" rx="2.5"/>
    <rect id="s" width="30" height="5" x="148.732" y="172.268" rx="2.5"/>
    <rect id="t" width="50" height="5" x="27.134" y="202.5" rx="2.5"/>
    <rect id="u" width="5" height="110" x="76" y="24" rx="2.5"/>
    <rect id="v" width="5" height="83" x="106" rx="2.5"/>
    <rect id="w" width="5" height="110" x="42" y="84" rx="2.5"/>
    <rect id="x" width="5" height="77" x="12.536" y="119.536" rx="2.5"/>
  </defs>
  <g fill="none" fill-rule="evenodd">
    <g transform="translate(216 51)">
      <g transform="rotate(-16 82.215 112.877)">
        <use fill="#3E8182" xlink:href="#a"/>
        <path stroke="#0A2D4B" stroke-width="6.912" d="M82.2153897,13.5319186 C82.471165,14.2830469 82.7322137,15.0590376 82.9981289,15.8594997 C86.0175897,24.9487261 89.0393849,35.2859504 91.8607813,46.6756406 C99.9226222,79.2204725 104.75939,113.643494 104.75939,148.375137 C104.75939,158.516161 104.339002,168.715461 103.527803,178.944057 C103.486351,179.466734 102.902967,181.160494 101.901307,183.385624 C100.764109,185.911841 99.1835409,188.955399 97.352525,192.118945 C93.1014006,199.463843 88.0998762,206.481059 83.3676433,211.453137 C78.1649393,216.91953 73.7207609,219.446458 70.919131,218.832285 C67.6986734,218.126296 64.8284522,212.827872 63.3171183,201.54249 C60.9432826,183.816663 59.6713897,166.0388 59.6713897,148.375137 C59.6713897,113.643494 64.5081571,79.2204725 72.5699981,46.6756406 C75.3913944,35.2859504 78.4131897,24.9487261 81.4326504,15.8594997 C81.6985657,15.0590376 81.9596143,14.2830469 82.2153897,13.5319186 Z"/>
      </g>
      <g transform="scale(-1 1) rotate(-31 0 526.804)">
        <use fill="#3E8182" xlink:href="#b"/>
        <path stroke="#0A2D4B" stroke-width="6.048" d="M109.212306,28.8037703 C109.449547,29.4927019 109.691959,30.2056969 109.939125,30.9423575 C112.610033,38.9028085 115.283013,47.9562943 117.778726,57.931542 C124.909911,86.4345537 129.188306,116.582367 129.188306,147.000149 C129.188306,170.275293 126.657642,193.597967 122.167356,216.416278 C119.146267,231.768563 113.972307,241.30452 109.238569,242.793761 C105.492139,243.972394 101.11274,238.712723 98.3773187,226.496307 C92.5923894,200.660761 89.2363055,173.863648 89.2363055,147.000149 C89.2363055,116.582367 93.5146997,86.4345537 100.645885,57.931542 C103.141598,47.9562943 105.814578,38.9028085 108.485486,30.9423575 C108.732652,30.2056969 108.975064,29.4927019 109.212306,28.8037703 Z"/>
      </g>
      <g transform="rotate(-31 68.861 145.966)">
        <use fill="#3E8182" xlink:href="#c"/>
        <path stroke="#0A2D4B" stroke-width="5.76" d="M68.8612651,58.0416254 C69.0652627,58.6467355 69.2732921,59.271073 69.4850531,59.9143465 C71.9820977,67.4997046 74.4810623,76.1265352 76.8142994,85.6316844 C83.4813171,112.791804 87.4812651,141.519472 87.4812651,170.505031 C87.4812651,183.437398 86.6709483,196.454999 85.142955,209.466361 C85.1011105,209.587655 85.0331214,209.762154 84.9421762,209.978203 C84.7314319,210.478848 84.4223556,211.144504 84.0378258,211.921574 C83.1707577,213.673773 82.0071112,215.821254 80.704533,218.049032 C77.442349,223.628293 73.8104902,228.897787 70.3582271,232.819204 C66.4243069,237.287733 63.0090526,239.636541 60.8473134,239.543653 C58.7147075,239.452017 56.6832874,236.423142 55.3927578,228.907547 C52.0744807,209.583055 50.2412651,190.00118 50.2412651,170.505031 C50.2412651,141.519472 54.241213,112.791804 60.9082307,85.6316844 C63.2414678,76.1265352 65.7404325,67.4997046 68.2374771,59.9143465 C68.449238,59.271073 68.6572674,58.6467355 68.8612651,58.0416254 Z"/>
      </g>
      <g transform="scale(-1 1) rotate(-31 0 581.859)">
        <use fill="#3E8182" xlink:href="#d"/>
        <path stroke="#0A2D4B" stroke-width="5.04" d="M112,276.592524 C111.811435,276.038697 111.618943,275.466356 111.422828,274.875795 C109.216243,268.231087 107.007956,260.674042 104.94612,252.347598 C99.0546417,228.555667 95.52,203.390675 95.52,178 C95.52,152.609325 99.0546417,127.444333 104.94612,103.652402 C107.007956,95.3259578 109.216243,87.7689128 111.422828,81.1242047 C111.618943,80.5336442 111.811435,79.9613034 112,79.4074763 C112.188565,79.9613034 112.381057,80.5336442 112.577172,81.1242047 C114.783757,87.7689128 116.992044,95.3259578 119.05388,103.652402 C124.945358,127.444333 128.48,152.609325 128.48,178 C128.48,203.390675 124.945358,228.555667 119.05388,252.347598 C116.992044,260.674042 114.783757,268.231087 112.577172,274.875795 C112.381057,275.466356 112.188565,276.038697 112,276.592524 Z"/>
      </g>
      <g transform="rotate(-31 72 200)">
        <use fill="#3E8182" xlink:href="#e"/>
        <path stroke="#0A2D4B" stroke-width="4.8" d="M72,293.906952 C71.8256047,293.391466 71.6476778,292.859212 71.4664879,292.310447 C69.3759495,285.978899 67.2838041,278.778029 65.3304077,270.844025 C59.748763,248.173363 56.4,224.194289 56.4,200 C56.4,175.805711 59.748763,151.826637 65.3304077,129.155975 C67.2838041,121.221971 69.3759495,114.021101 71.4664879,107.689553 C71.6476778,107.140788 71.8256047,106.608534 72,106.093048 C72.1743953,106.608534 72.3523222,107.140788 72.5335121,107.689553 C74.6240505,114.021101 76.7161959,121.221971 78.6695923,129.155975 C84.251237,151.826637 87.6,175.805711 87.6,200 C87.6,224.194289 84.251237,248.173363 78.6695923,270.844025 C76.7161959,278.778029 74.6240505,285.978899 72.5335121,292.310447 C72.3523222,292.859212 72.1743953,293.391466 72,293.906952 Z"/>
      </g>
      <g transform="scale(-1 1) rotate(-31 0 610.012)">
        <use fill="#3E8182" xlink:href="#f"/>
        <path stroke="#0A2D4B" stroke-width="4.41" d="M104,321.63819 C103.814923,321.106533 103.625546,320.555125 103.432236,319.984314 C101.458132,314.155142 99.4824971,307.525578 97.6378855,300.221051 C92.3671779,279.349433 89.205,257.27348 89.205,235 C89.205,212.72652 92.3671779,190.650567 97.6378855,169.778949 C99.4824971,162.474422 101.458132,155.844858 103.432236,150.015686 C103.625546,149.444875 103.814923,148.893467 104,148.36181 C104.185077,148.893467 104.374454,149.444875 104.567764,150.015686 C106.541868,155.844858 108.517503,162.474422 110.362114,169.778949 C115.632822,190.650567 118.795,212.72652 118.795,235 C118.795,257.27348 115.632822,279.349433 110.362114,300.221051 C108.517503,307.525578 106.541868,314.155142 104.567764,319.984314 C104.374454,320.555125 104.185077,321.106533 104,321.63819 Z"/>
      </g>
      <g transform="rotate(-31 76 247.5)">
        <use fill="#3E8182" xlink:href="#g"/>
        <path stroke="#0A2D4B" stroke-width="4.63" d="M76,338.381392 C75.7974701,337.805899 75.5900456,337.208199 75.3781562,336.588695 C73.2880962,330.477956 71.196406,323.528133 69.2434347,315.870737 C63.663146,293.991008 60.31525,270.848885 60.31525,247.5 C60.31525,224.151115 63.663146,201.008992 69.2434347,179.129263 C71.196406,171.471867 73.2880962,164.522044 75.3781562,158.411305 C75.5900456,157.791801 75.7974701,157.194101 76,156.618608 C76.2025299,157.194101 76.4099544,157.791801 76.6218438,158.411305 C78.7119038,164.522044 80.803594,171.471867 82.7565653,179.129263 C88.336854,201.008992 91.68475,224.151115 91.68475,247.5 C91.68475,270.848885 88.336854,293.991008 82.7565653,315.870737 C80.803594,323.528133 78.7119038,330.477956 76.6218438,336.588695 C76.4099544,337.208199 76.2025299,337.805899 76,338.381392 Z"/>
      </g>
    </g>
    <mask id="i" fill="white">
      <use xlink:href="#h"/>
    </mask>
    <use fill="#F9CF8E" stroke="#0A2D4B" stroke-width="5.7" xlink:href="#h"/>
    <g transform="rotate(-30 754.406 -89.744)" mask="url(#i)">
      <g transform="matrix(-1 0 0 1 226 0)">
        <use fill="#3E8182" xlink:href="#j"/>
        <rect width="74" height="1" x="76" y="23" stroke="#0A2D4B" stroke-width="6" rx=".5"/>
      </g>
      <g transform="matrix(-1 0 0 1 164 0)">
        <use fill="#3E8182" xlink:href="#k"/>
        <rect width="52" height="1" x="56" y="53" stroke="#0A2D4B" stroke-width="6" rx=".5"/>
      </g>
      <g transform="matrix(-1 0 0 1 178 0)">
        <use fill="#3E8182" xlink:href="#l"/>
        <rect width="94" height="1" x="42" y="83" stroke="#0A2D4B" stroke-width="6" rx=".5"/>
      </g>
      <g transform="matrix(-1 0 0 1 393 0)">
        <use fill="#3E8182" xlink:href="#m"/>
        <rect width="47" height="1" x="173" y="83" stroke="#0A2D4B" stroke-width="6" rx=".5"/>
      </g>
      <g transform="matrix(-1 0 0 1 117.536 0)">
        <use fill="#3E8182" xlink:href="#n"/>
        <rect width="74" height="1" x="21.768" y="112.866" stroke="#0A2D4B" stroke-width="6" rx=".5"/>
      </g>
      <g transform="matrix(-1 0 0 1 405.536 0)">
        <use fill="#3E8182" xlink:href="#o"/>
        <rect width="24" height="1" x="190.768" y="111.866" stroke="#0A2D4B" stroke-width="6" rx=".5"/>
      </g>
      <g transform="matrix(-1 0 0 1 108 0)">
        <use fill="#3E8182" xlink:href="#p"/>
        <rect width="94" height="1" x="7" y="143" stroke="#0A2D4B" stroke-width="6" rx=".5"/>
      </g>
      <g transform="matrix(-1 0 0 1 288 0)">
        <use fill="#3E8182" xlink:href="#q"/>
        <rect width="24" height="1" x="132" y="142" stroke="#0A2D4B" stroke-width="6" rx=".5"/>
      </g>
      <g transform="matrix(-1 0 0 1 61.536 0)">
        <use fill="#3E8182" xlink:href="#r"/>
        <rect width="54" height="1" x="3.768" y="175.866" stroke="#0A2D4B" stroke-width="6" rx=".5"/>
      </g>
      <g transform="matrix(-1 0 0 1 327.464 0)">
        <use fill="#3E8182" xlink:href="#s"/>
        <rect width="24" height="1" x="151.732" y="175.268" stroke="#0A2D4B" stroke-width="6" rx=".5"/>
      </g>
      <g transform="matrix(-1 0 0 1 104.268 0)">
        <use fill="#3E8182" xlink:href="#t"/>
        <rect width="44" height="1" x="30.134" y="205.5" stroke="#0A2D4B" stroke-width="6" rx=".5"/>
      </g>
      <use fill="#3E8182" xlink:href="#u"/>
      <rect width="1" height="104" x="79" y="27" stroke="#0A2D4B" stroke-width="6" rx=".5"/>
      <use fill="#3E8182" xlink:href="#v"/>
      <rect width="1" height="77" x="109" y="3" stroke="#0A2D4B" stroke-width="6" rx=".5"/>
      <g>
        <use fill="#3E8182" xlink:href="#w"/>
        <rect width="1" height="104" x="45" y="87" stroke="#0A2D4B" stroke-width="6" rx=".5"/>
      </g>
      <g>
        <use fill="#3E8182" xlink:href="#x"/>
        <rect width="1" height="71" x="15.536" y="122.536" stroke="#0A2D4B" stroke-width="6" rx=".5"/>
      </g>
    </g>
  </g>
</svg>
