<svg xmlns="http://www.w3.org/2000/svg" width="800" height="800" viewBox="0 0 800 800" xmlns:xlink="http://www.w3.org/1999/xlink" style="background:#2dffff">
  <defs>
    <rect id="a" width="21" height="151" x="388" y="355"/>
    <rect id="b" width="206" height="151" x="295" y="479"/>
    <rect id="c" width="20" height="151" x="311" y="479"/>
    <rect id="d" width="40" height="151" x="361" y="479"/>
    <rect id="e" width="226" height="58" x="285" y="425" rx="10"/>
    <rect id="f" width="20" height="58" x="311" y="425"/>
    <rect id="g" width="20" height="58" x="411" y="425"/>
    <path id="h" d="M95,162 C147.467051,162 190,119.467051 190,67 C190,46.282376 183.36819,27.1136942 172.111638,11.5010227 C154.861153,-12.4251465 129.442329,67.0000025 97.6929016,67.0000025 C69.7348603,67.0000025 41.9046948,-15.9228166 24.5206559,3.29910268 C9.28119114,20.1497184 0,42.49099 0,67 C0,119.467051 42.5329488,162 95,162 Z"/>
    <path id="j" d="M98.8059406,73.5398819 L157.301493,15.0443293 C164.724383,7.6214398 176.755259,7.6174348 184.176852,15.0390278 C191.596814,22.4589893 191.59824,34.4876983 184.171551,41.914387 L119.12833,106.957608 C118.763771,107.322167 118.388097,107.668831 118.0024,107.9976 L112.198001,113.801999 C104.778039,121.221961 92.7520493,121.226106 85.3277041,113.801761 L13.4352676,41.9093242 C6.01517419,34.4892308 6.01343585,22.4606208 13.4350288,15.0390278 C20.8549904,7.61906624 32.8809801,7.61492135 40.3053253,15.0392665 L98.8059406,73.5398819 Z"/>
    <rect id="k" width="20" height="151" x="411" y="479"/>
    <rect id="l" width="20" height="58" x="481" y="425"/>
    <rect id="m" width="20" height="151" x="481" y="479"/>
    <rect id="n" width="40" height="58" x="361" y="425"/>
  </defs>
  <g fill="none" fill-rule="evenodd">
    <g stroke="#0A2D4B" stroke-width="4" transform="translate(121 626)" stroke-linecap="square">
      <path d="M0 2L500 2M520 2L530 2M550 2L558 2"/>
    </g>
    <use fill="#417505" xlink:href="#a"/>
    <rect width="17" height="147" x="390" y="357" stroke="#0A2D4B" stroke-width="4"/>
    <path fill="#417505" stroke="#0A2D4B" stroke-width="4" d="M435.961941,465.961941 C444.246212,465.961941 450.961941,443.576178 450.961941,415.961941 C450.961941,388.347703 435.961941,365.961941 435.961941,365.961941 C435.961941,365.961941 420.961941,388.347703 420.961941,415.961941 C420.961941,443.576178 427.67767,465.961941 435.961941,465.961941 Z" transform="rotate(45 435.962 415.962)"/>
    <path fill="#417505" stroke="#0A2D4B" stroke-width="4" d="M361.961941,465.961941 C370.246212,465.961941 376.961941,443.576178 376.961941,415.961941 C376.961941,388.347703 361.961941,365.961941 361.961941,365.961941 C361.961941,365.961941 346.961941,388.347703 346.961941,415.961941 C346.961941,443.576178 353.67767,465.961941 361.961941,465.961941 Z" transform="rotate(-45 361.962 415.962)"/>
    <use fill="#417505" xlink:href="#b"/>
    <rect width="202" height="147" x="297" y="481" stroke="#0A2D4B" stroke-width="4"/>
    <use fill="#7ED321" xlink:href="#c"/>
    <rect width="16" height="147" x="313" y="481" stroke="#0A2D4B" stroke-width="4"/>
    <use fill="#7ED321" xlink:href="#d"/>
    <rect width="36" height="147" x="363" y="481" stroke="#0A2D4B" stroke-width="4"/>
    <use fill="#417505" xlink:href="#e"/>
    <rect width="222" height="54" x="287" y="427" stroke="#0A2D4B" stroke-width="4" rx="10"/>
    <use fill="#7ED321" xlink:href="#f"/>
    <rect width="16" height="54" x="313" y="427" stroke="#0A2D4B" stroke-width="4"/>
    <g>
      <use fill="#7ED321" xlink:href="#g"/>
      <rect width="16" height="54" x="413" y="427" stroke="#0A2D4B" stroke-width="4"/>
    </g>
    <g transform="translate(303 177)">
      <g transform="translate(0 18)">
        <mask id="i" fill="white">
          <use xlink:href="#h"/>
        </mask>
        <use fill="#D0011B" xlink:href="#h"/>
        <circle cx="165" cy="87" r="15" fill="#FFFFFF" stroke="#0A2D4B" stroke-width="2" mask="url(#i)"/>
        <circle cx="137" cy="144" r="25" fill="#FFFFFF" stroke="#0A2D4B" stroke-width="2" mask="url(#i)"/>
        <circle cx="32" cy="67" r="15" fill="#FFFFFF" stroke="#0A2D4B" stroke-width="2" mask="url(#i)"/>
        <circle cx="73" cy="124" r="15" fill="#FFFFFF" stroke="#0A2D4B" stroke-width="2" mask="url(#i)"/>
        <circle cx="10" cy="109" r="20" fill="#FFFFFF" stroke="#0A2D4B" stroke-width="2" mask="url(#i)"/>
      </g>
      <path stroke="#0A2D4B" stroke-width="4" d="M95,180 C147.467051,180 190,137.467051 190,85 C190,64.282376 183.36819,45.1136942 172.111638,29.5010227 C154.861153,5.57485349 129.442329,85.0000025 97.6929016,85.0000025 C69.7348603,85.0000025 41.9046948,2.07718345 24.5206559,21.2991027 C9.28119114,38.1497184 0,60.49099 0,85 C0,137.467051 42.5329488,180 95,180 Z"/>
      <path fill="#FFFFFF" stroke="#0A2D4B" stroke-width="2" d="M103.745565,50.2793349 C104.806889,47.7321573 106.527607,47.7320908 107.588959,50.2793349 L113.167262,63.6672619 L98.1672619,63.6672619 L103.745565,50.2793349 Z" transform="rotate(-45 105.667 54.667)"/>
      <path fill="#FFFFFF" stroke="#0A2D4B" stroke-width="2" d="M123.745565,30.2793349 C124.806889,27.7321573 126.527607,27.7320908 127.588959,30.2793349 L133.167262,43.6672619 L118.167262,43.6672619 L123.745565,30.2793349 Z" transform="rotate(-45 125.667 34.667)"/>
      <path fill="#FFFFFF" stroke="#0A2D4B" stroke-width="2" d="M143.745565,10.2793349 C144.806889,7.73215733 146.527607,7.73209076 147.588959,10.2793349 L153.167262,23.6672619 L138.167262,23.6672619 L143.745565,10.2793349 Z" transform="rotate(-45 145.667 14.667)"/>
      <path fill="#FFFFFF" stroke="#0A2D4B" stroke-width="2" d="M85.7455648,47.2793349 C86.8068888,44.7321573 88.5276073,44.7320908 89.588959,47.2793349 L95.1672619,60.6672619 L80.1672619,60.6672619 L85.7455648,47.2793349 Z" transform="rotate(45 87.667 51.667)"/>
      <path fill="#FFFFFF" stroke="#0A2D4B" stroke-width="2" d="M65.7455648,27.2793349 C66.8068888,24.7321573 68.5276073,24.7320908 69.588959,27.2793349 L75.1672619,40.6672619 L60.1672619,40.6672619 L65.7455648,27.2793349 Z" transform="rotate(45 67.667 31.667)"/>
      <path fill="#FFFFFF" stroke="#0A2D4B" stroke-width="2" d="M45.7455648,7.27933494 C46.8068888,4.73215733 48.5276073,4.73209076 49.588959,7.27933494 L55.1672619,20.6672619 L40.1672619,20.6672619 L45.7455648,7.27933494 Z" transform="rotate(45 47.667 11.667)"/>
      <use fill="#FFFFFF" xlink:href="#j"/>
      <path stroke="#0A2D4B" stroke-width="4" d="M100.220154,74.9540955 L158.715707,16.4585428 C165.358263,9.81598681 176.122809,9.81341189 182.762639,16.4532413 C189.402801,23.0934031 189.401728,33.8557824 182.757337,40.5001734 L117.714116,105.543394 C117.3887,105.868811 117.052117,106.179629 116.704982,106.475527 L116.588186,106.583386 L110.783787,112.387786 C104.143342,119.028231 93.3836822,119.029312 86.7419177,112.387547 L14.8494811,40.4951106 C8.20984064,33.8554701 8.20929364,23.0931901 14.8492424,16.4532413 C21.4896877,9.81279607 32.2493472,9.81171553 38.8911117,16.4534801 L97.3917271,74.9540955 L98.8059406,76.368309 L100.220154,74.9540955 Z"/>
    </g>
    <g>
      <use fill="#7ED321" xlink:href="#k"/>
      <rect width="16" height="147" x="413" y="481" stroke="#0A2D4B" stroke-width="4"/>
    </g>
    <g>
      <use fill="#7ED321" xlink:href="#l"/>
      <rect width="16" height="54" x="483" y="427" stroke="#0A2D4B" stroke-width="4"/>
    </g>
    <g>
      <use fill="#7ED321" xlink:href="#m"/>
      <rect width="16" height="147" x="483" y="481" stroke="#0A2D4B" stroke-width="4"/>
    </g>
    <g>
      <use fill="#7ED321" xlink:href="#n"/>
      <rect width="36" height="54" x="363" y="427" stroke="#0A2D4B" stroke-width="4"/>
    </g>
  </g>
</svg>
