<svg xmlns="http://www.w3.org/2000/svg" width="600" height="600" viewBox="0 0 600 600" xmlns:xlink="http://www.w3.org/1999/xlink" style="background:#3e8182">
  <defs>
    <path id="a" d="M389,240 L366.014545,476.013962 C365.907721,477.110821 364.924035,478 363.823722,478 L238.176278,478 C237.073143,478 236.092627,477.114397 235.985455,476.013962 L213,240 L389,240 Z"/>
    <path id="b" d="M381.009752,303 C383.213505,303 384.852147,304.777719 384.668905,306.980944 L378.012136,387.019056 C377.829277,389.217671 375.8941,391 373.690615,391 L227.309385,391 C225.105534,391 223.171106,389.222281 222.987864,387.019056 L216.331095,306.980944 C216.148236,304.782329 217.783601,303 219.990248,303 L381.009752,303 Z"/>
    <path id="c" d="M388.317194,225 C389.974655,225 391.767073,226.276146 392.311397,227.823976 L397.006896,241.176024 C397.555372,242.735663 396.650653,244 394.995628,244 L206.004372,244 C204.345103,244 203.448781,242.723854 203.993104,241.176024 L208.688603,227.823976 C209.23708,226.264337 211.026519,225 212.682806,225 L388.317194,225 Z"/>
    <path id="d" d="M379.966208,210 C381.624787,210 383.374384,211.276146 383.878712,212.865064 L388.090618,226.134936 C388.592856,227.717267 387.659555,229 386.000655,229 L215.999345,229 C214.342852,229 213.405054,227.723854 213.909382,226.134936 L218.121288,212.865064 C218.623525,211.282733 220.374381,210 222.033792,210 L379.966208,210 Z"/>
  </defs>
  <g fill="none" fill-rule="evenodd">
    <g stroke="#0A2D4B" stroke-width="8" transform="translate(146 475)" stroke-linecap="square">
      <path d="M.5 1L250.5 1M.5 1L250.5 1M270.5 1L280.5 1M300.5 1L308.5 1"/>
    </g>
    <use fill="#FD9C62" xlink:href="#a"/>
    <path stroke="#0A2D4B" stroke-width="6" d="M385.693636,243 L363.099101,475 L238.900899,475 L216.306364,243 L385.693636,243 Z"/>
    <use fill="#EA3342" xlink:href="#b"/>
    <path stroke="#0A2D4B" stroke-width="4" d="M381.009752,305 C382.044994,305 382.761939,305.779314 382.675786,306.815176 L376.019017,386.853289 C375.92236,388.015455 374.853522,389 373.690615,389 L227.309385,389 C226.144346,389 225.077877,388.018305 224.980983,386.853289 L218.324214,306.815176 C218.238175,305.780684 218.955362,305 219.990248,305 L381.009752,305 Z"/>
    <g>
      <use fill="#F9CF8E" xlink:href="#c"/>
      <path stroke="#0A2D4B" stroke-width="4" d="M388.317194,227 C389.121436,227 390.160463,227.736205 390.424664,228.487481 L395.120163,241.839529 C395.20958,242.093794 395.276478,242 394.995628,242 L206.004372,242 C205.727849,242 205.791727,242.090078 205.879837,241.839529 L210.575336,228.487481 C210.841824,227.729701 211.874115,227 212.682806,227 L388.317194,227 Z"/>
    </g>
    <g>
      <use fill="#F9CF8E" xlink:href="#d"/>
      <path stroke="#0A2D4B" stroke-width="4" d="M379.966208,212 C380.755892,212 381.732533,212.714306 381.972433,213.470124 L386.184339,226.739996 C386.278072,227.035309 386.303808,227 386.000655,227 L215.999345,227 C215.6939,227 215.721258,227.037419 215.815661,226.739996 L220.027567,213.470124 C220.266345,212.717842 221.246478,212 222.033792,212 L379.966208,212 Z"/>
    </g>
  </g>
</svg>
