<svg xmlns="http://www.w3.org/2000/svg" width="800" height="800" viewBox="0 0 800 800" style="background:#0a2d4b">
  <g fill="none" fill-rule="evenodd">
    <g stroke="#0A2D4B" stroke-width="4" transform="translate(121 626)" stroke-linecap="square">
      <path d="M0 2L500 2M520 2L530 2M550 2L558 2"/>
    </g>
    <g transform="translate(367 405)">
      <path fill="#F1CF64" fill-opacity=".8" d="M42.106,132.657 C45.428,129.006 48.117,125.135 50.334,120.733 C53.489,114.479 55.847,107.839 57.721,101.096 C61.83,86.293 63.7,70.897 64.576,55.59 C39.3720055,55.588 22.4286175,55.588 2.139,55.588 C3.014,70.897 4.884,86.293 8.994,101.096 C10.866,107.839 13.224,114.479 16.378,120.733 C18.599,125.135 21.287,129.006 24.609,132.657 C26.103,134.298 40.61,134.298 42.106,132.657 Z"/>
      <g fill="#FFF7CF" transform="translate(33 59)">
        <path d="M3.60055903 23.408C4.39455903 23.408 5.04055903 22.76 5.04055903 21.966 5.04055903 21.172 4.39455903 20.526 3.60055903 20.526 2.80655903 20.526 2.15855903 21.172 2.15855903 21.966 2.15855903 22.76 2.80655903 23.408 3.60055903 23.408M7.68255903 20.286C8.47655903 20.286 9.12255903 19.64 9.12255903 18.844 9.12255903 18.052 8.47655903 17.406 7.68255903 17.406 6.88855903 17.406 6.24055903 18.052 6.24055903 18.844 6.24055903 19.64 6.88855903 20.286 7.68255903 20.286M3.84055903 16.684C4.63455903 16.684 5.28055903 16.036 5.28055903 15.244 5.28055903 14.45 4.63455903 13.804 3.84055903 13.804 3.04655903 13.804 2.40055903 14.45 2.40055903 15.244 2.40055903 16.036 3.04655903 16.684 3.84055903 16.684M8.88255903 14.284C9.67655903 14.284 10.322559 13.636 10.322559 12.842 10.322559 12.048 9.67655903 11.402 8.88255903 11.402 8.08855903 11.402 7.44255903 12.048 7.44255903 12.842 7.44255903 13.636 8.08855903 14.284 8.88255903 14.284M7.68255903 8.52C8.47655903 8.52 9.12255903 7.872 9.12255903 7.08 9.12255903 6.286 8.47655903 5.638 7.68255903 5.638 6.88855903 5.638 6.24055903 6.286 6.24055903 7.08 6.24055903 7.872 6.88855903 8.52 7.68255903 8.52M9.36255903 3.718C10.156559 3.718 10.804559 3.072 10.804559 2.278 10.804559 1.484 10.156559.838 9.36255903.838 8.57055903.838 7.92055903 1.484 7.92055903 2.278 7.92055903 3.072 8.57055903 3.718 9.36255903 3.718M1.91855903 4.198C2.71255903 4.198 3.36055903 3.552 3.36055903 2.756 3.36055903 1.964 2.71255903 1.318 1.91855903 1.318 1.12455903 1.318.478559025 1.964.478559025 2.756.478559025 3.552 1.12455903 4.198 1.91855903 4.198"/>
      </g>
      <g fill="#FFF7CF" transform="translate(33 82)">
        <path d="M3.60055903 23.408C4.39455903 23.408 5.04055903 22.76 5.04055903 21.966 5.04055903 21.172 4.39455903 20.526 3.60055903 20.526 2.80655903 20.526 2.15855903 21.172 2.15855903 21.966 2.15855903 22.76 2.80655903 23.408 3.60055903 23.408M7.68255903 20.286C8.47655903 20.286 9.12255903 19.64 9.12255903 18.844 9.12255903 18.052 8.47655903 17.406 7.68255903 17.406 6.88855903 17.406 6.24055903 18.052 6.24055903 18.844 6.24055903 19.64 6.88855903 20.286 7.68255903 20.286M3.84055903 16.684C4.63455903 16.684 5.28055903 16.036 5.28055903 15.244 5.28055903 14.45 4.63455903 13.804 3.84055903 13.804 3.04655903 13.804 2.40055903 14.45 2.40055903 15.244 2.40055903 16.036 3.04655903 16.684 3.84055903 16.684M8.88255903 14.284C9.67655903 14.284 10.322559 13.636 10.322559 12.842 10.322559 12.048 9.67655903 11.402 8.88255903 11.402 8.08855903 11.402 7.44255903 12.048 7.44255903 12.842 7.44255903 13.636 8.08855903 14.284 8.88255903 14.284M7.68255903 8.52C8.47655903 8.52 9.12255903 7.872 9.12255903 7.08 9.12255903 6.286 8.47655903 5.638 7.68255903 5.638 6.88855903 5.638 6.24055903 6.286 6.24055903 7.08 6.24055903 7.872 6.88855903 8.52 7.68255903 8.52M9.36255903 3.718C10.156559 3.718 10.804559 3.072 10.804559 2.278 10.804559 1.484 10.156559.838 9.36255903.838 8.57055903.838 7.92055903 1.484 7.92055903 2.278 7.92055903 3.072 8.57055903 3.718 9.36255903 3.718M1.91855903 4.198C2.71255903 4.198 3.36055903 3.552 3.36055903 2.756 3.36055903 1.964 2.71255903 1.318 1.91855903 1.318 1.12455903 1.318.478559025 1.964.478559025 2.756.478559025 3.552 1.12455903 4.198 1.91855903 4.198"/>
      </g>
      <g fill="#FFF7CF" transform="translate(28 105)">
        <path d="M3.60055903 23.408C4.39455903 23.408 5.04055903 22.76 5.04055903 21.966 5.04055903 21.172 4.39455903 20.526 3.60055903 20.526 2.80655903 20.526 2.15855903 21.172 2.15855903 21.966 2.15855903 22.76 2.80655903 23.408 3.60055903 23.408M7.68255903 20.286C8.47655903 20.286 9.12255903 19.64 9.12255903 18.844 9.12255903 18.052 8.47655903 17.406 7.68255903 17.406 6.88855903 17.406 6.24055903 18.052 6.24055903 18.844 6.24055903 19.64 6.88855903 20.286 7.68255903 20.286M3.84055903 16.684C4.63455903 16.684 5.28055903 16.036 5.28055903 15.244 5.28055903 14.45 4.63455903 13.804 3.84055903 13.804 3.04655903 13.804 2.40055903 14.45 2.40055903 15.244 2.40055903 16.036 3.04655903 16.684 3.84055903 16.684M8.88255903 14.284C9.67655903 14.284 10.322559 13.636 10.322559 12.842 10.322559 12.048 9.67655903 11.402 8.88255903 11.402 8.08855903 11.402 7.44255903 12.048 7.44255903 12.842 7.44255903 13.636 8.08855903 14.284 8.88255903 14.284M7.68255903 8.52C8.47655903 8.52 9.12255903 7.872 9.12255903 7.08 9.12255903 6.286 8.47655903 5.638 7.68255903 5.638 6.88855903 5.638 6.24055903 6.286 6.24055903 7.08 6.24055903 7.872 6.88855903 8.52 7.68255903 8.52M9.36255903 3.718C10.156559 3.718 10.804559 3.072 10.804559 2.278 10.804559 1.484 10.156559.838 9.36255903.838 8.57055903.838 7.92055903 1.484 7.92055903 2.278 7.92055903 3.072 8.57055903 3.718 9.36255903 3.718M1.91855903 4.198C2.71255903 4.198 3.36055903 3.552 3.36055903 2.756 3.36055903 1.964 2.71255903 1.318 1.91855903 1.318 1.12455903 1.318.478559025 1.964.478559025 2.756.478559025 3.552 1.12455903 4.198 1.91855903 4.198"/>
      </g>
      <path fill="#FFFFFF" fill-opacity=".2" stroke="#0A2D4B" stroke-width="3" d="M37.31,179.492 C37.272,169.051 37.6,158.618 37.847,148.18 C37.923,144.969 37.821,141.409 38.622,138.264 C39.182,136.067 40.61,134.298 42.106,132.657 C45.428,129.006 48.117,125.135 50.334,120.733 C53.489,114.479 55.847,107.839 57.721,101.096 C61.83,86.293 63.7,70.897 64.576,55.59 C65.32,42.597 65.301,29.559 64.684,16.562 C64.422,11.038 64.104,5.498 63.506,0 L3.208,0 C2.61,5.498 2.291,11.038 2.03,16.562 C1.413,29.559 1.394,42.597 2.139,55.588 C3.014,70.897 4.884,86.293 8.994,101.096 C10.866,107.839 13.224,114.479 16.378,120.733 C18.599,125.135 21.287,129.006 24.609,132.657 C26.103,134.298 27.531,136.067 28.09,138.264 C28.89,141.409 28.791,144.969 28.869,148.18 C29.117,158.618 29.443,169.051 29.405,179.492 C29.363,191.059 32.272,205.023 22.189,213.364 C17.794,217.002 10.055,221.938 0,222.743 L33.356,222.747 L66.071,222.801 C56.337,221.704 48.825,216.923 44.523,213.364 C34.442,205.023 37.351,191.059 37.31,179.492 Z"/>
    </g>
    <path fill="#FFF6CF" d="M126.443585 108.637451C123.513308 107.096914 118.754063 107.101292 115.832114 108.637451L102.932174 115.419351C100.001898 116.959888 98.0817019 115.554356 98.6397445 112.300718L101.103414 97.936424C101.663047 94.673513 100.188195 90.1485549 97.824289 87.8443159L87.3880186 77.6714665C85.017375 75.3606601 85.7607431 73.1001118 89.027581 72.6254124L103.450152 70.5296902C106.726301 70.0536379 110.574038 67.2526817 112.035012 64.2924244L118.484982 51.2233581C119.95012 48.2546636 122.329743 48.2631007 123.790717 51.2233581L130.240687 64.2924244C131.705825 67.2611189 135.558709 70.0549909 138.825547 70.5296902L153.248118 72.6254124C156.524267 73.1014647 157.251586 75.3672275 154.88768 77.6714665L144.45141 87.8443159C142.080766 90.1551223 140.614242 94.6827864 141.172285 97.936424L143.635954 112.300718C144.195587 115.563629 142.265473 116.95551 139.343524 115.419351L126.443585 108.637451zM337.443585 175.637451C334.513308 174.096914 329.754063 174.101292 326.832114 175.637451L313.932174 182.419351C311.001898 183.959888 309.081702 182.554356 309.639744 179.300718L312.103414 164.936424C312.663047 161.673513 311.188195 157.148555 308.824289 154.844316L298.388019 144.671467C296.017375 142.36066 296.760743 140.100112 300.027581 139.625412L314.450152 137.52969C317.726301 137.053638 321.574038 134.252682 323.035012 131.292424L329.484982 118.223358C330.95012 115.254664 333.329743 115.263101 334.790717 118.223358L341.240687 131.292424C342.705825 134.261119 346.558709 137.054991 349.825547 137.52969L364.248118 139.625412C367.524267 140.101465 368.251586 142.367228 365.88768 144.671467L355.45141 154.844316C353.080766 157.155122 351.614242 161.682786 352.172285 164.936424L354.635954 179.300718C355.195587 182.563629 353.265473 183.95551 350.343524 182.419351L337.443585 175.637451zM459.443585 95.6374512C456.513308 94.0969136 451.754063 94.1012919 448.832114 95.6374512L435.932174 102.419351C433.001898 103.959888 431.081702 102.554356 431.639744 99.3007179L434.103414 84.936424C434.663047 81.673513 433.188195 77.1485549 430.824289 74.8443159L420.388019 64.6714665C418.017375 62.3606601 418.760743 60.1001118 422.027581 59.6254124L436.450152 57.5296902C439.726301 57.0536379 443.574038 54.2526817 445.035012 51.2924244L451.484982 38.2233581C452.95012 35.2546636 455.329743 35.2631007 456.790717 38.2233581L463.240687 51.2924244C464.705825 54.2611189 468.558709 57.0549909 471.825547 57.5296902L486.248118 59.6254124C489.524267 60.1014647 490.251586 62.3672275 487.88768 64.6714665L477.45141 74.8443159C475.080766 77.1551223 473.614242 81.6827864 474.172285 84.936424L476.635954 99.3007179C477.195587 102.563629 475.265473 103.95551 472.343524 102.419351L459.443585 95.6374512zM649.443585 108.637451C646.513308 107.096914 641.754063 107.101292 638.832114 108.637451L625.932174 115.419351C623.001898 116.959888 621.081702 115.554356 621.639744 112.300718L624.103414 97.936424C624.663047 94.673513 623.188195 90.1485549 620.824289 87.8443159L610.388019 77.6714665C608.017375 75.3606601 608.760743 73.1001118 612.027581 72.6254124L626.450152 70.5296902C629.726301 70.0536379 633.574038 67.2526817 635.035012 64.2924244L641.484982 51.2233581C642.95012 48.2546636 645.329743 48.2631007 646.790717 51.2233581L653.240687 64.2924244C654.705825 67.2611189 658.558709 70.0549909 661.825547 70.5296902L676.248118 72.6254124C679.524267 73.1014647 680.251586 75.3672275 677.88768 77.6714665L667.45141 87.8443159C665.080766 90.1551223 663.614242 94.6827864 664.172285 97.936424L666.635954 112.300718C667.195587 115.563629 665.265473 116.95551 662.343524 115.419351L649.443585 108.637451z"/>
    <polygon fill="#FFF6CF" points="520 184.5 511.548 208.785 517.567 183.786 497.328 199.646 515.907 181.869 490.305 184.269 515.546 179.36 492.711 167.538 516.599 177.053 503.781 154.762 518.732 175.682 520 150 521.268 175.682 536.219 154.762 523.401 177.053 547.289 167.538 524.454 179.36 549.695 184.269 524.093 181.869 542.672 199.646 522.433 183.786 528.452 208.785"/>
    <polygon fill="#FFF6CF" points="234 83.5 225.548 107.785 231.567 82.786 211.328 98.646 229.907 80.869 204.305 83.269 229.546 78.36 206.711 66.538 230.599 76.053 217.781 53.762 232.732 74.682 234 49 235.268 74.682 250.219 53.762 237.401 76.053 261.289 66.538 238.454 78.36 263.695 83.269 238.093 80.869 256.672 98.646 236.433 82.786 242.452 107.785"/>
    <polygon fill="#FFF6CF" points="576 45.5 567.548 69.785 573.567 44.786 553.328 60.646 571.907 42.869 546.305 45.269 571.546 40.36 548.711 28.538 572.599 38.053 559.781 15.762 574.732 36.682 576 11 577.268 36.682 592.219 15.762 579.401 38.053 603.289 28.538 580.454 40.36 605.695 45.269 580.093 42.869 598.672 60.646 578.433 44.786 584.452 69.785"/>
    <polygon fill="#FFF6CF" points="378.5 373.225 375.26 382.534 377.567 372.951 369.809 379.031 376.931 372.217 367.117 373.137 376.793 371.255 368.039 366.723 377.196 370.37 372.283 361.826 378.014 369.845 378.5 360 378.986 369.845 384.717 361.826 379.804 370.37 388.961 366.723 380.207 371.255 389.883 373.137 380.069 372.217 387.191 379.031 379.433 372.951 381.74 382.534"/>
    <polygon fill="#FFF6CF" points="415 421.9 413.31 426.757 414.513 421.757 410.466 424.929 414.181 421.374 409.061 421.854 414.109 420.872 409.542 418.508 414.32 420.411 411.756 415.952 414.746 420.136 415 415 415.254 420.136 418.244 415.952 415.68 420.411 420.458 418.508 415.891 420.872 420.939 421.854 415.819 421.374 419.534 424.929 415.487 421.757 416.69 426.757"/>
    <polygon fill="#FFF6CF" points="390 451.9 388.31 456.757 389.513 451.757 385.466 454.929 389.181 451.374 384.061 451.854 389.109 450.872 384.542 448.508 389.32 450.411 386.756 445.952 389.746 450.136 390 445 390.254 450.136 393.244 445.952 390.68 450.411 395.458 448.508 390.891 450.872 395.939 451.854 390.819 451.374 394.534 454.929 390.487 451.757 391.69 456.757"/>
    <path fill="#FFF6CF" d="M352.142539 281.243585C350.683143 280.462341 348.312847 280.464562 346.857598 281.243585L340.432907 284.682849C338.973511 285.464093 338.013041 284.775858 338.289532 283.134395L339.527682 275.783757C339.803325 274.147326 339.075068 271.876129 337.900786 270.71061L332.679477 265.528266C331.505325 264.362875 331.88084 263.221746 333.52421 262.978595L340.674528 261.920643C342.315214 261.677889 344.22804 260.278706 344.9519 258.785253L348.193421 252.097422C348.915063 250.608547 350.082856 250.603969 350.806717 252.097422L354.048237 258.785253C354.769879 260.274127 356.68224 261.677492 358.32561 261.920643L365.475927 262.978595C367.116613 263.221349 367.494942 264.362747 366.32066 265.528266L361.099352 270.71061C359.925199 271.876001 359.195965 274.142294 359.472455 275.783757L360.710606 283.134395C360.986249 284.770826 360.022479 285.461873 358.567231 284.682849L352.142539 281.243585zM410.336534 358.110089C409.598406 357.725931 408.400597 357.726486 407.663537 358.110089L404.314437 359.853128C403.57631 360.237286 403.092421 359.887929 403.233187 359.075445L403.872808 355.383631C404.013778 354.56997 403.643101 353.442402 403.046807 352.866998L400.337328 350.25244C399.74017 349.676203 399.92627 349.112664 400.750329 348.994124L404.494736 348.455495C405.319988 348.336784 406.288706 347.639353 406.657236 346.90013L408.331786 343.541207C408.70085 342.800914 409.299754 342.801984 409.668285 343.541207L411.342835 346.90013C411.711898 347.640423 412.681276 348.336955 413.505334 348.455495L417.249742 348.994124C418.074994 349.112835 418.259037 349.677036 417.662743 350.25244L414.953264 352.866998C414.356106 353.443235 413.986496 354.571147 414.127262 355.383631L414.766884 359.075445C414.907853 359.889106 414.422694 360.236731 413.685634 359.853128L410.336534 358.110089zM396.15337 398.99125C395.792534 398.792406 395.200299 398.796375 394.846665 398.99125L393.142322 399.930453C392.781485 400.129297 392.542039 399.966164 392.610925 399.545175L392.942073 397.521394C393.009427 397.109767 392.830456 396.537429 392.535455 396.236018L391.156613 394.827214C390.86469 394.528947 390.963135 394.236116 391.375165 394.17336L393.247368 393.888203C393.659994 393.825356 394.133431 393.479325 394.313777 393.096296L395.180735 391.255C395.35707 390.880489 395.638955 390.871971 395.819301 391.255L396.686259 393.096296C396.862594 393.470807 397.340638 393.825447 397.752667 393.888203L399.624871 394.17336C400.037497 394.236207 400.138423 394.525803 399.843423 394.827214L398.46458 396.236018C398.172657 396.534285 397.989076 397.100406 398.057962 397.521394L398.389111 399.545175C398.456465 399.956803 398.211347 400.125328 397.857713 399.930453L396.15337 398.99125z"/>
    <polygon fill="#FFF6CF" points="400 302.25 395.774 314.392 398.784 301.893 388.664 309.823 397.953 300.935 385.153 302.135 397.773 299.68 386.356 293.769 398.3 298.527 391.89 287.381 399.366 297.841 400 285 400.634 297.841 408.11 287.381 401.7 298.527 413.644 293.769 402.227 299.68 414.847 302.135 402.047 300.935 411.336 309.823 401.216 301.893 404.226 314.392"/>
    <path fill="#FFF7CF" d="M407.682559 442.52C408.476559 442.52 409.122559 441.872 409.122559 441.08 409.122559 440.286 408.476559 439.638 407.682559 439.638 406.888559 439.638 406.240559 440.286 406.240559 441.08 406.240559 441.872 406.888559 442.52 407.682559 442.52M387.682559 422.52C388.476559 422.52 389.122559 421.872 389.122559 421.08 389.122559 420.286 388.476559 419.638 387.682559 419.638 386.888559 419.638 386.240559 420.286 386.240559 421.08 386.240559 421.872 386.888559 422.52 387.682559 422.52M417.682559 372.52C418.476559 372.52 419.122559 371.872 419.122559 371.08 419.122559 370.286 418.476559 369.638 417.682559 369.638 416.888559 369.638 416.240559 370.286 416.240559 371.08 416.240559 371.872 416.888559 372.52 417.682559 372.52M387.682559 322.52C388.476559 322.52 389.122559 321.872 389.122559 321.08 389.122559 320.286 388.476559 319.638 387.682559 319.638 386.888559 319.638 386.240559 320.286 386.240559 321.08 386.240559 321.872 386.888559 322.52 387.682559 322.52M368.001388 193C369.1034 193 370 192.100625 370 191.001388 370 189.899375 369.1034 189 368.001388 189 366.899375 189 366 189.899375 366 191.001388 366 192.100625 366.899375 193 368.001388 193M488.001388 163C489.1034 163 490 162.100625 490 161.001388 490 159.899375 489.1034 159 488.001388 159 486.899375 159 486 159.899375 486 161.001388 486 162.100625 486.899375 163 488.001388 163M578.001388 103C579.1034 103 580 102.100625 580 101.001388 580 99.8993754 579.1034 99 578.001388 99 576.899375 99 576 99.8993754 576 101.001388 576 102.100625 576.899375 103 578.001388 103M458.001388 253C459.1034 253 460 252.100625 460 251.001388 460 249.899375 459.1034 249 458.001388 249 456.899375 249 456 249.899375 456 251.001388 456 252.100625 456.899375 253 458.001388 253M278.001388 93C279.1034 93 280 92.1006246 280 91.0013879 280 89.8993754 279.1034 89 278.001388 89 276.899375 89 276 89.8993754 276 91.0013879 276 92.1006246 276.899375 93 278.001388 93M68.0013879 43C69.1034004 43 70 42.1006246 70 41.0013879 70 39.8993754 69.1034004 39 68.0013879 39 66.8993754 39 66 39.8993754 66 41.0013879 66 42.1006246 66.8993754 43 68.0013879 43M328.001388 243C329.1034 243 330 242.100625 330 241.001388 330 239.899375 329.1034 239 328.001388 239 326.899375 239 326 239.899375 326 241.001388 326 242.100625 326.899375 243 328.001388 243"/>
  </g>
</svg>
