<svg xmlns="http://www.w3.org/2000/svg" width="800" height="800" viewBox="0 0 800 800" xmlns:xlink="http://www.w3.org/1999/xlink" style="background:#6ed2e6">
  <defs>
    <path id="a" d="M113.211,118.846263 C113.211,70.0732189 105.538148,30.5044216 95.8653535,0 L18.5758019,2.51507899e-13 C8.75741351,30.6971284 0.92,70.3799127 0.92,118.846263 C0.92,143.128723 3.24818321,168.061331 7.36135892,191 L106.769641,191 C110.882817,168.061331 113.211,143.128723 113.211,118.846263 Z"/>
    <path id="c" d="M6.63151642,0 C4.41605448,2.56496037 2.20043342,5.23518166 5.38998588e-14,8.01040211 L0,263.899469 C4.51387628,268.775737 9.27592835,273.171733 14.2497952,277 L96,277 L96,5.89222909e-14 L6.63151642,1.17844582e-13 L6.63151642,0 Z"/>
    <path id="e" d="M111.863,81.9325376 C111.863,51.3400047 107.946642,23.0381783 101.30104,0 L10.5689604,9.22270078e-14 C3.92335805,23.0381783 0.007,51.3400047 0.007,81.9325376 C0.007,113.031934 4.05514031,141.760542 10.9028791,165 L100.966821,164.999996 C107.81486,141.760542 111.863,113.031934 111.863,81.9325376 Z"/>
  </defs>
  <g fill="none" fill-rule="evenodd">
    <g transform="translate(87 316)">
      <path fill="#6ABD9C" stroke="#0A2D4B" stroke-width="4" d="M81.165,312.003 C100.156,285.261 113.291,229.803 113.291,177.661 C113.291,58.386 57.145,0 57.145,0 C57.145,0 1,60.388 1,177.661 C1,229.803 14.135,285.261 33.126,312.003 L81.165,312.003"/>
      <g transform="translate(0 61)">
        <mask id="b" fill="white">
          <use xlink:href="#a"/>
        </mask>
        <polyline fill="#EC435B" stroke="#0A2D4B" stroke-width="2" points="56.443 23.531 126.847 93.997 134.847 85.997 57.065 8.216 -20.717 85.997 -12.717 93.997 57.065 24.215" mask="url(#b)"/>
        <polyline fill="#F0DA51" stroke="#0A2D4B" stroke-width="2" points="56.424 62.574 126.847 132.961 134.847 124.961 57.065 47.179 -20.717 124.961 -12.717 132.961 57.065 63.179" mask="url(#b)"/>
        <polyline fill="#EC435B" stroke="#0A2D4B" stroke-width="2" points="56.399 101.493 126.847 171.924 134.847 163.924 57.065 86.143 -20.717 163.924 -12.717 171.924 57.065 102.143" mask="url(#b)"/>
        <polyline fill="#F0DA51" stroke="#0A2D4B" stroke-width="2" points="56.448 140.439 126.847 210.888 134.847 202.888 57.065 125.106 -20.717 202.888 -12.717 210.888 57.065 141.106" mask="url(#b)"/>
      </g>
      <path stroke="#0A2D4B" stroke-width="4" d="M81.085,312.003 C100.076,285.261 113.211,229.803 113.211,177.661 C113.211,58.386 57.065,0 57.065,0 C57.065,0 0.92,60.388 0.92,177.661 C0.92,229.803 14.055,285.261 33.046,312.003 L81.085,312.003"/>
    </g>
    <g stroke="#0A2D4B" transform="translate(533 316)">
      <path fill="#F0DA51" stroke-width="4" d="M111.95,172.656 C111.95,77.301 86.91,0 56.022,0 C25.133,0 0.093,77.301 0.093,172.656 C0.093,229.877 9.113,280.587 22.999,312.003 L89.044,312.003 C102.931,280.587 111.95,229.877 111.95,172.656 Z"/>
      <path fill="#E84259" stroke-width="2" d="M106.006 250.148C109.805 226.844 111.95 200.527 111.95 172.656 111.95 98.821 96.935 35.823 75.819 11.143 73.76 30.796 72.643 51.746 72.643 73.5 72.643 149.092 86.072 215.055 106.006 250.148M36.225 11.143C15.108 35.823.093 98.821.093 172.656.093 200.527 2.238 226.844 6.038 250.148 25.972 215.055 39.4 149.092 39.4 73.5 39.4 51.746 38.284 30.796 36.225 11.143"/>
      <path fill="#6ABD9C" stroke-width="2" d="M56.022,0 C52.625,0 49.299,0.937 46.07,2.728 C50.298,61.14 56.022,155.5 25.546,312.003 L86.498,312.003 C56.022,155 61.745,61.14 65.974,2.728 C62.744,0.937 59.418,0 56.022,0"/>
      <path stroke-width="4" d="M111.95,172.656 C111.95,77.301 86.91,0 56.022,0 C25.133,0 0.093,77.301 0.093,172.656 C0.093,229.877 9.113,280.587 22.999,312.003 L89.044,312.003 C102.931,280.587 111.95,229.877 111.95,172.656 Z"/>
    </g>
    <g transform="matrix(-1 0 0 1 498 315)">
      <path fill="#6ABD9C" stroke="#0A2D4B" stroke-width="4" d="M80.7516667,312.175 C99.7426667,285.433 112.877667,229.975 112.877667,177.832 C112.877667,58.558 56.7316667,0.172 56.7316667,0.172 C56.7316667,0.172 0.586666667,60.56 0.586666667,177.832 C0.586666667,229.975 13.7216667,285.433 32.7126667,312.175 L80.7516667,312.175"/>
      <g transform="translate(6.667 37.003)">
        <mask id="d" fill="white">
          <use xlink:href="#c"/>
        </mask>
        <path fill="#E74158" stroke="#0A2D4B" stroke-width="2" d="M49.188,19.908 C48.123,21.594 46.839,23.389 45.647,25.475 C45.032,26.505 44.393,27.577 43.729,28.69 C43.087,29.814 42.465,31.003 41.799,32.217 C41.129,33.429 40.454,34.687 39.826,36.018 C39.186,37.341 38.498,38.688 37.845,40.093 C37.222,41.512 36.583,42.968 35.929,44.457 C35.263,45.94 34.719,47.515 34.088,49.089 C31.69,55.434 29.543,62.47 28.077,70.044 C26.612,77.611 25.84,85.721 26.205,94.02 C26.273,95.055 26.342,96.094 26.411,97.137 L26.513,98.703 C26.536,99.055 26.5779995,100.204003 26.5779995,100.204003 C26.7219995,100.584352 26.974,102.363 27.12,103.455 C27.317,104.444 27.516,105.436 27.714,106.432 C28.611,110.475 29.855,114.598 31.438,118.609 C34.643,126.652 39.026,134.443 43.875,142.105 C46.285,145.943 48.812,149.757 51.339,153.608 L53.233,156.502 L54.178,157.952 L54.701,158.77 L55.153,159.499 C55.458,160 55.747,160.433 56.065,160.989 L57.018,162.664 C57.64,163.782 58.186,164.846 58.741,165.95 C63.075,174.752 65.708,184.006 67.249,193.012 C67.456,194.139 67.607,195.264 67.782,196.385 L68.006,198.063 L68.168,199.318 C68.324,200.912 68.428,201.964 68.532,203.01 C68.634,204.058 68.751,205.069 68.8,206.22 C69.091,210.734 69.215,214.966 69.124,219.12 C68.989,227.424 68.217,235.229 67.153,242.349 C66.084,249.47 64.743,255.919 63.374,261.573 C61.97,267.214 60.631,272.099 59.399,276.067 C58.192,280.046 57.179,283.147 56.459,285.246 C55.745,287.349 55.363,288.471 55.363,288.471 L38.519,282.124 C38.519,282.124 38.934,281.083 39.71,279.13 C40.495,277.178 41.599,274.303 42.924,270.624 C44.276,266.949 45.757,262.45 47.338,257.26 C48.881,252.063 50.427,246.156 51.747,239.657 C53.061,233.159 54.129,226.063 54.639,218.533 C54.921,214.773 54.992,210.86 54.953,207.062 C54.972,206.133 54.905,205.06 54.856,204.013 C54.807,202.963 54.756,201.907 54.706,200.847 C54.687,200.471 54.611,199.463 54.611,199.463 L54.488,197.955 C54.383,196.951 54.302,195.937 54.168,194.93 C53.214,186.852 51.297,178.634 47.992,170.952 C47.576,170.007 47.132,169.022 46.692,168.126 L46.026,166.79 C45.804,166.341 45.49,165.805 45.226,165.316 L44.811,164.565 L44.442,163.918 L43.586,162.445 L41.861,159.488 C39.547,155.536 37.181,151.535 34.893,147.44 C32.61,143.344 30.366,139.188 28.341,134.893 C26.317,130.599 24.483,126.198 22.945,121.701 C21.427,117.18 20.282,112.597 19.498,107.909 C19.328,106.711 19.158,105.518 18.989,104.328 C18.899,103.223 18.809,102.121 18.72,101.024 L18.655,100.204 L18.606,99.24 L18.58,97.534 C18.564,96.401 18.548,95.272 18.532,94.147 C18.599,85.155 19.877,76.565 21.829,68.671 C23.782,60.768 26.402,53.548 29.226,47.096 C29.963,45.496 30.612,43.898 31.378,42.398 C32.133,40.894 32.87,39.425 33.588,37.993 C34.337,36.577 35.116,35.224 35.845,33.896 C36.562,32.561 37.322,31.301 38.075,30.09 C38.823,28.878 39.525,27.691 40.243,26.571 C40.981,25.465 41.694,24.399 42.378,23.374 C43.709,21.302 45.119,19.526 46.296,17.86 C48.768,14.602 55.8112816,8.11207952 55.8112816,8.11207952 C55.8112816,8.11207952 51.428,16.622 49.188,19.908 Z" mask="url(#d)"/>
      </g>
      <path fill="#F0DA51" stroke="#0A2D4B" stroke-width="2" d="M80.0226667 196.831C80.0226667 199.04 78.2316667 200.831 76.0226667 200.831 73.8136667 200.831 72.0226667 199.04 72.0226667 196.831 72.0226667 194.622 73.8136667 192.831 76.0226667 192.831 78.2316667 192.831 80.0226667 194.622 80.0226667 196.831M52 260.456C52 262.665 50.209 264.456 48 264.456 45.791 264.456 44 262.665 44 260.456 44 258.247 45.791 256.456 48 256.456 50.209 256.456 52 258.247 52 260.456M62.2886667 101.052C62.2886667 106.33 58.0106667 110.607 52.7336667 110.607 47.4566667 110.607 43.1786667 106.33 43.1786667 101.052 43.1786667 95.776 47.4566667 91.498 52.7336667 91.498 58.0106667 91.498 62.2886667 95.776 62.2886667 101.052M57.4096667 133.948C57.4096667 137.877 54.2236667 141.063 50.2936667 141.063 46.3646667 141.063 43.1786667 137.877 43.1786667 133.948 43.1786667 130.018 46.3646667 126.832 50.2936667 126.832 54.2236667 126.832 57.4096667 130.018 57.4096667 133.948M57.231 235.116C57.231 239.045 54.045 242.231 50.115 242.231 46.186 242.231 43 239.045 43 235.116 43 231.186 46.186 228 50.115 228 54.045 228 57.231 231.186 57.231 235.116M74.5716667 167.625C74.5716667 172.593 70.5446667 176.621 65.5766667 176.621 60.6086667 176.621 56.5806667 172.593 56.5806667 167.625 56.5806667 162.657 60.6086667 158.629 65.5766667 158.629 70.5446667 158.629 74.5716667 162.657 74.5716667 167.625M47 210C47 212.209 45.209 214 43 214 40.791 214 39 212.209 39 210 39 207.791 40.791 206 43 206 45.209 206 47 207.791 47 210M59.5766667 76.331C57.0916667 76.331 55.0766667 74.316 55.0766667 71.831 55.0766667 69.346 57.0916667 67.331 59.5766667 67.331 62.0616667 67.331 64.0766667 69.346 64.0766667 71.831 64.0766667 74.316 62.0616667 76.331 59.5766667 76.331"/>
    </g>
    <g transform="translate(236 316)">
      <path fill="#EC435B" stroke="#0A2D4B" stroke-width="4" d="M88.95,312.003 C102.837,280.587 111.856,229.877 111.856,172.656 C111.856,77.301 86.816,0 55.928,0 C25.04,0 0,77.301 0,172.656 C0,229.877 9.019,280.587 22.905,312.003 L88.95,312.003"/>
      <g transform="translate(0 74)">
        <mask id="f" fill="white">
          <use xlink:href="#e"/>
        </mask>
        <path fill="#F0DA51" stroke="#0A2D4B" stroke-width="2" d="M55.935,61.9082031 C82.08,61.9082031 105.272,70.1057455 119.74,82.7533335 C109.365,59.3378813 84.707,42.8668222 55.935,42.8668222 C27.163,42.8668222 2.504,59.3378813 -7.871,82.7533335 C6.598,70.1057455 29.789,61.9082031 55.935,61.9082031" mask="url(#f)"/>
        <path fill="#6ABD9C" stroke="#0A2D4B" stroke-width="2" d="M55.935,24.3816018 C80.324,24.3816018 101.958,35.7914062 115.455,53.3952508 C105.776,20.8039802 82.775,4.70681715 55.935,4.70681715 C29.095,4.70681715 6.093,20.8039802 -3.585,53.3952508 C9.912,35.7914062 31.546,24.3816018 55.935,24.3816018" mask="url(#f)"/>
        <path fill="#F0DA51" stroke="#0A2D4B" stroke-width="2" d="M55.935,101.129772 C29.789,101.129772 6.598,92.9322294 -7.871,80.285495 C2.504,103.700094 27.163,120.172006 55.935,120.172006 C84.707,120.172006 109.365,103.700094 119.74,80.285495 C105.272,92.9322294 82.08,101.129772 55.935,101.129772" mask="url(#f)"/>
        <path fill="#6ABD9C" stroke="#0A2D4B" stroke-width="2" d="M55.935,138.657227 C31.545,138.657227 9.911,127.247422 -3.585,109.643578 C6.093,142.234848 29.095,158.332011 55.935,158.332011 C82.774,158.332011 105.776,142.234848 115.455,109.643578 C101.958,127.247422 80.324,138.657227 55.935,138.657227" mask="url(#f)"/>
      </g>
      <path stroke="#0A2D4B" stroke-width="4" d="M89.2903333,312.175 C103.177333,280.759 112.196333,230.049 112.196333,172.828 C112.196333,77.473 87.1563333,0.172 56.2683333,0.172 C25.3803333,0.172 0.340333333,77.473 0.340333333,172.828 C0.340333333,230.049 9.35933333,280.759 23.2453333,312.175 L89.2903333,312.175"/>
    </g>
    <g stroke="#0A2D4B" stroke-width="4" transform="translate(121 626)" stroke-linecap="square">
      <path d="M0 2L500 2M520 2L530 2M550 2L558 2"/>
    </g>
  </g>
</svg>
