<svg xmlns="http://www.w3.org/2000/svg" width="800" height="800" viewBox="0 0 800 800" xmlns:xlink="http://www.w3.org/1999/xlink">
  <defs>
    <path id="a" d="M207.98441,260.263848 C207.98441,260.263848 209.905,248.542261 200.17375,246.687791 C190.44375,244.830817 177.97125,245.213983 157.08125,242.049739 C145.4,240.279165 121.3975,224.878678 116.99625,204.92153 C112.595,184.96313 125.55,11.3642435 125.55,11.3642435 C125.55,11.3642435 53.265,-4.87394783 2.76125,10.4489043 C2.76125,10.4489043 3.6925,60.1138783 5.085,86.1065043 C6.4775,112.09913 10.18875,152.481739 16.6775,176.152835 C23.1675,199.82393 23.17,219.319026 20.39,226.74567 C17.61,234.172313 13.4425,254.596522 18.07625,263.415583 C18.07625,263.415583 19.67375,263.415583 22.33375,263.439374 C32.38375,263.535791 57.805,263.994087 71.36375,266.195409 C88.50625,268.978991 119.10625,278.331478 141.79375,279.182957 C170.3475,280.258574 207.98441,260.263848 207.98441,260.263848 Z"/>
    <rect id="c" width="129" height="53" rx="4"/>
  </defs>
  <g fill="none" fill-rule="evenodd">
    <rect width="400" height="800" fill="#F6A623"/>
    <rect width="400" height="800" x="400" fill="#4990E2"/>
    <g stroke="#0A2D4B" stroke-width="4" transform="translate(121 625)" stroke-linecap="square">
      <path d="M0 4L500 4M520 2L530 2M550 2L558 2"/>
    </g>
    <g transform="translate(339 340)">
      <path fill="#0A2D4B" stroke="#0A2D4B" stroke-width="4" d="M141.41375,279.182957 C118.72625,278.331478 88.3175,268.978991 71.17375,266.195409 C57.61625,263.994087 32.28875,263.535791 22.2375,263.439374 L17.17625,263.530783 L17.17625,288.462818 C17.17625,288.462818 45.2122264,288.462817 68.89625,287.547478 L73.095,272.462539 C73.095,272.462539 104.5475,279.884174 117.88125,281.276591 L119.44125,286.355409 C119.44125,286.355409 133.63125,289.426991 151.94375,288.462817 C187.15875,286.607096 208.04,268.037357 208.04,268.037357 L208.040004,260.34883 C198.587504,266.44316 169.96625,280.258574 141.41375,279.182957 Z"/>
      <mask id="b" fill="white">
        <use xlink:href="#a"/>
      </mask>
      <use fill="#F6A623" stroke="#0A2D4B" stroke-width="4" xlink:href="#a"/>
      <g fill="#4990E2" transform="rotate(-29 145.526 249.284)" mask="url(#b)">
        <ellipse cx="8.995" cy="204.371" rx="8.995" ry="9.003"/>
        <ellipse cx="33.73" cy="204.821" rx="6.746" ry="6.752"/>
        <ellipse cx="58.466" cy="204.371" rx="8.995" ry="9.003"/>
        <ellipse cx="83.201" cy="204.821" rx="6.746" ry="6.752"/>
        <ellipse cx="107.937" cy="204.371" rx="8.995" ry="9.003"/>
        <ellipse cx="132.672" cy="204.821" rx="6.746" ry="6.752"/>
        <ellipse cx="133.122" cy="229.579" rx="8.995" ry="9.003"/>
        <ellipse cx="8.545" cy="230.03" rx="6.746" ry="6.752"/>
        <ellipse cx="33.28" cy="229.579" rx="8.995" ry="9.003"/>
        <ellipse cx="58.016" cy="230.03" rx="6.746" ry="6.752"/>
        <ellipse cx="82.751" cy="229.579" rx="8.995" ry="9.003"/>
        <ellipse cx="107.487" cy="230.03" rx="6.746" ry="6.752"/>
        <ellipse cx="8.995" cy="254.788" rx="8.995" ry="9.003"/>
        <ellipse cx="33.73" cy="255.238" rx="6.746" ry="6.752"/>
        <ellipse cx="58.466" cy="254.788" rx="8.995" ry="9.003"/>
        <ellipse cx="83.201" cy="255.238" rx="6.746" ry="6.752"/>
        <ellipse cx="107.937" cy="254.788" rx="8.995" ry="9.003"/>
        <ellipse cx="132.672" cy="255.238" rx="6.746" ry="6.752"/>
        <ellipse cx="133.122" cy="279.997" rx="8.995" ry="9.003"/>
        <ellipse cx="8.545" cy="280.447" rx="6.746" ry="6.752"/>
        <ellipse cx="33.28" cy="279.997" rx="8.995" ry="9.003"/>
        <ellipse cx="58.016" cy="280.447" rx="6.746" ry="6.752"/>
        <ellipse cx="82.751" cy="279.997" rx="8.995" ry="9.003"/>
        <ellipse cx="107.487" cy="280.447" rx="6.746" ry="6.752"/>
        <ellipse cx="8.995" cy="106.237" rx="8.995" ry="9.003"/>
        <ellipse cx="33.73" cy="106.687" rx="6.746" ry="6.752"/>
        <ellipse cx="58.466" cy="106.237" rx="8.995" ry="9.003"/>
        <ellipse cx="83.201" cy="106.687" rx="6.746" ry="6.752"/>
        <ellipse cx="107.937" cy="106.237" rx="8.995" ry="9.003"/>
        <ellipse cx="132.672" cy="106.687" rx="6.746" ry="6.752"/>
        <ellipse cx="133.122" cy="131.445" rx="8.995" ry="9.003"/>
        <ellipse cx="8.545" cy="131.896" rx="6.746" ry="6.752"/>
        <ellipse cx="33.28" cy="131.445" rx="8.995" ry="9.003"/>
        <ellipse cx="58.016" cy="131.896" rx="6.746" ry="6.752"/>
        <ellipse cx="82.751" cy="131.445" rx="8.995" ry="9.003"/>
        <ellipse cx="107.487" cy="131.896" rx="6.746" ry="6.752"/>
        <ellipse cx="8.995" cy="156.654" rx="8.995" ry="9.003"/>
        <ellipse cx="33.73" cy="157.104" rx="6.746" ry="6.752"/>
        <ellipse cx="58.466" cy="156.654" rx="8.995" ry="9.003"/>
        <ellipse cx="83.201" cy="157.104" rx="6.746" ry="6.752"/>
        <ellipse cx="107.937" cy="156.654" rx="8.995" ry="9.003"/>
        <ellipse cx="132.672" cy="157.104" rx="6.746" ry="6.752"/>
        <ellipse cx="133.122" cy="181.863" rx="8.995" ry="9.003"/>
        <ellipse cx="8.545" cy="182.313" rx="6.746" ry="6.752"/>
        <ellipse cx="33.28" cy="181.863" rx="8.995" ry="9.003"/>
        <ellipse cx="58.016" cy="182.313" rx="6.746" ry="6.752"/>
        <ellipse cx="82.751" cy="181.863" rx="8.995" ry="9.003"/>
        <ellipse cx="107.487" cy="182.313" rx="6.746" ry="6.752"/>
        <ellipse cx="157.407" cy="204.371" rx="8.995" ry="9.003"/>
        <ellipse cx="182.143" cy="204.821" rx="6.746" ry="6.752"/>
        <ellipse cx="206.878" cy="204.371" rx="8.995" ry="9.003"/>
        <ellipse cx="156.958" cy="230.03" rx="6.746" ry="6.752"/>
        <ellipse cx="181.693" cy="229.579" rx="8.995" ry="9.003"/>
        <ellipse cx="206.429" cy="230.03" rx="6.746" ry="6.752"/>
        <ellipse cx="157.407" cy="254.788" rx="8.995" ry="9.003"/>
        <ellipse cx="182.143" cy="255.238" rx="6.746" ry="6.752"/>
        <ellipse cx="206.878" cy="254.788" rx="8.995" ry="9.003"/>
        <ellipse cx="156.958" cy="280.447" rx="6.746" ry="6.752"/>
        <ellipse cx="181.693" cy="279.997" rx="8.995" ry="9.003"/>
        <ellipse cx="206.429" cy="280.447" rx="6.746" ry="6.752"/>
        <ellipse cx="157.407" cy="106.237" rx="8.995" ry="9.003"/>
        <ellipse cx="182.143" cy="106.687" rx="6.746" ry="6.752"/>
        <ellipse cx="206.878" cy="106.237" rx="8.995" ry="9.003"/>
        <ellipse cx="156.958" cy="131.896" rx="6.746" ry="6.752"/>
        <ellipse cx="181.693" cy="131.445" rx="8.995" ry="9.003"/>
        <ellipse cx="206.429" cy="131.896" rx="6.746" ry="6.752"/>
        <ellipse cx="157.407" cy="156.654" rx="8.995" ry="9.003"/>
        <ellipse cx="182.143" cy="157.104" rx="6.746" ry="6.752"/>
        <ellipse cx="206.878" cy="156.654" rx="8.995" ry="9.003"/>
        <ellipse cx="156.958" cy="182.313" rx="6.746" ry="6.752"/>
        <ellipse cx="181.693" cy="181.863" rx="8.995" ry="9.003"/>
        <ellipse cx="206.429" cy="182.313" rx="6.746" ry="6.752"/>
        <ellipse cx="231.614" cy="204.821" rx="6.746" ry="6.752"/>
        <ellipse cx="232.063" cy="229.579" rx="8.995" ry="9.003"/>
        <ellipse cx="231.614" cy="255.238" rx="6.746" ry="6.752"/>
        <ellipse cx="232.063" cy="279.997" rx="8.995" ry="9.003"/>
        <ellipse cx="231.614" cy="106.687" rx="6.746" ry="6.752"/>
        <ellipse cx="232.063" cy="131.445" rx="8.995" ry="9.003"/>
        <ellipse cx="231.614" cy="157.104" rx="6.746" ry="6.752"/>
        <ellipse cx="232.063" cy="181.863" rx="8.995" ry="9.003"/>
        <ellipse cx="256.349" cy="204.371" rx="8.995" ry="9.003"/>
        <ellipse cx="281.085" cy="204.821" rx="6.746" ry="6.752"/>
        <ellipse cx="305.82" cy="204.371" rx="8.995" ry="9.003"/>
        <ellipse cx="255.899" cy="230.03" rx="6.746" ry="6.752"/>
        <ellipse cx="280.635" cy="229.579" rx="8.995" ry="9.003"/>
        <ellipse cx="305.37" cy="230.03" rx="6.746" ry="6.752"/>
        <ellipse cx="256.349" cy="254.788" rx="8.995" ry="9.003"/>
        <ellipse cx="281.085" cy="255.238" rx="6.746" ry="6.752"/>
        <ellipse cx="305.82" cy="254.788" rx="8.995" ry="9.003"/>
        <ellipse cx="255.899" cy="280.447" rx="6.746" ry="6.752"/>
        <ellipse cx="280.635" cy="279.997" rx="8.995" ry="9.003"/>
        <ellipse cx="305.37" cy="280.447" rx="6.746" ry="6.752"/>
        <ellipse cx="256.349" cy="106.237" rx="8.995" ry="9.003"/>
        <ellipse cx="281.085" cy="106.687" rx="6.746" ry="6.752"/>
        <ellipse cx="305.82" cy="106.237" rx="8.995" ry="9.003"/>
        <ellipse cx="255.899" cy="131.896" rx="6.746" ry="6.752"/>
        <ellipse cx="280.635" cy="131.445" rx="8.995" ry="9.003"/>
        <ellipse cx="305.37" cy="131.896" rx="6.746" ry="6.752"/>
        <ellipse cx="256.349" cy="156.654" rx="8.995" ry="9.003"/>
        <ellipse cx="281.085" cy="157.104" rx="6.746" ry="6.752"/>
        <ellipse cx="305.82" cy="156.654" rx="8.995" ry="9.003"/>
        <ellipse cx="255.899" cy="182.313" rx="6.746" ry="6.752"/>
        <ellipse cx="280.635" cy="181.863" rx="8.995" ry="9.003"/>
        <ellipse cx="305.37" cy="182.313" rx="6.746" ry="6.752"/>
        <ellipse cx="330.556" cy="204.821" rx="6.746" ry="6.752"/>
        <ellipse cx="331.005" cy="229.579" rx="8.995" ry="9.003"/>
        <ellipse cx="330.556" cy="255.238" rx="6.746" ry="6.752"/>
        <ellipse cx="331.005" cy="279.997" rx="8.995" ry="9.003"/>
        <ellipse cx="330.556" cy="106.687" rx="6.746" ry="6.752"/>
        <ellipse cx="331.005" cy="131.445" rx="8.995" ry="9.003"/>
        <ellipse cx="330.556" cy="157.104" rx="6.746" ry="6.752"/>
        <ellipse cx="331.005" cy="181.863" rx="8.995" ry="9.003"/>
        <ellipse cx="133.122" cy="31.511" rx="8.995" ry="9.003"/>
        <ellipse cx="8.545" cy="31.961" rx="6.746" ry="6.752"/>
        <ellipse cx="33.28" cy="31.511" rx="8.995" ry="9.003"/>
        <ellipse cx="58.016" cy="31.961" rx="6.746" ry="6.752"/>
        <ellipse cx="82.751" cy="31.511" rx="8.995" ry="9.003"/>
        <ellipse cx="107.487" cy="31.961" rx="6.746" ry="6.752"/>
        <ellipse cx="8.995" cy="56.72" rx="8.995" ry="9.003"/>
        <ellipse cx="33.73" cy="57.17" rx="6.746" ry="6.752"/>
        <ellipse cx="58.466" cy="56.72" rx="8.995" ry="9.003"/>
        <ellipse cx="83.201" cy="57.17" rx="6.746" ry="6.752"/>
        <ellipse cx="107.937" cy="56.72" rx="8.995" ry="9.003"/>
        <ellipse cx="132.672" cy="57.17" rx="6.746" ry="6.752"/>
        <ellipse cx="133.122" cy="81.928" rx="8.995" ry="9.003"/>
        <ellipse cx="8.545" cy="82.379" rx="6.746" ry="6.752"/>
        <ellipse cx="33.28" cy="81.928" rx="8.995" ry="9.003"/>
        <ellipse cx="58.016" cy="82.379" rx="6.746" ry="6.752"/>
        <ellipse cx="82.751" cy="81.928" rx="8.995" ry="9.003"/>
        <ellipse cx="107.487" cy="82.379" rx="6.746" ry="6.752"/>
        <ellipse cx="156.958" cy="31.961" rx="6.746" ry="6.752"/>
        <ellipse cx="181.693" cy="31.511" rx="8.995" ry="9.003"/>
        <ellipse cx="206.429" cy="31.961" rx="6.746" ry="6.752"/>
        <ellipse cx="157.407" cy="56.72" rx="8.995" ry="9.003"/>
        <ellipse cx="182.143" cy="57.17" rx="6.746" ry="6.752"/>
        <ellipse cx="206.878" cy="56.72" rx="8.995" ry="9.003"/>
        <ellipse cx="156.958" cy="82.379" rx="6.746" ry="6.752"/>
        <ellipse cx="181.693" cy="81.928" rx="8.995" ry="9.003"/>
        <ellipse cx="206.429" cy="82.379" rx="6.746" ry="6.752"/>
        <ellipse cx="232.063" cy="31.511" rx="8.995" ry="9.003"/>
        <ellipse cx="231.614" cy="57.17" rx="6.746" ry="6.752"/>
        <ellipse cx="232.063" cy="81.928" rx="8.995" ry="9.003"/>
        <ellipse cx="255.899" cy="31.961" rx="6.746" ry="6.752"/>
        <ellipse cx="280.635" cy="31.511" rx="8.995" ry="9.003"/>
        <ellipse cx="305.37" cy="31.961" rx="6.746" ry="6.752"/>
        <ellipse cx="256.349" cy="56.72" rx="8.995" ry="9.003"/>
        <ellipse cx="281.085" cy="57.17" rx="6.746" ry="6.752"/>
        <ellipse cx="305.82" cy="56.72" rx="8.995" ry="9.003"/>
        <ellipse cx="255.899" cy="82.379" rx="6.746" ry="6.752"/>
        <ellipse cx="280.635" cy="81.928" rx="8.995" ry="9.003"/>
        <ellipse cx="305.37" cy="82.379" rx="6.746" ry="6.752"/>
        <ellipse cx="331.005" cy="31.511" rx="8.995" ry="9.003"/>
        <ellipse cx="330.556" cy="57.17" rx="6.746" ry="6.752"/>
        <ellipse cx="331.005" cy="81.928" rx="8.995" ry="9.003"/>
        <ellipse cx="33.73" cy="6.752" rx="6.746" ry="6.752"/>
        <ellipse cx="83.201" cy="6.752" rx="6.746" ry="6.752"/>
        <ellipse cx="132.672" cy="6.752" rx="6.746" ry="6.752"/>
        <ellipse cx="182.143" cy="6.752" rx="6.746" ry="6.752"/>
        <ellipse cx="231.614" cy="6.752" rx="6.746" ry="6.752"/>
        <ellipse cx="281.085" cy="6.752" rx="6.746" ry="6.752"/>
        <ellipse cx="330.556" cy="6.752" rx="6.746" ry="6.752"/>
      </g>
      <path stroke="#0A2D4B" stroke-width="4" d="M207.98441,260.263848 C207.98441,260.263848 209.905,248.542261 200.17375,246.687791 C190.44375,244.830817 177.97125,245.213983 157.08125,242.049739 C145.4,240.279165 121.3975,224.878678 116.99625,204.92153 C112.595,184.96313 125.55,11.3642435 125.55,11.3642435 C125.55,11.3642435 53.265,-4.87394783 2.76125,10.4489043 C2.76125,10.4489043 3.6925,60.1138783 5.085,86.1065043 C6.4775,112.09913 10.18875,152.481739 16.6775,176.152835 C23.1675,199.82393 23.17,219.319026 20.39,226.74567 C17.61,234.172313 13.4425,254.596522 18.07625,263.415583 C18.07625,263.415583 19.67375,263.415583 22.33375,263.439374 C32.38375,263.535791 57.805,263.994087 71.36375,266.195409 C88.50625,268.978991 119.10625,278.331478 141.79375,279.182957 C170.3475,280.258574 207.98441,260.263848 207.98441,260.263848 Z"/>
      <mask id="d" fill="white">
        <use xlink:href="#c"/>
      </mask>
      <use fill="#4990E2" stroke="#0A2D4B" stroke-width="4" xlink:href="#c"/>
      <g fill="#F6A623" transform="rotate(43 294.6 17.133)" mask="url(#d)">
        <ellipse cx="9.172" cy="204.416" rx="8.995" ry="9.003"/>
        <ellipse cx="33.907" cy="204.867" rx="6.746" ry="6.752"/>
        <ellipse cx="58.643" cy="204.416" rx="8.995" ry="9.003"/>
        <ellipse cx="83.378" cy="204.867" rx="6.746" ry="6.752"/>
        <ellipse cx="108.114" cy="204.416" rx="8.995" ry="9.003"/>
        <ellipse cx="132.849" cy="204.867" rx="6.746" ry="6.752"/>
        <ellipse cx="133.299" cy="229.625" rx="8.995" ry="9.003"/>
        <ellipse cx="8.722" cy="230.075" rx="6.746" ry="6.752"/>
        <ellipse cx="33.458" cy="229.625" rx="8.995" ry="9.003"/>
        <ellipse cx="58.193" cy="230.075" rx="6.746" ry="6.752"/>
        <ellipse cx="82.928" cy="229.625" rx="8.995" ry="9.003"/>
        <ellipse cx="107.664" cy="230.075" rx="6.746" ry="6.752"/>
        <ellipse cx="9.172" cy="254.834" rx="8.995" ry="9.003"/>
        <ellipse cx="33.907" cy="255.284" rx="6.746" ry="6.752"/>
        <ellipse cx="58.643" cy="254.834" rx="8.995" ry="9.003"/>
        <ellipse cx="83.378" cy="255.284" rx="6.746" ry="6.752"/>
        <ellipse cx="108.114" cy="254.834" rx="8.995" ry="9.003"/>
        <ellipse cx="132.849" cy="255.284" rx="6.746" ry="6.752"/>
        <ellipse cx="133.299" cy="280.043" rx="8.995" ry="9.003"/>
        <ellipse cx="8.722" cy="280.493" rx="6.746" ry="6.752"/>
        <ellipse cx="33.458" cy="280.043" rx="8.995" ry="9.003"/>
        <ellipse cx="58.193" cy="280.493" rx="6.746" ry="6.752"/>
        <ellipse cx="82.928" cy="280.043" rx="8.995" ry="9.003"/>
        <ellipse cx="107.664" cy="280.493" rx="6.746" ry="6.752"/>
        <ellipse cx="9.172" cy="106.282" rx="8.995" ry="9.003"/>
        <ellipse cx="33.907" cy="106.733" rx="6.746" ry="6.752"/>
        <ellipse cx="58.643" cy="106.282" rx="8.995" ry="9.003"/>
        <ellipse cx="83.378" cy="106.733" rx="6.746" ry="6.752"/>
        <ellipse cx="108.114" cy="106.282" rx="8.995" ry="9.003"/>
        <ellipse cx="132.849" cy="106.733" rx="6.746" ry="6.752"/>
        <ellipse cx="133.299" cy="131.491" rx="8.995" ry="9.003"/>
        <ellipse cx="8.722" cy="131.941" rx="6.746" ry="6.752"/>
        <ellipse cx="33.458" cy="131.491" rx="8.995" ry="9.003"/>
        <ellipse cx="58.193" cy="131.941" rx="6.746" ry="6.752"/>
        <ellipse cx="82.928" cy="131.491" rx="8.995" ry="9.003"/>
        <ellipse cx="107.664" cy="131.941" rx="6.746" ry="6.752"/>
        <ellipse cx="9.172" cy="156.7" rx="8.995" ry="9.003"/>
        <ellipse cx="33.907" cy="157.15" rx="6.746" ry="6.752"/>
        <ellipse cx="58.643" cy="156.7" rx="8.995" ry="9.003"/>
        <ellipse cx="83.378" cy="157.15" rx="6.746" ry="6.752"/>
        <ellipse cx="108.114" cy="156.7" rx="8.995" ry="9.003"/>
        <ellipse cx="132.849" cy="157.15" rx="6.746" ry="6.752"/>
        <ellipse cx="133.299" cy="181.909" rx="8.995" ry="9.003"/>
        <ellipse cx="8.722" cy="182.359" rx="6.746" ry="6.752"/>
        <ellipse cx="33.458" cy="181.909" rx="8.995" ry="9.003"/>
        <ellipse cx="58.193" cy="182.359" rx="6.746" ry="6.752"/>
        <ellipse cx="82.928" cy="181.909" rx="8.995" ry="9.003"/>
        <ellipse cx="107.664" cy="182.359" rx="6.746" ry="6.752"/>
        <ellipse cx="157.585" cy="204.416" rx="8.995" ry="9.003"/>
        <ellipse cx="182.32" cy="204.867" rx="6.746" ry="6.752"/>
        <ellipse cx="207.055" cy="204.416" rx="8.995" ry="9.003"/>
        <ellipse cx="157.135" cy="230.075" rx="6.746" ry="6.752"/>
        <ellipse cx="181.87" cy="229.625" rx="8.995" ry="9.003"/>
        <ellipse cx="206.606" cy="230.075" rx="6.746" ry="6.752"/>
        <ellipse cx="157.585" cy="254.834" rx="8.995" ry="9.003"/>
        <ellipse cx="182.32" cy="255.284" rx="6.746" ry="6.752"/>
        <ellipse cx="207.055" cy="254.834" rx="8.995" ry="9.003"/>
        <ellipse cx="157.135" cy="280.493" rx="6.746" ry="6.752"/>
        <ellipse cx="181.87" cy="280.043" rx="8.995" ry="9.003"/>
        <ellipse cx="206.606" cy="280.493" rx="6.746" ry="6.752"/>
        <ellipse cx="157.585" cy="106.282" rx="8.995" ry="9.003"/>
        <ellipse cx="182.32" cy="106.733" rx="6.746" ry="6.752"/>
        <ellipse cx="207.055" cy="106.282" rx="8.995" ry="9.003"/>
        <ellipse cx="157.135" cy="131.941" rx="6.746" ry="6.752"/>
        <ellipse cx="181.87" cy="131.491" rx="8.995" ry="9.003"/>
        <ellipse cx="206.606" cy="131.941" rx="6.746" ry="6.752"/>
        <ellipse cx="157.585" cy="156.7" rx="8.995" ry="9.003"/>
        <ellipse cx="182.32" cy="157.15" rx="6.746" ry="6.752"/>
        <ellipse cx="207.055" cy="156.7" rx="8.995" ry="9.003"/>
        <ellipse cx="157.135" cy="182.359" rx="6.746" ry="6.752"/>
        <ellipse cx="181.87" cy="181.909" rx="8.995" ry="9.003"/>
        <ellipse cx="206.606" cy="182.359" rx="6.746" ry="6.752"/>
        <ellipse cx="231.791" cy="204.867" rx="6.746" ry="6.752"/>
        <ellipse cx="232.241" cy="229.625" rx="8.995" ry="9.003"/>
        <ellipse cx="231.791" cy="255.284" rx="6.746" ry="6.752"/>
        <ellipse cx="232.241" cy="280.043" rx="8.995" ry="9.003"/>
        <ellipse cx="231.791" cy="106.733" rx="6.746" ry="6.752"/>
        <ellipse cx="232.241" cy="131.491" rx="8.995" ry="9.003"/>
        <ellipse cx="231.791" cy="157.15" rx="6.746" ry="6.752"/>
        <ellipse cx="232.241" cy="181.909" rx="8.995" ry="9.003"/>
        <ellipse cx="256.526" cy="204.416" rx="8.995" ry="9.003"/>
        <ellipse cx="281.262" cy="204.867" rx="6.746" ry="6.752"/>
        <ellipse cx="305.997" cy="204.416" rx="8.995" ry="9.003"/>
        <ellipse cx="256.077" cy="230.075" rx="6.746" ry="6.752"/>
        <ellipse cx="280.812" cy="229.625" rx="8.995" ry="9.003"/>
        <ellipse cx="305.548" cy="230.075" rx="6.746" ry="6.752"/>
        <ellipse cx="256.526" cy="254.834" rx="8.995" ry="9.003"/>
        <ellipse cx="281.262" cy="255.284" rx="6.746" ry="6.752"/>
        <ellipse cx="305.997" cy="254.834" rx="8.995" ry="9.003"/>
        <ellipse cx="256.077" cy="280.493" rx="6.746" ry="6.752"/>
        <ellipse cx="280.812" cy="280.043" rx="8.995" ry="9.003"/>
        <ellipse cx="305.548" cy="280.493" rx="6.746" ry="6.752"/>
        <ellipse cx="256.526" cy="106.282" rx="8.995" ry="9.003"/>
        <ellipse cx="281.262" cy="106.733" rx="6.746" ry="6.752"/>
        <ellipse cx="305.997" cy="106.282" rx="8.995" ry="9.003"/>
        <ellipse cx="256.077" cy="131.941" rx="6.746" ry="6.752"/>
        <ellipse cx="280.812" cy="131.491" rx="8.995" ry="9.003"/>
        <ellipse cx="305.548" cy="131.941" rx="6.746" ry="6.752"/>
        <ellipse cx="256.526" cy="156.7" rx="8.995" ry="9.003"/>
        <ellipse cx="281.262" cy="157.15" rx="6.746" ry="6.752"/>
        <ellipse cx="305.997" cy="156.7" rx="8.995" ry="9.003"/>
        <ellipse cx="256.077" cy="182.359" rx="6.746" ry="6.752"/>
        <ellipse cx="280.812" cy="181.909" rx="8.995" ry="9.003"/>
        <ellipse cx="305.548" cy="182.359" rx="6.746" ry="6.752"/>
        <ellipse cx="330.733" cy="204.867" rx="6.746" ry="6.752"/>
        <ellipse cx="331.182" cy="229.625" rx="8.995" ry="9.003"/>
        <ellipse cx="330.733" cy="255.284" rx="6.746" ry="6.752"/>
        <ellipse cx="331.182" cy="280.043" rx="8.995" ry="9.003"/>
        <ellipse cx="330.733" cy="106.733" rx="6.746" ry="6.752"/>
        <ellipse cx="331.182" cy="131.491" rx="8.995" ry="9.003"/>
        <ellipse cx="330.733" cy="157.15" rx="6.746" ry="6.752"/>
        <ellipse cx="331.182" cy="181.909" rx="8.995" ry="9.003"/>
        <ellipse cx="133.299" cy="31.557" rx="8.995" ry="9.003"/>
        <ellipse cx="8.722" cy="32.007" rx="6.746" ry="6.752"/>
        <ellipse cx="33.458" cy="31.557" rx="8.995" ry="9.003"/>
        <ellipse cx="58.193" cy="32.007" rx="6.746" ry="6.752"/>
        <ellipse cx="82.928" cy="31.557" rx="8.995" ry="9.003"/>
        <ellipse cx="107.664" cy="32.007" rx="6.746" ry="6.752"/>
        <ellipse cx="9.172" cy="56.765" rx="8.995" ry="9.003"/>
        <ellipse cx="33.907" cy="57.215" rx="6.746" ry="6.752"/>
        <ellipse cx="58.643" cy="56.765" rx="8.995" ry="9.003"/>
        <ellipse cx="83.378" cy="57.215" rx="6.746" ry="6.752"/>
        <ellipse cx="108.114" cy="56.765" rx="8.995" ry="9.003"/>
        <ellipse cx="132.849" cy="57.215" rx="6.746" ry="6.752"/>
        <ellipse cx="133.299" cy="81.974" rx="8.995" ry="9.003"/>
        <ellipse cx="8.722" cy="82.424" rx="6.746" ry="6.752"/>
        <ellipse cx="33.458" cy="81.974" rx="8.995" ry="9.003"/>
        <ellipse cx="58.193" cy="82.424" rx="6.746" ry="6.752"/>
        <ellipse cx="82.928" cy="81.974" rx="8.995" ry="9.003"/>
        <ellipse cx="107.664" cy="82.424" rx="6.746" ry="6.752"/>
        <ellipse cx="157.135" cy="32.007" rx="6.746" ry="6.752"/>
        <ellipse cx="181.87" cy="31.557" rx="8.995" ry="9.003"/>
        <ellipse cx="206.606" cy="32.007" rx="6.746" ry="6.752"/>
        <ellipse cx="157.585" cy="56.765" rx="8.995" ry="9.003"/>
        <ellipse cx="182.32" cy="57.215" rx="6.746" ry="6.752"/>
        <ellipse cx="207.055" cy="56.765" rx="8.995" ry="9.003"/>
        <ellipse cx="157.135" cy="82.424" rx="6.746" ry="6.752"/>
        <ellipse cx="181.87" cy="81.974" rx="8.995" ry="9.003"/>
        <ellipse cx="206.606" cy="82.424" rx="6.746" ry="6.752"/>
        <ellipse cx="232.241" cy="31.557" rx="8.995" ry="9.003"/>
        <ellipse cx="231.791" cy="57.215" rx="6.746" ry="6.752"/>
        <ellipse cx="232.241" cy="81.974" rx="8.995" ry="9.003"/>
        <ellipse cx="256.077" cy="32.007" rx="6.746" ry="6.752"/>
        <ellipse cx="280.812" cy="31.557" rx="8.995" ry="9.003"/>
        <ellipse cx="305.548" cy="32.007" rx="6.746" ry="6.752"/>
        <ellipse cx="256.526" cy="56.765" rx="8.995" ry="9.003"/>
        <ellipse cx="281.262" cy="57.215" rx="6.746" ry="6.752"/>
        <ellipse cx="305.997" cy="56.765" rx="8.995" ry="9.003"/>
        <ellipse cx="256.077" cy="82.424" rx="6.746" ry="6.752"/>
        <ellipse cx="280.812" cy="81.974" rx="8.995" ry="9.003"/>
        <ellipse cx="305.548" cy="82.424" rx="6.746" ry="6.752"/>
        <ellipse cx="331.182" cy="31.557" rx="8.995" ry="9.003"/>
        <ellipse cx="330.733" cy="57.215" rx="6.746" ry="6.752"/>
        <ellipse cx="331.182" cy="81.974" rx="8.995" ry="9.003"/>
        <ellipse cx="33.907" cy="6.798" rx="6.746" ry="6.752"/>
        <ellipse cx="83.378" cy="6.798" rx="6.746" ry="6.752"/>
        <ellipse cx="132.849" cy="6.798" rx="6.746" ry="6.752"/>
        <ellipse cx="182.32" cy="6.798" rx="6.746" ry="6.752"/>
        <ellipse cx="231.791" cy="6.798" rx="6.746" ry="6.752"/>
        <ellipse cx="281.262" cy="6.798" rx="6.746" ry="6.752"/>
        <ellipse cx="330.733" cy="6.798" rx="6.746" ry="6.752"/>
      </g>
      <rect width="129" height="53" stroke="#0A2D4B" stroke-width="4" rx="4"/>
    </g>
  </g>
</svg>
