<svg xmlns="http://www.w3.org/2000/svg" width="600" height="600" viewBox="0 0 600 600" xmlns:xlink="http://www.w3.org/1999/xlink" style="background:#fd9c62">
  <defs>
    <rect id="a" width="298" height="356"/>
    <path id="b" d="M75.7685634,207.654533 C75.7685634,202.317431 90,206.648209 90,206.648209 C96.9485072,202.553386 103.847659,198.487649 103.847659,198.487649 C103.847659,198.487649 112.066766,206.648209 119.340629,206.648209 C126.614492,206.648209 133.620468,198.487649 133.620468,198.487649 C133.620468,198.487649 139.964737,206.648209 147.45595,206.648209 C154.947162,206.648209 162.77343,198.487649 162.77343,198.487649 C162.77343,198.487649 170.642881,207.043082 178.252715,206.648209 C185.862548,206.253335 192.563141,196.941864 192.563141,196.941864 C192.563141,196.941864 204.000178,204.839168 210,206.648209 C215.999822,208.457249 224.754974,206.648208 224.754974,206.648208 L210,270.941864 L90,270.941864 C90,270.941864 75.7685634,223.748649 75.7685634,207.654533 Z"/>
    <rect id="c" width="16" height="32" x="28" y="30"/>
    <rect id="d" width="16" height="32" x="52" y="30"/>
    <rect id="e" width="16" height="32" x="78" y="30"/>
  </defs>
  <g fill="none" fill-rule="evenodd" transform="translate(151 122)">
    <use fill="#3E8182" xlink:href="#a"/>
    <rect width="290" height="348" x="4" y="4" stroke="#0A2D4B" stroke-width="8"/>
    <circle cx="150" cy="206" r="60" fill="#FFFFFF" stroke="#0A2D4B" stroke-width="4"/>
    <use fill="#0A2D4B" xlink:href="#b"/>
    <path stroke="#0A2D4B" stroke-width="4" d="M103.582477,200.965376 C103.69455,201.064367 103.812758,201.16775 103.936909,201.275172 C105.094757,202.277003 106.370645,203.278031 107.732488,204.215394 C110.753454,206.294736 113.760954,207.769484 116.668455,208.364992 C117.578302,208.551345 118.469765,208.648209 119.340629,208.648209 C123.049886,208.648209 126.782619,206.948059 130.425204,204.15507 C131.557268,203.287048 132.607938,202.365492 133.56025,201.438611 C134.43607,202.354831 135.410225,203.264795 136.4713,204.122979 C139.947329,206.934346 143.63967,208.648209 147.45595,208.648209 C147.817975,208.648209 148.182829,208.632248 148.550317,208.600786 C152.001068,208.305349 155.548163,206.690607 159.076523,204.202385 C160.401833,203.267768 161.634565,202.270118 162.747267,201.27106 C163.817796,202.266744 165.005951,203.260541 166.287155,204.192142 C170.019266,206.905867 173.793328,208.581834 177.481357,208.65879 C177.774743,208.664911 178.06645,208.660565 178.356355,208.645521 C182.167897,208.447741 185.878501,206.452661 189.42064,203.294257 C190.685698,202.166248 191.841722,200.962984 192.869452,199.758946 C192.906018,199.716107 192.941978,199.6738 192.977328,199.632039 C193.247051,199.810931 193.529536,199.997042 193.82364,200.18942 C195.651569,201.3851 197.556825,202.580949 199.446752,203.69932 C200.358225,204.238687 201.246002,204.747824 202.10439,205.221821 C205.012647,206.827744 207.479662,207.977222 209.422642,208.56306 C210.937276,209.019747 212.642763,209.287789 214.508114,209.396431 C216.974899,209.540102 219.57977,209.402744 222.144456,209.081945 L208.406995,268.941864 L91.4912088,268.941864 C91.4326294,268.743774 91.3712233,268.535663 91.3070846,268.31779 C90.8221839,266.67063 90.2817106,264.807829 89.6995766,262.767679 C88.0362537,256.938389 86.3729373,250.858319 84.8210408,244.834529 C84.0548104,241.860354 83.3338925,238.968668 82.6660443,236.180943 C79.5496413,223.172487 77.7685634,213.202553 77.7685634,207.654533 C77.7685634,207.431107 77.8512855,207.347702 78.4922681,207.182186 C79.4273968,206.940714 80.8747023,206.928835 82.6522597,207.136453 C83.8063923,207.271256 85.0494044,207.491074 86.3261889,207.772368 C87.1170148,207.946598 87.8715711,208.13347 88.5624486,208.320005 C88.9728476,208.430812 89.2668897,208.51567 89.4177419,208.561576 L90.2583849,208.817393 L91.0154153,208.371267 C96.2206263,205.303786 96.2206263,205.303786 100.544935,202.755429 C102.175839,201.794322 103.037054,201.286799 103.582477,200.965376 L103.582477,200.965376 Z"/>
    <path fill="#F9CF8E" stroke="#0A2D4B" stroke-width="4" d="M149,300 C96.5329488,300 54,257.467051 54,205 C54,152.532949 96.5329488,110 149,110 C201.467051,110 244,152.532949 244,205 C244,257.467051 201.467051,300 149,300 Z M150,266 C183.137085,266 210,239.137085 210,206 C210,172.862915 183.137085,146 150,146 C116.862915,146 90,172.862915 90,206 C90,239.137085 116.862915,266 150,266 Z"/>
    <circle cx="186" cy="46" r="20" fill="#F9CF8E" stroke="#0A2D4B" stroke-width="4"/>
    <circle cx="252" cy="46" r="20" fill="#F36450" stroke="#0A2D4B" stroke-width="4"/>
    <use fill="#F9CF8E" xlink:href="#c"/>
    <rect width="12" height="28" x="30" y="32" stroke="#0A2D4B" stroke-width="4"/>
    <g>
      <use fill="#FD9C62" xlink:href="#d"/>
      <rect width="12" height="28" x="54" y="32" stroke="#0A2D4B" stroke-width="4"/>
    </g>
    <g>
      <use fill="#F36450" xlink:href="#e"/>
      <rect width="12" height="28" x="80" y="32" stroke="#0A2D4B" stroke-width="4"/>
    </g>
    <path stroke="#0A2D4B" stroke-width="8" d="M5,86 L293.340088,86" stroke-linecap="square"/>
  </g>
</svg>
