<svg xmlns="http://www.w3.org/2000/svg" width="600" height="600" viewBox="0 0 600 600" xmlns:xlink="http://www.w3.org/1999/xlink" style="background:#fd9c62">
  <defs>
    <rect id="a" width="65" height="4" x="123" y="49" rx="2"/>
    <rect id="b" width="20" height="4" x="136" y="29" rx="2"/>
    <rect id="c" width="50" height="4" x="117" y="69" rx="2"/>
    <rect id="d" width="45" height="4" x="117" y="89" rx="2"/>
    <rect id="e" width="35" height="4" x="115" y="109" rx="2"/>
    <rect id="f" width="55" height="4" x="115" y="129" rx="2"/>
    <rect id="g" width="45" height="4" x="115" y="149" rx="2"/>
    <rect id="h" width="70" height="4" x="115" y="169" rx="2"/>
    <rect id="i" width="35" height="4" x="115" y="189" rx="2"/>
    <rect id="j" width="40" height="4" x="115" y="209" rx="2"/>
    <rect id="k" width="20" height="4" x="117" y="229" rx="2"/>
    <rect id="l" width="4" height="60" x="146" y="270" rx="2"/>
    <rect id="m" width="45" height="4" x="117" y="249" rx="2"/>
    <rect id="n" width="45" height="4" x="105" y="269" rx="2"/>
    <rect id="o" width="45" height="4" x="115" y="289" rx="2"/>
    <rect id="p" width="45" height="4" x="127" y="309" rx="2"/>
    <rect id="q" width="45" height="4" x="127" y="326" rx="2"/>
    <rect id="r" width="4" height="60" x="165" y="51" rx="2"/>
    <rect id="s" width="4" height="60" x="146" y="31" rx="2"/>
    <rect id="t" width="4" height="60" x="125" y="71" rx="2"/>
    <rect id="u" width="4" height="60" x="146" y="111" rx="2"/>
    <rect id="v" width="4" height="60" x="166" y="131" rx="2"/>
    <rect id="w" width="4" height="60" x="125" y="151" rx="2"/>
    <rect id="x" width="4" height="60" x="146" y="191" rx="2"/>
    <rect id="y" width="4" height="60" x="125" y="231" rx="2"/>
    <rect id="z" width="21" height="4" x="358" y="239" rx="2"/>
    <rect id="A" width="13" height="4" x="366" y="259" rx="2"/>
    <rect id="B" width="21" height="4" x="358" y="279" rx="2"/>
    <rect id="C" width="14" height="4" x="368" y="299" rx="2"/>
    <rect id="D" width="23" height="4" x="358" y="319" rx="2"/>
    <rect id="E" width="16" height="4" x="368" y="339" rx="2"/>
    <rect id="F" width="29" height="4" x="348" y="359" rx="2"/>
    <rect id="G" width="15" height="4" x="358" y="379" rx="2"/>
    <rect id="H" width="24" height="4" x="338" y="399" rx="2"/>
    <rect id="I" width="12" height="4" x="338" y="419" rx="2"/>
  </defs>
  <g fill="none" fill-rule="evenodd">
    <g transform="translate(133 110)">
      <path fill="#F9CF8E" stroke="#0A2D4B" stroke-width="6" d="M165.52414,344 C206.681702,344 217.02414,271.470129 217.02414,182 C217.02414,92.5298705 219.810074,20 165.52414,20 C111.238205,20 114.02414,92.5298705 114.02414,182 C114.02414,271.470129 124.366578,344 165.52414,344 Z"/>
      <g transform="matrix(-1 0 0 1 311 0)">
        <use fill="#3E8182" xlink:href="#a"/>
        <rect width="59" height="1" x="126" y="52" stroke="#0A2D4B" stroke-width="6" rx=".5"/>
      </g>
      <g transform="matrix(-1 0 0 1 292 0)">
        <use fill="#3E8182" xlink:href="#b"/>
        <rect width="14" height="1" x="139" y="32" stroke="#0A2D4B" stroke-width="6" rx=".5"/>
      </g>
      <g transform="matrix(-1 0 0 1 284 0)">
        <use fill="#3E8182" xlink:href="#c"/>
        <rect width="44" height="1" x="120" y="72" stroke="#0A2D4B" stroke-width="6" rx=".5"/>
      </g>
      <g transform="matrix(-1 0 0 1 279 0)">
        <use fill="#3E8182" xlink:href="#d"/>
        <rect width="39" height="1" x="120" y="92" stroke="#0A2D4B" stroke-width="6" rx=".5"/>
      </g>
      <g transform="matrix(-1 0 0 1 265 0)">
        <use fill="#3E8182" xlink:href="#e"/>
        <rect width="29" height="1" x="118" y="112" stroke="#0A2D4B" stroke-width="6" rx=".5"/>
      </g>
      <g transform="matrix(-1 0 0 1 285 0)">
        <use fill="#3E8182" xlink:href="#f"/>
        <rect width="49" height="1" x="118" y="132" stroke="#0A2D4B" stroke-width="6" rx=".5"/>
      </g>
      <g transform="matrix(-1 0 0 1 275 0)">
        <use fill="#3E8182" xlink:href="#g"/>
        <rect width="39" height="1" x="118" y="152" stroke="#0A2D4B" stroke-width="6" rx=".5"/>
      </g>
      <g transform="matrix(-1 0 0 1 300 0)">
        <use fill="#3E8182" xlink:href="#h"/>
        <rect width="64" height="1" x="118" y="172" stroke="#0A2D4B" stroke-width="6" rx=".5"/>
      </g>
      <g transform="matrix(-1 0 0 1 265 0)">
        <use fill="#3E8182" xlink:href="#i"/>
        <rect width="29" height="1" x="118" y="192" stroke="#0A2D4B" stroke-width="6" rx=".5"/>
      </g>
      <g transform="matrix(-1 0 0 1 270 0)">
        <use fill="#3E8182" xlink:href="#j"/>
        <rect width="34" height="1" x="118" y="212" stroke="#0A2D4B" stroke-width="6" rx=".5"/>
      </g>
      <g transform="matrix(-1 0 0 1 254 0)">
        <use fill="#3E8182" xlink:href="#k"/>
        <rect width="14" height="1" x="120" y="232" stroke="#0A2D4B" stroke-width="6" rx=".5"/>
      </g>
      <use fill="#3E8182" xlink:href="#l"/>
      <rect width="1" height="54" x="149" y="273" stroke="#0A2D4B" stroke-width="6" rx=".5"/>
      <g transform="matrix(-1 0 0 1 279 0)">
        <use fill="#3E8182" xlink:href="#m"/>
        <rect width="39" height="1" x="120" y="252" stroke="#0A2D4B" stroke-width="6" rx=".5"/>
      </g>
      <g transform="matrix(-1 0 0 1 255 0)">
        <use fill="#3E8182" xlink:href="#n"/>
        <rect width="39" height="1" x="108" y="272" stroke="#0A2D4B" stroke-width="6" rx=".5"/>
      </g>
      <g transform="matrix(-1 0 0 1 275 0)">
        <use fill="#3E8182" xlink:href="#o"/>
        <rect width="39" height="1" x="118" y="292" stroke="#0A2D4B" stroke-width="6" rx=".5"/>
      </g>
      <g transform="matrix(-1 0 0 1 299 0)">
        <use fill="#3E8182" xlink:href="#p"/>
        <rect width="39" height="1" x="130" y="312" stroke="#0A2D4B" stroke-width="6" rx=".5"/>
      </g>
      <g transform="matrix(-1 0 0 1 299 0)">
        <use fill="#3E8182" xlink:href="#q"/>
        <rect width="39" height="1" x="130" y="329" stroke="#0A2D4B" stroke-width="6" rx=".5"/>
      </g>
      <use fill="#3E8182" xlink:href="#r"/>
      <rect width="1" height="54" x="168" y="54" stroke="#0A2D4B" stroke-width="6" rx=".5"/>
      <use fill="#3E8182" xlink:href="#s"/>
      <rect width="1" height="54" x="149" y="34" stroke="#0A2D4B" stroke-width="6" rx=".5"/>
      <use fill="#3E8182" xlink:href="#t"/>
      <rect width="1" height="54" x="128" y="74" stroke="#0A2D4B" stroke-width="6" rx=".5"/>
      <use fill="#3E8182" xlink:href="#u"/>
      <rect width="1" height="54" x="149" y="114" stroke="#0A2D4B" stroke-width="6" rx=".5"/>
      <use fill="#3E8182" xlink:href="#v"/>
      <rect width="1" height="54" x="169" y="134" stroke="#0A2D4B" stroke-width="6" rx=".5"/>
      <g>
        <use fill="#3E8182" xlink:href="#w"/>
        <rect width="1" height="54" x="128" y="154" stroke="#0A2D4B" stroke-width="6" rx=".5"/>
      </g>
      <g>
        <use fill="#3E8182" xlink:href="#x"/>
        <rect width="1" height="54" x="149" y="194" stroke="#0A2D4B" stroke-width="6" rx=".5"/>
      </g>
      <g>
        <use fill="#3E8182" xlink:href="#y"/>
        <rect width="1" height="54" x="128" y="234" stroke="#0A2D4B" stroke-width="6" rx=".5"/>
      </g>
      <path fill="#3E8182" stroke="#0A2D4B" stroke-width="6" d="M61.5727173,237.056137 C79.2180618,253.973929 83.1029084,304.474529 100.647125,324.348539 C129.648958,357.201688 153.067668,347.33736 161.58591,347.33736 C172.259712,347.33736 123.331288,235.207235 100.647124,205.258278 C74.0347985,170.123134 1.60231821,163.892991 1.60231821,163.892991 C0.51097626,163.782287 0.138031199,164.419841 0.783220881,165.328197 C0.783220881,165.328197 28.9571779,205.7854 61.5727173,237.056137 Z"/>
      <path fill="#3E8182" stroke="#0A2D4B" stroke-width="6" d="M155.399795,343.716909 C167.765771,365.533773 250.059045,303.547247 250.059045,205.516704 C250.059045,107.486161 206.350812,1.37226817 206.350812,1.37226817 C205.940106,0.350358531 205.604385,0.418049428 205.597789,1.52034414 C205.597789,1.52034414 205.607164,82.4455668 193.094591,176.82574 C180.582019,271.205912 143.033819,321.900045 155.399795,343.716909 Z"/>
    </g>
    <g transform="matrix(-1 0 0 1 737 0)">
      <use fill="#3E8182" xlink:href="#z"/>
      <rect width="15" height="1" x="361" y="242" stroke="#0A2D4B" stroke-width="6" rx=".5"/>
    </g>
    <g transform="matrix(-1 0 0 1 745 0)">
      <use fill="#0A2D4B" xlink:href="#A"/>
      <rect width="7" height="1" x="369" y="262" stroke="#0A2D4B" stroke-width="6" rx=".5"/>
    </g>
    <g transform="matrix(-1 0 0 1 737 0)">
      <use fill="#3E8182" xlink:href="#B"/>
      <rect width="15" height="1" x="361" y="282" stroke="#0A2D4B" stroke-width="6" rx=".5"/>
    </g>
    <g transform="matrix(-1 0 0 1 750 0)">
      <use fill="#3E8182" xlink:href="#C"/>
      <rect width="8" height="1" x="371" y="302" stroke="#0A2D4B" stroke-width="6" rx=".5"/>
    </g>
    <g transform="matrix(-1 0 0 1 739 0)">
      <use fill="#3E8182" xlink:href="#D"/>
      <rect width="17" height="1" x="361" y="322" stroke="#0A2D4B" stroke-width="6" rx=".5"/>
    </g>
    <g transform="matrix(-1 0 0 1 752 0)">
      <use fill="#3E8182" xlink:href="#E"/>
      <rect width="10" height="1" x="371" y="342" stroke="#0A2D4B" stroke-width="6" rx=".5"/>
    </g>
    <g transform="matrix(-1 0 0 1 725 0)">
      <use fill="#3E8182" xlink:href="#F"/>
      <rect width="23" height="1" x="351" y="362" stroke="#0A2D4B" stroke-width="6" rx=".5"/>
    </g>
    <g transform="matrix(-1 0 0 1 731 0)">
      <use fill="#3E8182" xlink:href="#G"/>
      <rect width="9" height="1" x="361" y="382" stroke="#0A2D4B" stroke-width="6" rx=".5"/>
    </g>
    <g transform="matrix(-1 0 0 1 700 0)">
      <use fill="#3E8182" xlink:href="#H"/>
      <rect width="18" height="1" x="341" y="402" stroke="#0A2D4B" stroke-width="6" rx=".5"/>
    </g>
    <g transform="matrix(-1 0 0 1 688 0)">
      <use fill="#3E8182" xlink:href="#I"/>
      <rect width="6" height="1" x="341" y="422" stroke="#0A2D4B" stroke-width="6" rx=".5"/>
    </g>
  </g>
</svg>
