<svg xmlns="http://www.w3.org/2000/svg" width="800" height="800" viewBox="0 0 800 800" xmlns:xlink="http://www.w3.org/1999/xlink">
  <defs>
    <path id="a" d="M258.787571,460.053826 C258.787571,455.603562 262.388825,452.152473 266.838792,452.316192 C266.838792,452.316192 312.247346,454.640904 331.188587,449.964765 C342.414436,447.193372 370.505218,436.49385 377.444792,443.871329 C383.242434,450.034819 387.500489,470.276218 387.500489,470.276218 L260.809343,470.276218 C259.692749,470.276218 258.787571,469.369695 258.787571,468.267614 L258.787571,460.053826 Z"/>
    <path id="c" d="M217.734332,522.29972 C217.734332,500.470975 235.424687,482.775281 257.268754,482.775281 L296.168766,482.775281 C301.049541,482.775281 327.035685,494.941745 338.402692,515.273605 C348.540875,533.4075 344.451065,561.82494 344.451065,561.82494 L253.982644,560.492625 C233.963254,560.197802 217.734332,543.731563 217.734332,523.711789 L217.734332,522.29972 Z"/>
    <path id="e" d="M545.9529,558.166358 C575.052778,570.912659 598.635112,598.638445 600.098673,582.825132 C600.262109,581.05926 600.345637,579.270431 600.345637,577.462238 C600.345637,545.491777 574.233523,519.574598 542.022597,519.574598 C520.558817,519.574598 500.119259,529.936779 489.992957,547.075214 C487.644571,551.049781 520.846846,547.169428 545.9529,558.166358 Z"/>
  </defs>
  <g fill="none" fill-rule="evenodd">
    <rect width="400" height="800" fill="#4990E2"/>
    <rect width="400" height="800" x="400" fill="#F6A623"/>
    <g stroke="#0A2D4B" stroke-width="4" transform="translate(121 625)" stroke-linecap="square">
      <path d="M0 4L500 4M520 2L530 2M550 2L558 2"/>
    </g>
    <g stroke="#0A2D4B" transform="matrix(-1 0 0 1 602.412 531.523)">
      <path fill="#4990E2" stroke-width="4" d="M48.2673441,97.4949732 C74.9246622,97.4949732 96.5346883,75.66998 96.5346883,48.7474866 C96.5346883,21.8249932 74.9246622,0 48.2673441,0 C21.6100261,0 4.54747351e-13,21.8249932 4.54747351e-13,48.7474866 C4.54747351e-13,75.66998 21.6100261,97.4949732 48.2673441,97.4949732 Z"/>
      <ellipse cx="48.267" cy="48.747" fill="#FFFFFF" stroke-width="3" rx="26.145" ry="26.405"/>
      <ellipse cx="48.267" cy="48.747" fill="#F6A623" stroke-width="3" rx="10.056" ry="10.156"/>
    </g>
    <g stroke="#0A2D4B" transform="matrix(-1 0 0 1 311.077 531.523)">
      <path fill="#F6A623" stroke-width="4" d="M48.2673441,97.4949732 C74.9246622,97.4949732 96.5346883,75.66998 96.5346883,48.7474866 C96.5346883,21.8249932 74.9246622,0 48.2673441,0 C21.6100261,0 0,21.8249932 0,48.7474866 C0,75.66998 21.6100261,97.4949732 48.2673441,97.4949732 Z"/>
      <ellipse cx="48.267" cy="48.747" fill="#FFFFFF" stroke-width="3" rx="26.145" ry="26.405"/>
      <ellipse cx="48.267" cy="48.747" fill="#4990E2" stroke-width="3" rx="10.056" ry="10.156"/>
    </g>
    <path fill="#F6A623" stroke="#0A2D4B" stroke-width="4" d="M207.932187,490.899862 L218.993453,490.899862 C225.102422,490.899862 230.05472,495.861631 230.05472,501.963485 L230.05472,515.273605 L207.932187,515.273605 L207.932187,490.899862 Z" transform="matrix(-1 0 0 1 437.987 0)"/>
    <path fill="#4990E2" stroke="#0A2D4B" stroke-width="4" d="M229.169844,369.031145 C242.449638,366.186198 267.512319,369.593017 281.459464,375.124581 C289.594439,378.350986 291.515161,383.680106 291.515161,385.280308 C291.515161,387.073207 294.373198,391.116811 287.492882,393.404889 C285.543899,394.053032 283.26715,394.637267 280.758511,395.15897 C278.589117,395.610124 255.394055,441.549274 251.292376,484.1571 C250.549229,491.87684 254.694778,541.781422 293.526303,551.834219 C302.780027,554.229844 358.67678,561.121258 371.96073,541.678492 C387.016163,519.642934 361.03798,466.795882 361.905033,468.557262 C362.80441,470.384309 470.506557,467.039149 490.617951,468.557262 C497.727079,475.942637 517.47639,484.67353 532.851877,505.117877 C543.580331,519.383197 552.136712,545.044369 552.96327,555.896509 C553.629162,564.639213 444.361746,557.927654 432.29491,559.9588 C427.662887,560.738483 427.044621,566.785924 427.044621,566.785924 C426.612111,568.62426 424.721472,570.138752 422.818597,570.168592 C422.818597,570.168592 297.548582,572.145671 279.448328,572.145671 C274.409951,572.145671 254.764674,571.267964 246.576735,559.958796 C239.822784,550.63025 200.743682,531.544909 196.623056,512.405303 C192.547119,493.473271 257.624882,398.029403 255.522572,398.147944 C243.253991,398.839723 231.715797,398.582919 227.158704,397.46718 C214.201186,394.294716 208.144321,373.53547 229.169844,369.031145 Z" transform="matrix(-1 0 0 1 749.406 0)"/>
    <path stroke="#0A2D4B" stroke-width="4" d="M515,368.015573 L515,396.451606" transform="matrix(-1 0 0 1 1030 0)"/>
    <path stroke="#0A2D4B" stroke-width="4" d="M505,368.015573 L505,396.451606" transform="matrix(-1 0 0 1 1010 0)"/>
    <rect width="28.156" height="10.156" x="453.868" y="383.249" stroke="#0A2D4B" stroke-width="4" transform="matrix(-1 0 0 1 935.892 0)" rx="5.078"/>
    <path fill="#F6A623" stroke="#0A2D4B" stroke-width="4" d="M453.868087,388.327025 C453.868087,385.522599 456.140172,383.249162 458.954775,383.249162 L460.364373,383.249162 L460.858722,383.249162 C463.66223,383.249162 465.934923,385.528305 465.934923,388.327025 L465.934923,388.327025 C465.934923,391.131452 463.662993,393.404889 460.849447,393.404889 L460.720552,393.404889 L458.955872,393.404889 C456.145966,393.404889 453.868087,391.125745 453.868087,388.327025 L453.868087,388.327025 Z" transform="matrix(-1 0 0 1 919.803 0)"/>
    <path fill="#F6A623" stroke="#0A2D4B" stroke-width="4" d="M534.31366,398.400712 C534.31366,382.955414 534.31366,381.959462 534.31366,368.444827 C524.317166,368.444827 516.213406,374.177635 516.213406,383.952544 C516.213406,393.727453 524.317166,398.400712 534.31366,398.400712 Z" transform="matrix(-1 0 0 1 1050.527 0)"/>
    <mask id="b" fill="white">
      <use xlink:href="#a"/>
    </mask>
    <use fill="#4990E2" stroke="#0A2D4B" stroke-width="4" transform="matrix(-1 0 0 1 646.288 0)" xlink:href="#a"/>
    <g fill="#F6A623" transform="rotate(43 -262.42 553.098)" mask="url(#b)">
      <ellipse cx="5.164" cy="115.601" rx="5.064" ry="5.091"/>
      <ellipse cx="19.092" cy="115.856" rx="3.798" ry="3.819"/>
      <ellipse cx="33.019" cy="115.601" rx="5.064" ry="5.091"/>
      <ellipse cx="46.946" cy="115.856" rx="3.798" ry="3.819"/>
      <ellipse cx="60.873" cy="115.601" rx="5.064" ry="5.091"/>
      <ellipse cx="74.801" cy="115.856" rx="3.798" ry="3.819"/>
      <ellipse cx="75.054" cy="129.857" rx="5.064" ry="5.091"/>
      <ellipse cx="4.911" cy="130.112" rx="3.798" ry="3.819"/>
      <ellipse cx="18.838" cy="129.857" rx="5.064" ry="5.091"/>
      <ellipse cx="32.766" cy="130.112" rx="3.798" ry="3.819"/>
      <ellipse cx="46.693" cy="129.857" rx="5.064" ry="5.091"/>
      <ellipse cx="60.62" cy="130.112" rx="3.798" ry="3.819"/>
      <ellipse cx="5.164" cy="144.113" rx="5.064" ry="5.091"/>
      <ellipse cx="19.092" cy="144.367" rx="3.798" ry="3.819"/>
      <ellipse cx="33.019" cy="144.113" rx="5.064" ry="5.091"/>
      <ellipse cx="46.946" cy="144.367" rx="3.798" ry="3.819"/>
      <ellipse cx="60.873" cy="144.113" rx="5.064" ry="5.091"/>
      <ellipse cx="74.801" cy="144.367" rx="3.798" ry="3.819"/>
      <ellipse cx="75.054" cy="158.369" rx="5.064" ry="5.091"/>
      <ellipse cx="4.911" cy="158.623" rx="3.798" ry="3.819"/>
      <ellipse cx="18.838" cy="158.369" rx="5.064" ry="5.091"/>
      <ellipse cx="32.766" cy="158.623" rx="3.798" ry="3.819"/>
      <ellipse cx="46.693" cy="158.369" rx="5.064" ry="5.091"/>
      <ellipse cx="60.62" cy="158.623" rx="3.798" ry="3.819"/>
      <ellipse cx="5.164" cy="60.105" rx="5.064" ry="5.091"/>
      <ellipse cx="19.092" cy="60.359" rx="3.798" ry="3.819"/>
      <ellipse cx="33.019" cy="60.105" rx="5.064" ry="5.091"/>
      <ellipse cx="46.946" cy="60.359" rx="3.798" ry="3.819"/>
      <ellipse cx="60.873" cy="60.105" rx="5.064" ry="5.091"/>
      <ellipse cx="74.801" cy="60.359" rx="3.798" ry="3.819"/>
      <ellipse cx="75.054" cy="74.36" rx="5.064" ry="5.091"/>
      <ellipse cx="4.911" cy="74.615" rx="3.798" ry="3.819"/>
      <ellipse cx="18.838" cy="74.36" rx="5.064" ry="5.091"/>
      <ellipse cx="32.766" cy="74.615" rx="3.798" ry="3.819"/>
      <ellipse cx="46.693" cy="74.36" rx="5.064" ry="5.091"/>
      <ellipse cx="60.62" cy="74.615" rx="3.798" ry="3.819"/>
      <ellipse cx="5.164" cy="88.616" rx="5.064" ry="5.091"/>
      <ellipse cx="19.092" cy="88.871" rx="3.798" ry="3.819"/>
      <ellipse cx="33.019" cy="88.616" rx="5.064" ry="5.091"/>
      <ellipse cx="46.946" cy="88.871" rx="3.798" ry="3.819"/>
      <ellipse cx="60.873" cy="88.616" rx="5.064" ry="5.091"/>
      <ellipse cx="74.801" cy="88.871" rx="3.798" ry="3.819"/>
      <ellipse cx="75.054" cy="102.872" rx="5.064" ry="5.091"/>
      <ellipse cx="4.911" cy="103.127" rx="3.798" ry="3.819"/>
      <ellipse cx="18.838" cy="102.872" rx="5.064" ry="5.091"/>
      <ellipse cx="32.766" cy="103.127" rx="3.798" ry="3.819"/>
      <ellipse cx="46.693" cy="102.872" rx="5.064" ry="5.091"/>
      <ellipse cx="60.62" cy="103.127" rx="3.798" ry="3.819"/>
      <ellipse cx="88.728" cy="115.601" rx="5.064" ry="5.091"/>
      <ellipse cx="102.655" cy="115.856" rx="3.798" ry="3.819"/>
      <ellipse cx="116.583" cy="115.601" rx="5.064" ry="5.091"/>
      <ellipse cx="88.475" cy="130.112" rx="3.798" ry="3.819"/>
      <ellipse cx="102.402" cy="129.857" rx="5.064" ry="5.091"/>
      <ellipse cx="116.329" cy="130.112" rx="3.798" ry="3.819"/>
      <ellipse cx="88.728" cy="144.113" rx="5.064" ry="5.091"/>
      <ellipse cx="102.655" cy="144.367" rx="3.798" ry="3.819"/>
      <ellipse cx="116.583" cy="144.113" rx="5.064" ry="5.091"/>
      <ellipse cx="88.475" cy="158.623" rx="3.798" ry="3.819"/>
      <ellipse cx="102.402" cy="158.369" rx="5.064" ry="5.091"/>
      <ellipse cx="116.329" cy="158.623" rx="3.798" ry="3.819"/>
      <ellipse cx="88.728" cy="60.105" rx="5.064" ry="5.091"/>
      <ellipse cx="102.655" cy="60.359" rx="3.798" ry="3.819"/>
      <ellipse cx="116.583" cy="60.105" rx="5.064" ry="5.091"/>
      <ellipse cx="88.475" cy="74.615" rx="3.798" ry="3.819"/>
      <ellipse cx="102.402" cy="74.36" rx="5.064" ry="5.091"/>
      <ellipse cx="116.329" cy="74.615" rx="3.798" ry="3.819"/>
      <ellipse cx="88.728" cy="88.616" rx="5.064" ry="5.091"/>
      <ellipse cx="102.655" cy="88.871" rx="3.798" ry="3.819"/>
      <ellipse cx="116.583" cy="88.616" rx="5.064" ry="5.091"/>
      <ellipse cx="88.475" cy="103.127" rx="3.798" ry="3.819"/>
      <ellipse cx="102.402" cy="102.872" rx="5.064" ry="5.091"/>
      <ellipse cx="116.329" cy="103.127" rx="3.798" ry="3.819"/>
      <ellipse cx="130.51" cy="115.856" rx="3.798" ry="3.819"/>
      <ellipse cx="130.763" cy="129.857" rx="5.064" ry="5.091"/>
      <ellipse cx="130.51" cy="144.367" rx="3.798" ry="3.819"/>
      <ellipse cx="130.763" cy="158.369" rx="5.064" ry="5.091"/>
      <ellipse cx="130.51" cy="60.359" rx="3.798" ry="3.819"/>
      <ellipse cx="130.763" cy="74.36" rx="5.064" ry="5.091"/>
      <ellipse cx="130.51" cy="88.871" rx="3.798" ry="3.819"/>
      <ellipse cx="130.763" cy="102.872" rx="5.064" ry="5.091"/>
      <ellipse cx="144.437" cy="115.601" rx="5.064" ry="5.091"/>
      <ellipse cx="158.364" cy="115.856" rx="3.798" ry="3.819"/>
      <ellipse cx="172.292" cy="115.601" rx="5.064" ry="5.091"/>
      <ellipse cx="144.184" cy="130.112" rx="3.798" ry="3.819"/>
      <ellipse cx="158.111" cy="129.857" rx="5.064" ry="5.091"/>
      <ellipse cx="172.038" cy="130.112" rx="3.798" ry="3.819"/>
      <ellipse cx="144.437" cy="144.113" rx="5.064" ry="5.091"/>
      <ellipse cx="158.364" cy="144.367" rx="3.798" ry="3.819"/>
      <ellipse cx="172.292" cy="144.113" rx="5.064" ry="5.091"/>
      <ellipse cx="144.184" cy="158.623" rx="3.798" ry="3.819"/>
      <ellipse cx="158.111" cy="158.369" rx="5.064" ry="5.091"/>
      <ellipse cx="172.038" cy="158.623" rx="3.798" ry="3.819"/>
      <ellipse cx="144.437" cy="60.105" rx="5.064" ry="5.091"/>
      <ellipse cx="158.364" cy="60.359" rx="3.798" ry="3.819"/>
      <ellipse cx="172.292" cy="60.105" rx="5.064" ry="5.091"/>
      <ellipse cx="144.184" cy="74.615" rx="3.798" ry="3.819"/>
      <ellipse cx="158.111" cy="74.36" rx="5.064" ry="5.091"/>
      <ellipse cx="172.038" cy="74.615" rx="3.798" ry="3.819"/>
      <ellipse cx="144.437" cy="88.616" rx="5.064" ry="5.091"/>
      <ellipse cx="158.364" cy="88.871" rx="3.798" ry="3.819"/>
      <ellipse cx="172.292" cy="88.616" rx="5.064" ry="5.091"/>
      <ellipse cx="144.184" cy="103.127" rx="3.798" ry="3.819"/>
      <ellipse cx="158.111" cy="102.872" rx="5.064" ry="5.091"/>
      <ellipse cx="172.038" cy="103.127" rx="3.798" ry="3.819"/>
      <ellipse cx="186.219" cy="115.856" rx="3.798" ry="3.819"/>
      <ellipse cx="186.472" cy="129.857" rx="5.064" ry="5.091"/>
      <ellipse cx="186.219" cy="144.367" rx="3.798" ry="3.819"/>
      <ellipse cx="186.472" cy="158.369" rx="5.064" ry="5.091"/>
      <ellipse cx="186.219" cy="60.359" rx="3.798" ry="3.819"/>
      <ellipse cx="186.472" cy="74.36" rx="5.064" ry="5.091"/>
      <ellipse cx="186.219" cy="88.871" rx="3.798" ry="3.819"/>
      <ellipse cx="186.472" cy="102.872" rx="5.064" ry="5.091"/>
      <ellipse cx="75.054" cy="17.846" rx="5.064" ry="5.091"/>
      <ellipse cx="4.911" cy="18.1" rx="3.798" ry="3.819"/>
      <ellipse cx="18.838" cy="17.846" rx="5.064" ry="5.091"/>
      <ellipse cx="32.766" cy="18.1" rx="3.798" ry="3.819"/>
      <ellipse cx="46.693" cy="17.846" rx="5.064" ry="5.091"/>
      <ellipse cx="60.62" cy="18.1" rx="3.798" ry="3.819"/>
      <ellipse cx="5.164" cy="32.102" rx="5.064" ry="5.091"/>
      <ellipse cx="19.092" cy="32.356" rx="3.798" ry="3.819"/>
      <ellipse cx="33.019" cy="32.102" rx="5.064" ry="5.091"/>
      <ellipse cx="46.946" cy="32.356" rx="3.798" ry="3.819"/>
      <ellipse cx="60.873" cy="32.102" rx="5.064" ry="5.091"/>
      <ellipse cx="74.801" cy="32.356" rx="3.798" ry="3.819"/>
      <ellipse cx="75.054" cy="46.358" rx="5.064" ry="5.091"/>
      <ellipse cx="4.911" cy="46.612" rx="3.798" ry="3.819"/>
      <ellipse cx="18.838" cy="46.358" rx="5.064" ry="5.091"/>
      <ellipse cx="32.766" cy="46.612" rx="3.798" ry="3.819"/>
      <ellipse cx="46.693" cy="46.358" rx="5.064" ry="5.091"/>
      <ellipse cx="60.62" cy="46.612" rx="3.798" ry="3.819"/>
      <ellipse cx="88.475" cy="18.1" rx="3.798" ry="3.819"/>
      <ellipse cx="102.402" cy="17.846" rx="5.064" ry="5.091"/>
      <ellipse cx="116.329" cy="18.1" rx="3.798" ry="3.819"/>
      <ellipse cx="88.728" cy="32.102" rx="5.064" ry="5.091"/>
      <ellipse cx="102.655" cy="32.356" rx="3.798" ry="3.819"/>
      <ellipse cx="116.583" cy="32.102" rx="5.064" ry="5.091"/>
      <ellipse cx="88.475" cy="46.612" rx="3.798" ry="3.819"/>
      <ellipse cx="102.402" cy="46.358" rx="5.064" ry="5.091"/>
      <ellipse cx="116.329" cy="46.612" rx="3.798" ry="3.819"/>
      <ellipse cx="130.763" cy="17.846" rx="5.064" ry="5.091"/>
      <ellipse cx="130.51" cy="32.356" rx="3.798" ry="3.819"/>
      <ellipse cx="130.763" cy="46.358" rx="5.064" ry="5.091"/>
      <ellipse cx="144.184" cy="18.1" rx="3.798" ry="3.819"/>
      <ellipse cx="158.111" cy="17.846" rx="5.064" ry="5.091"/>
      <ellipse cx="172.038" cy="18.1" rx="3.798" ry="3.819"/>
      <ellipse cx="144.437" cy="32.102" rx="5.064" ry="5.091"/>
      <ellipse cx="158.364" cy="32.356" rx="3.798" ry="3.819"/>
      <ellipse cx="172.292" cy="32.102" rx="5.064" ry="5.091"/>
      <ellipse cx="144.184" cy="46.612" rx="3.798" ry="3.819"/>
      <ellipse cx="158.111" cy="46.358" rx="5.064" ry="5.091"/>
      <ellipse cx="172.038" cy="46.612" rx="3.798" ry="3.819"/>
      <ellipse cx="186.472" cy="17.846" rx="5.064" ry="5.091"/>
      <ellipse cx="186.219" cy="32.356" rx="3.798" ry="3.819"/>
      <ellipse cx="186.472" cy="46.358" rx="5.064" ry="5.091"/>
      <ellipse cx="19.092" cy="3.844" rx="3.798" ry="3.819"/>
      <ellipse cx="46.946" cy="3.844" rx="3.798" ry="3.819"/>
      <ellipse cx="74.801" cy="3.844" rx="3.798" ry="3.819"/>
      <ellipse cx="102.655" cy="3.844" rx="3.798" ry="3.819"/>
      <ellipse cx="130.51" cy="3.844" rx="3.798" ry="3.819"/>
      <ellipse cx="158.364" cy="3.844" rx="3.798" ry="3.819"/>
      <ellipse cx="186.219" cy="3.844" rx="3.798" ry="3.819"/>
    </g>
    <path stroke="#0A2D4B" stroke-width="4" d="M258.787571,460.053826 C258.787571,455.603562 262.388825,452.152473 266.838792,452.316192 C266.838792,452.316192 312.247346,454.640904 331.188587,449.964765 C342.414436,447.193372 370.505218,436.49385 377.444792,443.871329 C383.242434,450.034819 387.500489,470.276218 387.500489,470.276218 L260.809343,470.276218 C259.692749,470.276218 258.787571,469.369695 258.787571,468.267614 L258.787571,460.053826 Z" transform="matrix(-1 0 0 1 646.288 0)"/>
    <mask id="d" fill="white">
      <use xlink:href="#c"/>
    </mask>
    <use fill="#F6A623" stroke="#0A2D4B" stroke-width="3" transform="matrix(-1 0 0 1 563 0)" xlink:href="#c"/>
    <g fill="#4990E2" transform="rotate(-29 1061.436 -63.771)" mask="url(#d)">
      <ellipse cx="5.053" cy="115.268" rx="5.053" ry="5.078"/>
      <ellipse cx="18.948" cy="115.522" rx="3.79" ry="3.808"/>
      <ellipse cx="32.844" cy="115.268" rx="5.053" ry="5.078"/>
      <ellipse cx="46.739" cy="115.522" rx="3.79" ry="3.808"/>
      <ellipse cx="60.635" cy="115.268" rx="5.053" ry="5.078"/>
      <ellipse cx="74.53" cy="115.522" rx="3.79" ry="3.808"/>
      <ellipse cx="74.783" cy="129.486" rx="5.053" ry="5.078"/>
      <ellipse cx="4.8" cy="129.74" rx="3.79" ry="3.808"/>
      <ellipse cx="18.696" cy="129.486" rx="5.053" ry="5.078"/>
      <ellipse cx="32.591" cy="129.74" rx="3.79" ry="3.808"/>
      <ellipse cx="46.487" cy="129.486" rx="5.053" ry="5.078"/>
      <ellipse cx="60.382" cy="129.74" rx="3.79" ry="3.808"/>
      <ellipse cx="5.053" cy="143.704" rx="5.053" ry="5.078"/>
      <ellipse cx="18.948" cy="143.958" rx="3.79" ry="3.808"/>
      <ellipse cx="32.844" cy="143.704" rx="5.053" ry="5.078"/>
      <ellipse cx="46.739" cy="143.958" rx="3.79" ry="3.808"/>
      <ellipse cx="60.635" cy="143.704" rx="5.053" ry="5.078"/>
      <ellipse cx="74.53" cy="143.958" rx="3.79" ry="3.808"/>
      <ellipse cx="74.783" cy="157.922" rx="5.053" ry="5.078"/>
      <ellipse cx="4.8" cy="158.176" rx="3.79" ry="3.808"/>
      <ellipse cx="18.696" cy="157.922" rx="5.053" ry="5.078"/>
      <ellipse cx="32.591" cy="158.176" rx="3.79" ry="3.808"/>
      <ellipse cx="46.487" cy="157.922" rx="5.053" ry="5.078"/>
      <ellipse cx="60.382" cy="158.176" rx="3.79" ry="3.808"/>
      <ellipse cx="5.053" cy="59.919" rx="5.053" ry="5.078"/>
      <ellipse cx="18.948" cy="60.173" rx="3.79" ry="3.808"/>
      <ellipse cx="32.844" cy="59.919" rx="5.053" ry="5.078"/>
      <ellipse cx="46.739" cy="60.173" rx="3.79" ry="3.808"/>
      <ellipse cx="60.635" cy="59.919" rx="5.053" ry="5.078"/>
      <ellipse cx="74.53" cy="60.173" rx="3.79" ry="3.808"/>
      <ellipse cx="74.783" cy="74.137" rx="5.053" ry="5.078"/>
      <ellipse cx="4.8" cy="74.391" rx="3.79" ry="3.808"/>
      <ellipse cx="18.696" cy="74.137" rx="5.053" ry="5.078"/>
      <ellipse cx="32.591" cy="74.391" rx="3.79" ry="3.808"/>
      <ellipse cx="46.487" cy="74.137" rx="5.053" ry="5.078"/>
      <ellipse cx="60.382" cy="74.391" rx="3.79" ry="3.808"/>
      <ellipse cx="5.053" cy="88.355" rx="5.053" ry="5.078"/>
      <ellipse cx="18.948" cy="88.609" rx="3.79" ry="3.808"/>
      <ellipse cx="32.844" cy="88.355" rx="5.053" ry="5.078"/>
      <ellipse cx="46.739" cy="88.609" rx="3.79" ry="3.808"/>
      <ellipse cx="60.635" cy="88.355" rx="5.053" ry="5.078"/>
      <ellipse cx="74.53" cy="88.609" rx="3.79" ry="3.808"/>
      <ellipse cx="74.783" cy="102.573" rx="5.053" ry="5.078"/>
      <ellipse cx="4.8" cy="102.827" rx="3.79" ry="3.808"/>
      <ellipse cx="18.696" cy="102.573" rx="5.053" ry="5.078"/>
      <ellipse cx="32.591" cy="102.827" rx="3.79" ry="3.808"/>
      <ellipse cx="46.487" cy="102.573" rx="5.053" ry="5.078"/>
      <ellipse cx="60.382" cy="102.827" rx="3.79" ry="3.808"/>
      <ellipse cx="88.426" cy="115.268" rx="5.053" ry="5.078"/>
      <ellipse cx="102.321" cy="115.522" rx="3.79" ry="3.808"/>
      <ellipse cx="116.217" cy="115.268" rx="5.053" ry="5.078"/>
      <ellipse cx="88.173" cy="129.74" rx="3.79" ry="3.808"/>
      <ellipse cx="102.069" cy="129.486" rx="5.053" ry="5.078"/>
      <ellipse cx="115.964" cy="129.74" rx="3.79" ry="3.808"/>
      <ellipse cx="88.426" cy="143.704" rx="5.053" ry="5.078"/>
      <ellipse cx="102.321" cy="143.958" rx="3.79" ry="3.808"/>
      <ellipse cx="116.217" cy="143.704" rx="5.053" ry="5.078"/>
      <ellipse cx="88.173" cy="158.176" rx="3.79" ry="3.808"/>
      <ellipse cx="102.069" cy="157.922" rx="5.053" ry="5.078"/>
      <ellipse cx="115.964" cy="158.176" rx="3.79" ry="3.808"/>
      <ellipse cx="88.426" cy="59.919" rx="5.053" ry="5.078"/>
      <ellipse cx="102.321" cy="60.173" rx="3.79" ry="3.808"/>
      <ellipse cx="116.217" cy="59.919" rx="5.053" ry="5.078"/>
      <ellipse cx="88.173" cy="74.391" rx="3.79" ry="3.808"/>
      <ellipse cx="102.069" cy="74.137" rx="5.053" ry="5.078"/>
      <ellipse cx="115.964" cy="74.391" rx="3.79" ry="3.808"/>
      <ellipse cx="88.426" cy="88.355" rx="5.053" ry="5.078"/>
      <ellipse cx="102.321" cy="88.609" rx="3.79" ry="3.808"/>
      <ellipse cx="116.217" cy="88.355" rx="5.053" ry="5.078"/>
      <ellipse cx="88.173" cy="102.827" rx="3.79" ry="3.808"/>
      <ellipse cx="102.069" cy="102.573" rx="5.053" ry="5.078"/>
      <ellipse cx="115.964" cy="102.827" rx="3.79" ry="3.808"/>
      <ellipse cx="130.112" cy="115.522" rx="3.79" ry="3.808"/>
      <ellipse cx="130.365" cy="129.486" rx="5.053" ry="5.078"/>
      <ellipse cx="130.112" cy="143.958" rx="3.79" ry="3.808"/>
      <ellipse cx="130.365" cy="157.922" rx="5.053" ry="5.078"/>
      <ellipse cx="130.112" cy="60.173" rx="3.79" ry="3.808"/>
      <ellipse cx="130.365" cy="74.137" rx="5.053" ry="5.078"/>
      <ellipse cx="130.112" cy="88.609" rx="3.79" ry="3.808"/>
      <ellipse cx="130.365" cy="102.573" rx="5.053" ry="5.078"/>
      <ellipse cx="144.008" cy="115.268" rx="5.053" ry="5.078"/>
      <ellipse cx="157.903" cy="115.522" rx="3.79" ry="3.808"/>
      <ellipse cx="171.799" cy="115.268" rx="5.053" ry="5.078"/>
      <ellipse cx="143.755" cy="129.74" rx="3.79" ry="3.808"/>
      <ellipse cx="157.651" cy="129.486" rx="5.053" ry="5.078"/>
      <ellipse cx="171.546" cy="129.74" rx="3.79" ry="3.808"/>
      <ellipse cx="144.008" cy="143.704" rx="5.053" ry="5.078"/>
      <ellipse cx="157.903" cy="143.958" rx="3.79" ry="3.808"/>
      <ellipse cx="171.799" cy="143.704" rx="5.053" ry="5.078"/>
      <ellipse cx="143.755" cy="158.176" rx="3.79" ry="3.808"/>
      <ellipse cx="157.651" cy="157.922" rx="5.053" ry="5.078"/>
      <ellipse cx="171.546" cy="158.176" rx="3.79" ry="3.808"/>
      <ellipse cx="144.008" cy="59.919" rx="5.053" ry="5.078"/>
      <ellipse cx="157.903" cy="60.173" rx="3.79" ry="3.808"/>
      <ellipse cx="171.799" cy="59.919" rx="5.053" ry="5.078"/>
      <ellipse cx="143.755" cy="74.391" rx="3.79" ry="3.808"/>
      <ellipse cx="157.651" cy="74.137" rx="5.053" ry="5.078"/>
      <ellipse cx="171.546" cy="74.391" rx="3.79" ry="3.808"/>
      <ellipse cx="144.008" cy="88.355" rx="5.053" ry="5.078"/>
      <ellipse cx="157.903" cy="88.609" rx="3.79" ry="3.808"/>
      <ellipse cx="171.799" cy="88.355" rx="5.053" ry="5.078"/>
      <ellipse cx="143.755" cy="102.827" rx="3.79" ry="3.808"/>
      <ellipse cx="157.651" cy="102.573" rx="5.053" ry="5.078"/>
      <ellipse cx="171.546" cy="102.827" rx="3.79" ry="3.808"/>
      <ellipse cx="185.694" cy="115.522" rx="3.79" ry="3.808"/>
      <ellipse cx="185.947" cy="129.486" rx="5.053" ry="5.078"/>
      <ellipse cx="185.694" cy="143.958" rx="3.79" ry="3.808"/>
      <ellipse cx="185.947" cy="157.922" rx="5.053" ry="5.078"/>
      <ellipse cx="185.694" cy="60.173" rx="3.79" ry="3.808"/>
      <ellipse cx="185.947" cy="74.137" rx="5.053" ry="5.078"/>
      <ellipse cx="185.694" cy="88.609" rx="3.79" ry="3.808"/>
      <ellipse cx="185.947" cy="102.573" rx="5.053" ry="5.078"/>
      <ellipse cx="74.783" cy="17.773" rx="5.053" ry="5.078"/>
      <ellipse cx="4.8" cy="18.026" rx="3.79" ry="3.808"/>
      <ellipse cx="18.696" cy="17.773" rx="5.053" ry="5.078"/>
      <ellipse cx="32.591" cy="18.026" rx="3.79" ry="3.808"/>
      <ellipse cx="46.487" cy="17.773" rx="5.053" ry="5.078"/>
      <ellipse cx="60.382" cy="18.026" rx="3.79" ry="3.808"/>
      <ellipse cx="5.053" cy="31.991" rx="5.053" ry="5.078"/>
      <ellipse cx="18.948" cy="32.245" rx="3.79" ry="3.808"/>
      <ellipse cx="32.844" cy="31.991" rx="5.053" ry="5.078"/>
      <ellipse cx="46.739" cy="32.245" rx="3.79" ry="3.808"/>
      <ellipse cx="60.635" cy="31.991" rx="5.053" ry="5.078"/>
      <ellipse cx="74.53" cy="32.245" rx="3.79" ry="3.808"/>
      <ellipse cx="74.783" cy="46.209" rx="5.053" ry="5.078"/>
      <ellipse cx="4.8" cy="46.463" rx="3.79" ry="3.808"/>
      <ellipse cx="18.696" cy="46.209" rx="5.053" ry="5.078"/>
      <ellipse cx="32.591" cy="46.463" rx="3.79" ry="3.808"/>
      <ellipse cx="46.487" cy="46.209" rx="5.053" ry="5.078"/>
      <ellipse cx="60.382" cy="46.463" rx="3.79" ry="3.808"/>
      <ellipse cx="88.173" cy="18.026" rx="3.79" ry="3.808"/>
      <ellipse cx="102.069" cy="17.773" rx="5.053" ry="5.078"/>
      <ellipse cx="115.964" cy="18.026" rx="3.79" ry="3.808"/>
      <ellipse cx="88.426" cy="31.991" rx="5.053" ry="5.078"/>
      <ellipse cx="102.321" cy="32.245" rx="3.79" ry="3.808"/>
      <ellipse cx="116.217" cy="31.991" rx="5.053" ry="5.078"/>
      <ellipse cx="88.173" cy="46.463" rx="3.79" ry="3.808"/>
      <ellipse cx="102.069" cy="46.209" rx="5.053" ry="5.078"/>
      <ellipse cx="115.964" cy="46.463" rx="3.79" ry="3.808"/>
      <ellipse cx="130.365" cy="17.773" rx="5.053" ry="5.078"/>
      <ellipse cx="130.112" cy="32.245" rx="3.79" ry="3.808"/>
      <ellipse cx="130.365" cy="46.209" rx="5.053" ry="5.078"/>
      <ellipse cx="143.755" cy="18.026" rx="3.79" ry="3.808"/>
      <ellipse cx="157.651" cy="17.773" rx="5.053" ry="5.078"/>
      <ellipse cx="171.546" cy="18.026" rx="3.79" ry="3.808"/>
      <ellipse cx="144.008" cy="31.991" rx="5.053" ry="5.078"/>
      <ellipse cx="157.903" cy="32.245" rx="3.79" ry="3.808"/>
      <ellipse cx="171.799" cy="31.991" rx="5.053" ry="5.078"/>
      <ellipse cx="143.755" cy="46.463" rx="3.79" ry="3.808"/>
      <ellipse cx="157.651" cy="46.209" rx="5.053" ry="5.078"/>
      <ellipse cx="171.546" cy="46.463" rx="3.79" ry="3.808"/>
      <ellipse cx="185.947" cy="17.773" rx="5.053" ry="5.078"/>
      <ellipse cx="185.694" cy="32.245" rx="3.79" ry="3.808"/>
      <ellipse cx="185.947" cy="46.209" rx="5.053" ry="5.078"/>
      <ellipse cx="18.948" cy="3.808" rx="3.79" ry="3.808"/>
      <ellipse cx="46.739" cy="3.808" rx="3.79" ry="3.808"/>
      <ellipse cx="74.53" cy="3.808" rx="3.79" ry="3.808"/>
      <ellipse cx="102.321" cy="3.808" rx="3.79" ry="3.808"/>
      <ellipse cx="130.112" cy="3.808" rx="3.79" ry="3.808"/>
      <ellipse cx="157.903" cy="3.808" rx="3.79" ry="3.808"/>
      <ellipse cx="185.694" cy="3.808" rx="3.79" ry="3.808"/>
    </g>
    <path stroke="#0A2D4B" stroke-width="3" d="M217.734332,522.29972 C217.734332,500.470975 235.424687,482.775281 257.268754,482.775281 L296.168766,482.775281 C301.049541,482.775281 327.035685,494.941745 338.402692,515.273605 C348.540875,533.4075 344.451065,561.82494 344.451065,561.82494 L253.982644,560.492625 C233.963254,560.197802 217.734332,543.731563 217.734332,523.711789 L217.734332,522.29972 Z" transform="matrix(-1 0 0 1 563 0)"/>
    <mask id="f" fill="white">
      <use xlink:href="#e"/>
    </mask>
    <use fill="#4990E2" stroke="#0A2D4B" stroke-width="4" transform="scale(-1 1) rotate(7 0 -8358.903)" xlink:href="#e"/>
    <g fill="#F6A623" transform="rotate(43 -272.807 844.777)" mask="url(#f)">
      <ellipse cx="5.164" cy="115.601" rx="5.064" ry="5.091"/>
      <ellipse cx="19.092" cy="115.856" rx="3.798" ry="3.819"/>
      <ellipse cx="33.019" cy="115.601" rx="5.064" ry="5.091"/>
      <ellipse cx="46.946" cy="115.856" rx="3.798" ry="3.819"/>
      <ellipse cx="60.873" cy="115.601" rx="5.064" ry="5.091"/>
      <ellipse cx="74.801" cy="115.856" rx="3.798" ry="3.819"/>
      <ellipse cx="75.054" cy="129.857" rx="5.064" ry="5.091"/>
      <ellipse cx="4.911" cy="130.112" rx="3.798" ry="3.819"/>
      <ellipse cx="18.838" cy="129.857" rx="5.064" ry="5.091"/>
      <ellipse cx="32.766" cy="130.112" rx="3.798" ry="3.819"/>
      <ellipse cx="46.693" cy="129.857" rx="5.064" ry="5.091"/>
      <ellipse cx="60.62" cy="130.112" rx="3.798" ry="3.819"/>
      <ellipse cx="5.164" cy="144.113" rx="5.064" ry="5.091"/>
      <ellipse cx="19.092" cy="144.367" rx="3.798" ry="3.819"/>
      <ellipse cx="33.019" cy="144.113" rx="5.064" ry="5.091"/>
      <ellipse cx="46.946" cy="144.367" rx="3.798" ry="3.819"/>
      <ellipse cx="60.873" cy="144.113" rx="5.064" ry="5.091"/>
      <ellipse cx="74.801" cy="144.367" rx="3.798" ry="3.819"/>
      <ellipse cx="75.054" cy="158.369" rx="5.064" ry="5.091"/>
      <ellipse cx="4.911" cy="158.623" rx="3.798" ry="3.819"/>
      <ellipse cx="18.838" cy="158.369" rx="5.064" ry="5.091"/>
      <ellipse cx="32.766" cy="158.623" rx="3.798" ry="3.819"/>
      <ellipse cx="46.693" cy="158.369" rx="5.064" ry="5.091"/>
      <ellipse cx="60.62" cy="158.623" rx="3.798" ry="3.819"/>
      <ellipse cx="5.164" cy="60.105" rx="5.064" ry="5.091"/>
      <ellipse cx="19.092" cy="60.359" rx="3.798" ry="3.819"/>
      <ellipse cx="33.019" cy="60.105" rx="5.064" ry="5.091"/>
      <ellipse cx="46.946" cy="60.359" rx="3.798" ry="3.819"/>
      <ellipse cx="60.873" cy="60.105" rx="5.064" ry="5.091"/>
      <ellipse cx="74.801" cy="60.359" rx="3.798" ry="3.819"/>
      <ellipse cx="75.054" cy="74.36" rx="5.064" ry="5.091"/>
      <ellipse cx="4.911" cy="74.615" rx="3.798" ry="3.819"/>
      <ellipse cx="18.838" cy="74.36" rx="5.064" ry="5.091"/>
      <ellipse cx="32.766" cy="74.615" rx="3.798" ry="3.819"/>
      <ellipse cx="46.693" cy="74.36" rx="5.064" ry="5.091"/>
      <ellipse cx="60.62" cy="74.615" rx="3.798" ry="3.819"/>
      <ellipse cx="5.164" cy="88.616" rx="5.064" ry="5.091"/>
      <ellipse cx="19.092" cy="88.871" rx="3.798" ry="3.819"/>
      <ellipse cx="33.019" cy="88.616" rx="5.064" ry="5.091"/>
      <ellipse cx="46.946" cy="88.871" rx="3.798" ry="3.819"/>
      <ellipse cx="60.873" cy="88.616" rx="5.064" ry="5.091"/>
      <ellipse cx="74.801" cy="88.871" rx="3.798" ry="3.819"/>
      <ellipse cx="75.054" cy="102.872" rx="5.064" ry="5.091"/>
      <ellipse cx="4.911" cy="103.127" rx="3.798" ry="3.819"/>
      <ellipse cx="18.838" cy="102.872" rx="5.064" ry="5.091"/>
      <ellipse cx="32.766" cy="103.127" rx="3.798" ry="3.819"/>
      <ellipse cx="46.693" cy="102.872" rx="5.064" ry="5.091"/>
      <ellipse cx="60.62" cy="103.127" rx="3.798" ry="3.819"/>
      <ellipse cx="88.728" cy="115.601" rx="5.064" ry="5.091"/>
      <ellipse cx="102.655" cy="115.856" rx="3.798" ry="3.819"/>
      <ellipse cx="116.583" cy="115.601" rx="5.064" ry="5.091"/>
      <ellipse cx="88.475" cy="130.112" rx="3.798" ry="3.819"/>
      <ellipse cx="102.402" cy="129.857" rx="5.064" ry="5.091"/>
      <ellipse cx="116.329" cy="130.112" rx="3.798" ry="3.819"/>
      <ellipse cx="88.728" cy="144.113" rx="5.064" ry="5.091"/>
      <ellipse cx="102.655" cy="144.367" rx="3.798" ry="3.819"/>
      <ellipse cx="116.583" cy="144.113" rx="5.064" ry="5.091"/>
      <ellipse cx="88.475" cy="158.623" rx="3.798" ry="3.819"/>
      <ellipse cx="102.402" cy="158.369" rx="5.064" ry="5.091"/>
      <ellipse cx="116.329" cy="158.623" rx="3.798" ry="3.819"/>
      <ellipse cx="88.728" cy="60.105" rx="5.064" ry="5.091"/>
      <ellipse cx="102.655" cy="60.359" rx="3.798" ry="3.819"/>
      <ellipse cx="116.583" cy="60.105" rx="5.064" ry="5.091"/>
      <ellipse cx="88.475" cy="74.615" rx="3.798" ry="3.819"/>
      <ellipse cx="102.402" cy="74.36" rx="5.064" ry="5.091"/>
      <ellipse cx="116.329" cy="74.615" rx="3.798" ry="3.819"/>
      <ellipse cx="88.728" cy="88.616" rx="5.064" ry="5.091"/>
      <ellipse cx="102.655" cy="88.871" rx="3.798" ry="3.819"/>
      <ellipse cx="116.583" cy="88.616" rx="5.064" ry="5.091"/>
      <ellipse cx="88.475" cy="103.127" rx="3.798" ry="3.819"/>
      <ellipse cx="102.402" cy="102.872" rx="5.064" ry="5.091"/>
      <ellipse cx="116.329" cy="103.127" rx="3.798" ry="3.819"/>
      <ellipse cx="130.51" cy="115.856" rx="3.798" ry="3.819"/>
      <ellipse cx="130.763" cy="129.857" rx="5.064" ry="5.091"/>
      <ellipse cx="130.51" cy="144.367" rx="3.798" ry="3.819"/>
      <ellipse cx="130.763" cy="158.369" rx="5.064" ry="5.091"/>
      <ellipse cx="130.51" cy="60.359" rx="3.798" ry="3.819"/>
      <ellipse cx="130.763" cy="74.36" rx="5.064" ry="5.091"/>
      <ellipse cx="130.51" cy="88.871" rx="3.798" ry="3.819"/>
      <ellipse cx="130.763" cy="102.872" rx="5.064" ry="5.091"/>
      <ellipse cx="144.437" cy="115.601" rx="5.064" ry="5.091"/>
      <ellipse cx="158.364" cy="115.856" rx="3.798" ry="3.819"/>
      <ellipse cx="172.292" cy="115.601" rx="5.064" ry="5.091"/>
      <ellipse cx="144.184" cy="130.112" rx="3.798" ry="3.819"/>
      <ellipse cx="158.111" cy="129.857" rx="5.064" ry="5.091"/>
      <ellipse cx="172.038" cy="130.112" rx="3.798" ry="3.819"/>
      <ellipse cx="144.437" cy="144.113" rx="5.064" ry="5.091"/>
      <ellipse cx="158.364" cy="144.367" rx="3.798" ry="3.819"/>
      <ellipse cx="172.292" cy="144.113" rx="5.064" ry="5.091"/>
      <ellipse cx="144.184" cy="158.623" rx="3.798" ry="3.819"/>
      <ellipse cx="158.111" cy="158.369" rx="5.064" ry="5.091"/>
      <ellipse cx="172.038" cy="158.623" rx="3.798" ry="3.819"/>
      <ellipse cx="144.437" cy="60.105" rx="5.064" ry="5.091"/>
      <ellipse cx="158.364" cy="60.359" rx="3.798" ry="3.819"/>
      <ellipse cx="172.292" cy="60.105" rx="5.064" ry="5.091"/>
      <ellipse cx="144.184" cy="74.615" rx="3.798" ry="3.819"/>
      <ellipse cx="158.111" cy="74.36" rx="5.064" ry="5.091"/>
      <ellipse cx="172.038" cy="74.615" rx="3.798" ry="3.819"/>
      <ellipse cx="144.437" cy="88.616" rx="5.064" ry="5.091"/>
      <ellipse cx="158.364" cy="88.871" rx="3.798" ry="3.819"/>
      <ellipse cx="172.292" cy="88.616" rx="5.064" ry="5.091"/>
      <ellipse cx="144.184" cy="103.127" rx="3.798" ry="3.819"/>
      <ellipse cx="158.111" cy="102.872" rx="5.064" ry="5.091"/>
      <ellipse cx="172.038" cy="103.127" rx="3.798" ry="3.819"/>
      <ellipse cx="186.219" cy="115.856" rx="3.798" ry="3.819"/>
      <ellipse cx="186.472" cy="129.857" rx="5.064" ry="5.091"/>
      <ellipse cx="186.219" cy="144.367" rx="3.798" ry="3.819"/>
      <ellipse cx="186.472" cy="158.369" rx="5.064" ry="5.091"/>
      <ellipse cx="186.219" cy="60.359" rx="3.798" ry="3.819"/>
      <ellipse cx="186.472" cy="74.36" rx="5.064" ry="5.091"/>
      <ellipse cx="186.219" cy="88.871" rx="3.798" ry="3.819"/>
      <ellipse cx="186.472" cy="102.872" rx="5.064" ry="5.091"/>
      <ellipse cx="75.054" cy="17.846" rx="5.064" ry="5.091"/>
      <ellipse cx="4.911" cy="18.1" rx="3.798" ry="3.819"/>
      <ellipse cx="18.838" cy="17.846" rx="5.064" ry="5.091"/>
      <ellipse cx="32.766" cy="18.1" rx="3.798" ry="3.819"/>
      <ellipse cx="46.693" cy="17.846" rx="5.064" ry="5.091"/>
      <ellipse cx="60.62" cy="18.1" rx="3.798" ry="3.819"/>
      <ellipse cx="5.164" cy="32.102" rx="5.064" ry="5.091"/>
      <ellipse cx="19.092" cy="32.356" rx="3.798" ry="3.819"/>
      <ellipse cx="33.019" cy="32.102" rx="5.064" ry="5.091"/>
      <ellipse cx="46.946" cy="32.356" rx="3.798" ry="3.819"/>
      <ellipse cx="60.873" cy="32.102" rx="5.064" ry="5.091"/>
      <ellipse cx="74.801" cy="32.356" rx="3.798" ry="3.819"/>
      <ellipse cx="75.054" cy="46.358" rx="5.064" ry="5.091"/>
      <ellipse cx="4.911" cy="46.612" rx="3.798" ry="3.819"/>
      <ellipse cx="18.838" cy="46.358" rx="5.064" ry="5.091"/>
      <ellipse cx="32.766" cy="46.612" rx="3.798" ry="3.819"/>
      <ellipse cx="46.693" cy="46.358" rx="5.064" ry="5.091"/>
      <ellipse cx="60.62" cy="46.612" rx="3.798" ry="3.819"/>
      <ellipse cx="88.475" cy="18.1" rx="3.798" ry="3.819"/>
      <ellipse cx="102.402" cy="17.846" rx="5.064" ry="5.091"/>
      <ellipse cx="116.329" cy="18.1" rx="3.798" ry="3.819"/>
      <ellipse cx="88.728" cy="32.102" rx="5.064" ry="5.091"/>
      <ellipse cx="102.655" cy="32.356" rx="3.798" ry="3.819"/>
      <ellipse cx="116.583" cy="32.102" rx="5.064" ry="5.091"/>
      <ellipse cx="88.475" cy="46.612" rx="3.798" ry="3.819"/>
      <ellipse cx="102.402" cy="46.358" rx="5.064" ry="5.091"/>
      <ellipse cx="116.329" cy="46.612" rx="3.798" ry="3.819"/>
      <ellipse cx="130.763" cy="17.846" rx="5.064" ry="5.091"/>
      <ellipse cx="130.51" cy="32.356" rx="3.798" ry="3.819"/>
      <ellipse cx="130.763" cy="46.358" rx="5.064" ry="5.091"/>
      <ellipse cx="144.184" cy="18.1" rx="3.798" ry="3.819"/>
      <ellipse cx="158.111" cy="17.846" rx="5.064" ry="5.091"/>
      <ellipse cx="172.038" cy="18.1" rx="3.798" ry="3.819"/>
      <ellipse cx="144.437" cy="32.102" rx="5.064" ry="5.091"/>
      <ellipse cx="158.364" cy="32.356" rx="3.798" ry="3.819"/>
      <ellipse cx="172.292" cy="32.102" rx="5.064" ry="5.091"/>
      <ellipse cx="144.184" cy="46.612" rx="3.798" ry="3.819"/>
      <ellipse cx="158.111" cy="46.358" rx="5.064" ry="5.091"/>
      <ellipse cx="172.038" cy="46.612" rx="3.798" ry="3.819"/>
      <ellipse cx="186.472" cy="17.846" rx="5.064" ry="5.091"/>
      <ellipse cx="186.219" cy="32.356" rx="3.798" ry="3.819"/>
      <ellipse cx="186.472" cy="46.358" rx="5.064" ry="5.091"/>
      <ellipse cx="19.092" cy="3.844" rx="3.798" ry="3.819"/>
      <ellipse cx="46.946" cy="3.844" rx="3.798" ry="3.819"/>
      <ellipse cx="74.801" cy="3.844" rx="3.798" ry="3.819"/>
      <ellipse cx="102.655" cy="3.844" rx="3.798" ry="3.819"/>
      <ellipse cx="130.51" cy="3.844" rx="3.798" ry="3.819"/>
      <ellipse cx="158.364" cy="3.844" rx="3.798" ry="3.819"/>
      <ellipse cx="186.219" cy="3.844" rx="3.798" ry="3.819"/>
    </g>
    <path stroke="#0A2D4B" stroke-width="4" d="M545.9529,558.166358 C575.052778,570.912659 598.635112,598.638445 600.098673,582.825132 C600.262109,581.05926 600.345637,579.270431 600.345637,577.462238 C600.345637,545.491777 574.233523,519.574598 542.022597,519.574598 C520.558817,519.574598 500.119259,529.936779 489.992957,547.075214 C487.644571,551.049781 520.846846,547.169428 545.9529,558.166358 Z" transform="scale(-1 1) rotate(7 0 -8358.903)"/>
  </g>
</svg>
