<svg xmlns="http://www.w3.org/2000/svg" width="666" height="275" viewBox="0 0 666 275">
  <g fill="none" fill-rule="evenodd" transform="translate(0 -1)">
    <path fill="#C96C38" d="M78.8165037,122.328 C78.8165037,122.328 48.3505037,145.016 94.8505037,171.712 C94.8505037,171.712 109.282504,142.744 78.8165037,122.328" transform="matrix(-1 0 0 1 167.283 0)"/>
    <polyline fill="#E1B386" points="130.686 263.938 138.324 263.938 137.482 222.77 127.87 222.77 130.686 263.938" transform="matrix(-1 0 0 1 266.194 0)"/>
    <path fill="#E1B386" d="M82.6871967,195.378 C82.6871967,195.378 73.6531967,200.672 83.3631967,200.438 C83.3631967,200.438 79.9331967,209.434 85.8311967,203.37 C85.8311967,203.37 84.6831967,210.292 88.0631967,204.188 C88.0631967,204.188 89.9751967,209.674 90.8731967,203.434 C90.8731967,203.434 96.1571967,207.666 89.9491967,195.258 L82.6871967,195.378" transform="matrix(-1 0 0 1 171.835 0)"/>
    <path fill="#FFCC5C" d="M82.6618747,161.044 C82.6618747,161.044 99.9098747,168.068 100.371875,196.366 L113.637875,196.022 C113.637875,196.022 111.191875,153.294 88.5618747,137.166 C88.5618747,137.166 72.5138747,142.95 82.6618747,161.044" transform="matrix(-1 0 0 1 192.936 0)"/>
    <path fill="#E1B386" d="M164.694803,195.378 C164.694803,195.378 173.728803,200.672 164.018803,200.438 C164.018803,200.438 167.448803,209.434 161.550803,203.37 C161.550803,203.37 162.698803,210.292 159.318803,204.188 C159.318803,204.188 157.406803,209.674 156.508803,203.434 C156.508803,203.434 151.224803,207.666 157.432803,195.258 L164.694803,195.378" transform="matrix(-1 0 0 1 322.929 0)"/>
    <path fill="#FFCC5C" d="M164.722125,161.044 C164.722125,161.044 147.474125,168.068 147.012125,196.366 L133.744125,196.022 C133.744125,196.022 136.190125,153.294 158.822125,137.166 C158.822125,137.166 174.870125,142.95 164.722125,161.044" transform="matrix(-1 0 0 1 301.83 0)"/>
    <polyline fill="#E1B386" points="110.886 263.938 118.526 263.938 121.34 222.77 111.73 222.77 110.886 263.938" transform="matrix(-1 0 0 1 232.226 0)"/>
    <path fill="#C96C38" d="M122.745507,126.25 C122.745507,126.25 12.939507,66.958 91.915507,37.664 C126.225507,24.938 140.859507,38.276 148.609507,56.742 C161.209507,86.762 126.225507,125.078 126.225507,125.078 L122.745507,126.25" transform="matrix(-1 0 0 1 214.692 0)"/>
    <polyline fill="#E1B386" points="111.43 142.446 123.034 149.914 135.418 142.446 135.418 126.25 111.43 126.25 111.43 142.446" transform="matrix(-1 0 0 1 246.848 0)"/>
    <path fill="#E1B386" d="M153.15,82.864 C152.594,82.864 152.058,82.932 151.53,83.026 C148.922,52.618 134.07,52.408 115.802,52.408 C95.7,52.408 79.404,59.548 79.404,92.638 C79.404,114.856 95.7,132.868 115.802,132.868 C133.434,132.868 148.132,119.008 151.48,100.61 C152.106,100.746 152.754,100.824 153.42,100.824 C158.518,100.824 162.38,97.192 162.38,92.094 C162.38,86.996 158.248,82.864 153.15,82.864" transform="matrix(-1 0 0 1 241.784 0)"/>
    <path fill="#000000" d="M104.834418,266.27 L104.834418,261.752 L112.552418,261.752 C112.552418,261.752 121.740418,262.718 121.326418,266.27 L104.834418,266.27" transform="matrix(-1 0 0 1 226.174 0)"/>
    <path fill="#000000" d="M144.373582,266.27 L144.373582,261.752 L136.657582,261.752 C136.657582,261.752 127.469582,262.718 127.883582,266.27 L144.373582,266.27" transform="matrix(-1 0 0 1 272.244 0)"/>
    <path fill="#C96C38" d="M172.88,42.68 C172.88,42.68 160.642,98.416 100.068,73.59 C100.068,73.59 112.21,3.354 172.88,42.68" transform="matrix(-1 0 0 1 272.948 0)"/>
    <path fill="#C96C38" d="M115.316975,87.932 C115.316975,87.932 73.118975,73.078 85.018975,38.874 C85.018975,38.874 142.044975,38.874 115.316975,87.932" transform="matrix(-1 0 0 1 205.351 0)"/>
    <path fill="#394047" d="M103.896,194.93 L143.808,194.728 L136.095227,260.462567 L125.995044,260.462567 C125.121684,227.081058 124.407336,210.390304 123.852,210.390304 C123.296664,210.390304 122.053545,227.081058 120.122642,260.462567 L110.789366,260.462567 L103.896,194.93 Z" transform="matrix(-1 0 0 1 247.704 0)"/>
    <path fill="#FFFFFF" d="M142.942,188.178 L146.754,149.914 C146.754,142.396 145.95,135.306 136.24,135.306 L135.866,135.708 C129.692,142.356 119.324,142.812 112.59,136.734 L111.006,135.306 C101.296,135.306 100.582,142.396 100.582,149.914 L104.306,188.178 C105.14,192.934 142.106,192.934 142.942,188.178" transform="matrix(-1 0 0 1 247.336 0)"/>
    <rect width="10" height="3" x="84.548" y="123.703" fill="#FFCC5C" transform="scale(-1 1) rotate(-22 0 585.89)" rx="1.5"/>
    <path fill="#FFCC5C" d="M100.582,149.914 C100.582,142.396 101.296,135.306 111.006,135.306 L112.59,136.734 C115.956,139.774 124.438,155.938 124.438,155.938 C124.438,155.938 132.778,139.032 135.866,135.708 L136.24,135.306 C145.95,135.306 146.754,142.396 146.754,149.914 L145.077544,196.599798 C127.827544,203.849798 114.994048,203.325798 102.458048,196.599798 L100.582,149.914 Z" transform="matrix(-1 0 0 1 247.336 0)"/>
    <g transform="translate(468)">
      <path fill="#C96C38" d="M49.046,92.602 C49.046,92.602 81.512,115.29 35.012,141.984 C35.012,141.984 18.58,113.018 49.046,92.602"/>
      <path fill="#E1B386" d="M56.66,191.964 C52.76,197.846 47.6,203.14 41.588,203.348 C30.654,203.726 17.088,180.606 17.088,180.606 L9.722,182.91 C9.722,182.91 24.528,216.694 42.2,216.728 C52.612,216.748 62.866,205.84 70.054,195.882 C76.084,187.53 61.662,184.416 56.66,191.964"/>
      <path fill="#E1B386" d="M76.684 192.754C72.65 199.558 68.58 206.202 61.718 206.44 50.782 206.818 38.186 183.618 38.186 183.618L30.204 185.692C30.204 185.692 44.656 219.786 62.33 219.82 72.35 219.84 80.542 209.954 87.678 200.318 94.178 191.544 80.72 185.952 76.684 192.754M152.642 94.104C152.642 94.104 150.294 83.822 156.82 91.108 156.82 91.108 161.056 82.384 160.676 90.898 160.676 90.898 164.964 85.278 162.816 91.97 162.816 91.97 168.16 89.588 164.2 94.552 164.2 94.552 170.952 95.51 157.564 99.516L152.642 94.104M21.588 83.708C21.588 83.708 27.378 74.894 18.718 79.444 18.718 79.444 17.794 69.79 15.178 77.9 15.178 77.9 13.122 71.138 12.798 78.158 12.798 78.158 8.622 74.06 10.6 80.094 10.6 80.094 3.938 78.634 15.086 87.062L21.588 83.708"/>
      <path fill="#FFCC5C" d="M152.706 93.792C152.706 93.792 123.26 115.166 100.636 106.99 88.318 102.538 98.562 124.578 98.562 124.578 98.562 124.578 140.218 127.472 158.43 99.968L152.706 93.792M63.626 106.5C63.626 106.5 34.04 109.014 22.406 82.99L14.058 87.024C14.058 87.024 20.532 115.638 59.532 125.306 59.532 125.306 68.126 110.994 63.626 106.5"/>
      <path fill="#C96C38" d="M52.524,96.524 C52.524,96.524 162.33,37.232 83.356,7.938 C49.046,-4.79 34.412,8.55 26.662,27.016 C14.062,57.036 49.046,95.352 49.046,95.352 L52.524,96.524"/>
      <polyline fill="#E1B386" points="93.048 112.72 81.444 120.186 69.06 112.72 69.06 96.524 93.048 96.524 93.048 112.72"/>
      <path fill="#E1B386" d="M49.214,53.136 C49.768,53.136 50.306,53.206 50.834,53.3 C53.442,22.89 68.294,22.68 86.56,22.68 C106.664,22.68 122.96,29.822 122.96,62.91 C122.96,85.128 106.664,103.14 86.56,103.14 C68.93,103.14 54.232,89.282 50.884,70.884 C50.258,71.018 49.61,71.096 48.944,71.096 C43.846,71.096 39.984,67.464 39.984,62.366 C39.984,57.268 44.116,53.136 49.214,53.136"/>
      <path fill="#000000" d="M15.74,176.294 L17.088,180.606 L9.722,182.91 C9.722,182.91 0.666,184.728 0,181.214 L15.74,176.294"/>
      <g transform="translate(21.034)">
        <path fill="#000000" d="M15.982,179.254 L17.152,183.618 L9.7,185.618 C9.7,185.618 0.576,187.068 0.054,183.53 L15.982,179.254"/>
        <path fill="#C96C38" d="M39.612,12.954 C39.612,12.954 51.85,68.688 112.426,43.862 C112.426,43.862 100.284,-26.372 39.612,12.954"/>
      </g>
      <path fill="#C96C38" d="M50.614,58.206 C50.614,58.206 92.81,43.352 80.91,9.146 C80.91,9.146 23.886,9.146 50.614,58.206"/>
      <path fill="#FFFFFF" d="M62.722,157.886 L58.21,120.186 C58.21,112.668 59.014,105.58 68.726,105.58 L69.1,105.982 C75.274,112.628 85.64,113.086 92.376,107.008 L93.958,105.58 C103.67,105.58 104.382,112.668 104.382,120.186 L98.158,156.86 C97.324,161.616 63.556,162.642 62.722,157.886"/>
      <path fill="#394047" d="M99.054,161.766 L58.21,160.982 C56.0994657,176.916076 54.3337994,187.225895 52.9130012,191.911457 C50.5288319,199.77406 46.1129893,203.042783 45.0673783,203.389273 C40.4888055,204.906502 35.6676649,199.995969 33.7831655,198.312 C30.6376881,195.501234 25.8715558,191.440325 23.0088609,187.891631 C20.8219651,185.18068 20.4982174,182.638963 18.3844481,181.952751 C16.2250431,181.251723 10.3849261,184.301023 10.3061609,185.217691 C10.2215714,186.202145 16.3143274,201.852138 24.8090363,209.759092 C28.821902,213.494305 37.0388656,217.893732 44.1999824,217.199676 C51.4620213,216.495838 57.6494688,210.668866 58.8926405,210.257112 C60.7268239,209.649608 66.0982197,203.026008 70.2375213,196.607604 C73.9716686,190.817432 75.8503154,183.256614 76.4325458,183.338416 C76.7445577,183.382253 78.0680656,187.670719 76.4325458,191.911457 C74.4820611,196.968867 69.3176027,202.237085 66.9046948,203.99471 C63.3719141,206.568079 59.6612911,205.051534 56.3685738,203.389273 C48.9587075,199.648555 45.3645687,188.170804 40.132605,184.77996 C37.7860042,183.259124 30.8684439,186.36742 30.4651535,187.337568 C29.5702543,189.490322 37.7966926,205.443236 47.8733592,214.466296 C54.6594771,220.542864 63.9312548,221.295081 65.6012659,220.813613 C65.9627902,220.709384 71.7480902,219.157123 77.4616197,213.994599 C78.9529514,212.64709 85.9795794,207.293831 90.2890554,196.607604 C92.5644987,190.965176 95.4861469,179.351309 99.054,161.766 Z"/>
      <path fill="#FFCC5C" d="M104.382,120.186 C104.382,112.668 103.67,105.58 93.958,105.58 L92.376,107.008 C89.008,110.046 80.528,126.21 80.528,126.21 C80.528,126.21 72.186,109.304 69.1,105.982 L68.726,105.58 C59.014,105.58 58.21,112.668 58.21,120.186 L55.5941619,163.792 C67.1005803,167.191933 74.8251719,166.919682 82.4890429,167.11699 C89.47698,167.296896 96.7579431,168.249114 99.989644,165.149047 L104.382,120.186 Z"/>
      <path fill="#394047" d="M36.5104171,200.815819 L50.4251905,197.949724 L64.010184,205.364296 C61.9880804,209.282929 60.0527822,211.938928 58.2042893,213.332292 C56.3557963,214.725656 53.5929598,215.611036 49.9157796,215.988431 C45.2982644,214.121582 42.2288125,212.327588 40.7074241,210.606448 C39.1860357,208.885309 37.7870333,205.621766 36.5104171,200.815819 Z"/>
      <rect width="10" height="3" x="45.198" y="92.764" fill="#FFCC5C" transform="scale(-1 1) rotate(-22 0 352.51)" rx="1.5"/>
    </g>
    <rect width="666" height="10" y="266" fill="#394047" rx="5"/>
    <rect width="114" height="10" x="259" y="139" fill="#394047" rx="5"/>
    <rect width="57" height="10" x="325" y="122" fill="#394047" transform="rotate(46 353.5 127)" rx="5"/>
    <rect width="57" height="10" x="325" y="157" fill="#394047" transform="rotate(-48 353.5 162)" rx="5"/>
  </g>
</svg>
