<svg xmlns="http://www.w3.org/2000/svg" width="222" height="275" viewBox="0 0 222 275">
  <g fill="none" fill-rule="evenodd" transform="translate(0 -1)">
    <g transform="translate(48)">
      <path fill="#C96C38" d="M49.046,92.602 C49.046,92.602 81.512,115.29 35.012,141.984 C35.012,141.984 18.58,113.018 49.046,92.602"/>
      <path fill="#E1B386" d="M56.66,191.964 C52.76,197.846 47.6,203.14 41.588,203.348 C30.654,203.726 17.088,180.606 17.088,180.606 L9.722,182.91 C9.722,182.91 24.528,216.694 42.2,216.728 C52.612,216.748 62.866,205.84 70.054,195.882 C76.084,187.53 61.662,184.416 56.66,191.964"/>
      <path fill="#E1B386" d="M76.684 192.754C72.65 199.558 68.58 206.202 61.718 206.44 50.782 206.818 38.186 183.618 38.186 183.618L30.204 185.692C30.204 185.692 44.656 219.786 62.33 219.82 72.35 219.84 80.542 209.954 87.678 200.318 94.178 191.544 80.72 185.952 76.684 192.754M152.642 94.104C152.642 94.104 150.294 83.822 156.82 91.108 156.82 91.108 161.056 82.384 160.676 90.898 160.676 90.898 164.964 85.278 162.816 91.97 162.816 91.97 168.16 89.588 164.2 94.552 164.2 94.552 170.952 95.51 157.564 99.516L152.642 94.104M21.588 83.708C21.588 83.708 27.378 74.894 18.718 79.444 18.718 79.444 17.794 69.79 15.178 77.9 15.178 77.9 13.122 71.138 12.798 78.158 12.798 78.158 8.622 74.06 10.6 80.094 10.6 80.094 3.938 78.634 15.086 87.062L21.588 83.708"/>
      <path fill="#FFCC5C" d="M152.706 93.792C152.706 93.792 123.26 115.166 100.636 106.99 88.318 102.538 98.562 124.578 98.562 124.578 98.562 124.578 140.218 127.472 158.43 99.968L152.706 93.792M63.626 106.5C63.626 106.5 34.04 109.014 22.406 82.99L14.058 87.024C14.058 87.024 20.532 115.638 59.532 125.306 59.532 125.306 68.126 110.994 63.626 106.5"/>
      <path fill="#C96C38" d="M52.524,96.524 C52.524,96.524 162.33,37.232 83.356,7.938 C49.046,-4.79 34.412,8.55 26.662,27.016 C14.062,57.036 49.046,95.352 49.046,95.352 L52.524,96.524"/>
      <polyline fill="#E1B386" points="93.048 112.72 81.444 120.186 69.06 112.72 69.06 96.524 93.048 96.524 93.048 112.72"/>
      <path fill="#E1B386" d="M49.214,53.136 C49.768,53.136 50.306,53.206 50.834,53.3 C53.442,22.89 68.294,22.68 86.56,22.68 C106.664,22.68 122.96,29.822 122.96,62.91 C122.96,85.128 106.664,103.14 86.56,103.14 C68.93,103.14 54.232,89.282 50.884,70.884 C50.258,71.018 49.61,71.096 48.944,71.096 C43.846,71.096 39.984,67.464 39.984,62.366 C39.984,57.268 44.116,53.136 49.214,53.136"/>
      <path fill="#000000" d="M15.74,176.294 L17.088,180.606 L9.722,182.91 C9.722,182.91 0.666,184.728 0,181.214 L15.74,176.294"/>
      <g transform="translate(21.034)">
        <path fill="#000000" d="M15.982,179.254 L17.152,183.618 L9.7,185.618 C9.7,185.618 0.576,187.068 0.054,183.53 L15.982,179.254"/>
        <path fill="#C96C38" d="M39.612,12.954 C39.612,12.954 51.85,68.688 112.426,43.862 C112.426,43.862 100.284,-26.372 39.612,12.954"/>
      </g>
      <path fill="#C96C38" d="M50.614,58.206 C50.614,58.206 92.81,43.352 80.91,9.146 C80.91,9.146 23.886,9.146 50.614,58.206"/>
      <path fill="#FFFFFF" d="M62.722,157.886 L58.21,120.186 C58.21,112.668 59.014,105.58 68.726,105.58 L69.1,105.982 C75.274,112.628 85.64,113.086 92.376,107.008 L93.958,105.58 C103.67,105.58 104.382,112.668 104.382,120.186 L98.158,156.86 C97.324,161.616 63.556,162.642 62.722,157.886"/>
      <path fill="#394047" d="M99.054,161.766 L58.21,160.982 C56.0994657,176.916076 54.3337994,187.225895 52.9130012,191.911457 C50.5288319,199.77406 46.1129893,203.042783 45.0673783,203.389273 C40.4888055,204.906502 35.6676649,199.995969 33.7831655,198.312 C30.6376881,195.501234 25.8715558,191.440325 23.0088609,187.891631 C20.8219651,185.18068 20.4982174,182.638963 18.3844481,181.952751 C16.2250431,181.251723 10.3849261,184.301023 10.3061609,185.217691 C10.2215714,186.202145 16.3143274,201.852138 24.8090363,209.759092 C28.821902,213.494305 37.0388656,217.893732 44.1999824,217.199676 C51.4620213,216.495838 57.6494688,210.668866 58.8926405,210.257112 C60.7268239,209.649608 66.0982197,203.026008 70.2375213,196.607604 C73.9716686,190.817432 75.8503154,183.256614 76.4325458,183.338416 C76.7445577,183.382253 78.0680656,187.670719 76.4325458,191.911457 C74.4820611,196.968867 69.3176027,202.237085 66.9046948,203.99471 C63.3719141,206.568079 59.6612911,205.051534 56.3685738,203.389273 C48.9587075,199.648555 45.3645687,188.170804 40.132605,184.77996 C37.7860042,183.259124 30.8684439,186.36742 30.4651535,187.337568 C29.5702543,189.490322 37.7966926,205.443236 47.8733592,214.466296 C54.6594771,220.542864 63.9312548,221.295081 65.6012659,220.813613 C65.9627902,220.709384 71.7480902,219.157123 77.4616197,213.994599 C78.9529514,212.64709 85.9795794,207.293831 90.2890554,196.607604 C92.5644987,190.965176 95.4861469,179.351309 99.054,161.766 Z"/>
      <path fill="#FFCC5C" d="M104.382,120.186 C104.382,112.668 103.67,105.58 93.958,105.58 L92.376,107.008 C89.008,110.046 80.528,126.21 80.528,126.21 C80.528,126.21 72.186,109.304 69.1,105.982 L68.726,105.58 C59.014,105.58 58.21,112.668 58.21,120.186 L55.5941619,163.792 C67.1005803,167.191933 74.8251719,166.919682 82.4890429,167.11699 C89.47698,167.296896 96.7579431,168.249114 99.989644,165.149047 L104.382,120.186 Z"/>
      <path fill="#394047" d="M36.5104171,200.815819 L50.4251905,197.949724 L64.010184,205.364296 C61.9880804,209.282929 60.0527822,211.938928 58.2042893,213.332292 C56.3557963,214.725656 53.5929598,215.611036 49.9157796,215.988431 C45.2982644,214.121582 42.2288125,212.327588 40.7074241,210.606448 C39.1860357,208.885309 37.7870333,205.621766 36.5104171,200.815819 Z"/>
      <rect width="10" height="3" x="45.198" y="92.764" fill="#FFCC5C" transform="scale(-1 1) rotate(-22 0 352.51)" rx="1.5"/>
    </g>
    <rect width="222" height="10" y="266" fill="#394047" rx="5"/>
  </g>
</svg>
