<svg xmlns="http://www.w3.org/2000/svg" width="222" height="245" viewBox="0 0 222 245">
  <g fill="none" fill-rule="evenodd" transform="matrix(-1 0 0 1 222 0)">
    <rect width="222" height="10" fill="#394047" rx="5" transform="translate(0 235)"/>
    <path fill="#C96C38" d="M72.1208013,91.609835 C72.1208013,91.609835 102.586801,114.297835 56.0868013,140.991835 C56.0868013,140.991835 41.6568013,112.023835 72.1208013,91.609835"/>
    <path fill="#FFCC5C" d="M87.1828013,126.337835 C87.1828013,126.337835 72.9528013,130.733835 70.7008013,134.391835 C68.9148013,137.289835 75.4308013,141.691835 81.8868013,146.673835 L78.6668013,154.173835 C78.6668013,154.173835 45.7848013,147.017835 62.2008013,126.377835 C69.1908013,117.589835 80.2568013,110.435835 90.8388013,106.035835 C90.8388013,106.035835 100.438801,111.709835 87.1828013,126.337835"/>
    <polyline fill="#E1B386" points="121.377 233.218 113.739 233.218 114.581 192.052 124.193 192.052 121.377 233.218"/>
    <polyline fill="#E1B386" points="107.207 233.218 99.569 233.218 96.755 192.052 106.365 192.052 107.207 233.218"/>
    <path fill="#C96C38" d="M75.6008013,95.529835 C75.6008013,95.529835 185.406801,36.239835 106.430801,6.943835 C72.1208013,-5.782165 57.4868013,7.557835 49.7368013,26.023835 C37.1388013,56.043835 72.1208013,94.359835 72.1208013,94.359835 L75.6008013,95.529835"/>
    <polyline fill="#E1B386" points="97.667 111.728 109.271 119.194 121.655 111.728 121.655 95.53 97.667 95.53 97.667 111.728"/>
    <path fill="#E1B386" d="M72.2908013,52.143835 C72.8448013,52.143835 73.3828013,52.213835 73.9108013,52.307835 C76.5188013,21.897835 91.3688013,21.687835 109.636801,21.687835 C129.738801,21.687835 146.034801,28.829835 146.034801,61.917835 C146.034801,84.135835 129.738801,102.147835 109.636801,102.147835 C92.0048013,102.147835 77.3068013,88.289835 73.9608013,69.891835 C73.3328013,70.025835 72.6868013,70.103835 72.0208013,70.103835 C66.9228013,70.103835 63.0608013,66.471835 63.0608013,61.373835 C63.0608013,56.275835 67.1928013,52.143835 72.2908013,52.143835"/>
    <path fill="#000000" d="M107.206801 235.551835L107.206801 231.033835 99.4908013 231.033835C99.4908013 231.033835 90.3028013 231.999835 90.7168013 235.551835L107.206801 235.551835M113.738801 235.551835L113.738801 231.033835 121.454801 231.033835C121.454801 231.033835 130.642801 231.999835 130.228801 235.551835L113.738801 235.551835"/>
    <path fill="#C96C38" d="M83.7228013,11.961835 C83.7228013,11.961835 95.9608013,67.695835 156.536801,42.869835 C156.536801,42.869835 144.394801,-27.364165 83.7228013,11.961835"/>
    <rect width="10" height="3" x="68.198" y="91.764" fill="#FFCC5C" transform="scale(-1 1) rotate(-22 0 469.834)" rx="1.5"/>
    <path fill="#C96C38" d="M73.6908013,57.211835 C73.6908013,57.211835 115.886801,42.359835 103.986801,8.153835 C103.986801,8.153835 46.9608013,8.153835 73.6908013,57.211835"/>
    <path fill="#FFCC5C" d="M132.228801,127.951835 C132.228801,127.951835 144.768801,130.733835 147.020801,134.391835 C148.806801,137.289835 143.300801,142.035835 136.844801,147.017835 L139.260801,154.433835 C139.260801,154.433835 171.936801,147.017835 155.520801,126.377835 C148.530801,117.589835 139.372801,110.763835 128.790801,106.363835 C128.790801,106.363835 118.972801,113.323835 132.228801,127.951835"/>
    <path fill="#394047" d="M129.676801,164.209835 L89.7648013,164.007835 L98.6414833,229.828724 L107.768961,229.828724 C108.491747,198.514179 109.14236,182.856907 109.720801,182.856907 C110.299242,182.856907 111.532433,198.514179 113.420374,229.828724 L122.650607,229.828724 L129.676801,164.209835 Z"/>
    <path fill="#FFFFFF" d="M90.2628013,157.457835 L86.4508013,119.193835 C86.4508013,111.675835 87.2548013,104.587835 96.9648013,104.587835 L97.3388013,104.989835 C103.512801,111.635835 113.880801,112.091835 120.614801,106.015835 L122.198801,104.587835 C131.908801,104.587835 132.622801,111.675835 132.622801,119.193835 L128.898801,157.457835 C128.064801,162.215835 91.0968013,162.215835 90.2628013,157.457835"/>
    <path fill="#FFCC5C" d="M132.622801,119.193835 C132.622801,111.675835 131.908801,104.587835 122.198801,104.587835 L120.614801,106.015835 C117.248801,109.053835 108.766801,125.217835 108.766801,125.217835 C108.766801,125.217835 100.424801,108.311835 97.3388013,104.989835 L96.9648013,104.587835 C87.2548013,104.587835 86.4508013,111.675835 86.4508013,119.193835 L89.0491522,166.408246 C106.299152,173.658246 117.753404,172.52672 130.289404,165.80072 L132.622801,119.193835 Z"/>
    <path fill="#E1B386" d="M136.936801 147.303835C136.936801 147.303835 129.544801 140.713835 132.516801 149.465835 132.516801 149.465835 123.370801 148.907835 130.556801 152.541835 130.556801 152.541835 123.942801 153.465835 130.446801 154.801835 130.446801 154.801835 126.008801 158.095835 131.930801 157.137835 131.930801 157.137835 129.588801 163.139835 139.092801 153.975835L136.936801 147.303835M81.6968013 147.055835C81.6968013 147.055835 89.6168013 141.009835 85.9088013 149.475835 85.9088013 149.475835 95.0688013 149.701835 87.6008013 152.707835 87.6008013 152.707835 94.1108013 154.193835 87.5168013 154.967835 87.5168013 154.967835 91.6568013 158.629835 85.8388013 157.169835 85.8388013 157.169835 87.6608013 163.349835 78.9728013 153.407835L81.6968013 147.055835"/>
  </g>
</svg>
