<svg xmlns="http://www.w3.org/2000/svg" width="222" height="246" viewBox="0 0 222 246">
  <g fill="none" fill-rule="evenodd">
    <g transform="translate(56)">
      <path fill="#C96C38" d="M15.8165037,92.328 C15.8165037,92.328 -14.6494963,115.016 31.8505037,141.712 C31.8505037,141.712 46.2825037,112.744 15.8165037,92.328" transform="matrix(-1 0 0 1 41.283 0)"/>
      <polyline fill="#E1B386" points="67.686 233.938 75.324 233.938 74.482 192.77 64.87 192.77 67.686 233.938" transform="matrix(-1 0 0 1 140.194 0)"/>
      <path fill="#E1B386" d="M19.6871967,165.378 C19.6871967,165.378 10.6531967,170.672 20.3631967,170.438 C20.3631967,170.438 16.9331967,179.434 22.8311967,173.37 C22.8311967,173.37 21.6831967,180.292 25.0631967,174.188 C25.0631967,174.188 26.9751967,179.674 27.8731967,173.434 C27.8731967,173.434 33.1571967,177.666 26.9491967,165.258 L19.6871967,165.378" transform="matrix(-1 0 0 1 45.835 0)"/>
      <path fill="#FFCC5C" d="M19.6618747,131.044 C19.6618747,131.044 36.9098747,138.068 37.3718747,166.366 L50.6378747,166.022 C50.6378747,166.022 48.1918747,123.294 25.5618747,107.166 C25.5618747,107.166 9.51387466,112.95 19.6618747,131.044" transform="matrix(-1 0 0 1 66.936 0)"/>
      <path fill="#E1B386" d="M101.694803,165.378 C101.694803,165.378 110.728803,170.672 101.018803,170.438 C101.018803,170.438 104.448803,179.434 98.5508033,173.37 C98.5508033,173.37 99.6988033,180.292 96.3188033,174.188 C96.3188033,174.188 94.4068033,179.674 93.5088033,173.434 C93.5088033,173.434 88.2248033,177.666 94.4328033,165.258 L101.694803,165.378" transform="matrix(-1 0 0 1 196.929 0)"/>
      <path fill="#FFCC5C" d="M101.722125,131.044 C101.722125,131.044 84.4741253,138.068 84.0121253,166.366 L70.7441253,166.022 C70.7441253,166.022 73.1901253,123.294 95.8221253,107.166 C95.8221253,107.166 111.870125,112.95 101.722125,131.044" transform="matrix(-1 0 0 1 175.83 0)"/>
      <polyline fill="#E1B386" points="47.886 233.938 55.526 233.938 58.34 192.77 48.73 192.77 47.886 233.938" transform="matrix(-1 0 0 1 106.226 0)"/>
      <path fill="#C96C38" d="M59.745507,96.25 C59.745507,96.25 -50.060493,36.958 28.915507,7.664 C63.225507,-5.062 77.859507,8.276 85.609507,26.742 C98.209507,56.762 63.225507,95.078 63.225507,95.078 L59.745507,96.25" transform="matrix(-1 0 0 1 88.692 0)"/>
      <polyline fill="#E1B386" points="48.43 112.446 60.034 119.914 72.418 112.446 72.418 96.25 48.43 96.25 48.43 112.446" transform="matrix(-1 0 0 1 120.848 0)"/>
      <path fill="#E1B386" d="M90.15,52.864 C89.594,52.864 89.058,52.932 88.53,53.026 C85.922,22.618 71.07,22.408 52.802,22.408 C32.7,22.408 16.404,29.548 16.404,62.638 C16.404,84.856 32.7,102.868 52.802,102.868 C70.434,102.868 85.132,89.008 88.48,70.61 C89.106,70.746 89.754,70.824 90.42,70.824 C95.518,70.824 99.38,67.192 99.38,62.094 C99.38,56.996 95.248,52.864 90.15,52.864" transform="matrix(-1 0 0 1 115.784 0)"/>
      <path fill="#000000" d="M41.834418,236.27 L41.834418,231.752 L49.552418,231.752 C49.552418,231.752 58.740418,232.718 58.326418,236.27 L41.834418,236.27" transform="matrix(-1 0 0 1 100.174 0)"/>
      <path fill="#000000" d="M81.373582,236.27 L81.373582,231.752 L73.657582,231.752 C73.657582,231.752 64.469582,232.718 64.883582,236.27 L81.373582,236.27" transform="matrix(-1 0 0 1 146.244 0)"/>
      <path fill="#C96C38" d="M109.88,12.68 C109.88,12.68 97.642,68.416 37.068,43.59 C37.068,43.59 49.21,-26.646 109.88,12.68" transform="matrix(-1 0 0 1 146.948 0)"/>
      <path fill="#C96C38" d="M52.316975,57.932 C52.316975,57.932 10.118975,43.078 22.018975,8.874 C22.018975,8.874 79.044975,8.874 52.316975,57.932" transform="matrix(-1 0 0 1 79.351 0)"/>
      <path fill="#394047" d="M40.896,164.93 L80.808,164.728 L73.0952272,230.462567 L62.9950444,230.462567 C62.1216837,197.081058 61.4073356,180.390304 60.852,180.390304 C60.2966644,180.390304 59.053545,197.081058 57.1226417,230.462567 L47.7893663,230.462567 L40.896,164.93 Z" transform="matrix(-1 0 0 1 121.704 0)"/>
      <path fill="#FFFFFF" d="M83.754,119.914 C83.754,112.396 82.95,105.306 73.24,105.306 L72.866,105.708 C66.692,112.356 56.324,112.812 49.59,106.734 L48.006,105.306 C38.296,105.306 37.582,112.396 37.582,119.914 L41.306,158.178 C42.14,162.934 79.106,162.934 79.942,158.178 L83.754,119.914 Z" transform="matrix(-1 0 0 1 121.336 0)"/>
      <rect width="10" height="3" x="21.548" y="93.703" fill="#FFCC5C" transform="scale(-1 1) rotate(-22 0 231.783)" rx="1.5"/>
      <path fill="#FFCC5C" d="M37.582,119.914 C37.582,112.396 38.296,105.306 48.006,105.306 L49.59,106.734 C52.956,109.774 61.438,125.938 61.438,125.938 C61.438,125.938 69.778,109.032 72.866,105.708 L73.24,105.306 C82.95,105.306 83.754,112.396 83.754,119.914 L82.0775441,166.599798 C64.8275441,173.849798 51.9940479,173.325798 39.4580479,166.599798 L37.582,119.914 Z" transform="matrix(-1 0 0 1 121.336 0)"/>
    </g>
    <rect width="222" height="10" y="236" fill="#394047" rx="5"/>
  </g>
</svg>
