<svg xmlns="http://www.w3.org/2000/svg" width="222" height="245" viewBox="0 0 222 245">
  <g fill="none" fill-rule="evenodd">
    <rect width="222" height="10" fill="#394047" rx="5" transform="translate(0 235)"/>
    <path fill="#E1B386" d="M183.164782,101.75359 C183.164782,101.75359 182.460782,90.8535898 187.930782,99.3815898 C187.930782,99.3815898 193.702782,91.1615898 191.906782,99.8015898 C191.906782,99.8015898 197.218782,94.7655898 193.918782,101.25159 C193.918782,101.25159 199.774782,99.6995898 194.906782,104.12159 C194.906782,104.12159 201.650782,106.21359 187.302782,108.09759 L183.164782,101.75359"/>
    <path fill="#FFCC5C" d="M182.940782,101.26359 C182.940782,101.26359 151.362782,117.27559 130.460782,106.40959 C119.078782,100.49159 126.398782,124.13759 126.398782,124.13759 C126.398782,124.13759 166.410782,129.54759 187.840782,108.26159 L182.940782,101.26359"/>
    <path fill="#C96C38" d="M76.0067819,91.6095898 C76.0067819,91.6095898 106.472782,114.29759 59.9727819,140.99359 C59.9727819,140.99359 45.5407819,112.02559 76.0067819,91.6095898"/>
    <polygon fill="#E1B386" points="115.411 233.22 116.253 192.052 125.865 192.052 123.049 233.22"/>
    <polyline fill="#E1B386" points="108.881 233.22 101.243 233.22 98.427 192.052 108.037 192.052 108.881 233.22"/>
    <path fill="#C96C38" d="M79.4867819,95.5315898 C79.4867819,95.5315898 189.292782,36.2395898 110.316782,6.94558981 C76.0067819,-5.78041019 61.3727819,7.55758981 53.6227819,26.0235898 C41.0227819,56.0435898 76.0067819,94.3595898 76.0067819,94.3595898 L79.4867819,95.5315898"/>
    <path fill="#E1B386" d="M58.9727819,164.84759 C58.9727819,164.84759 64.6567819,174.55159 55.6827819,169.23359 C55.6827819,169.23359 54.1727819,179.46359 51.8307819,170.68359 C51.8307819,170.68359 49.2727819,177.77359 49.3107819,170.27959 C49.3107819,170.27959 44.6387819,174.41559 47.0747819,168.09759 C47.0747819,168.09759 39.9007819,169.28759 52.2327819,160.92359 L58.9727819,164.84759"/>
    <polyline fill="#E1B386" points="122.959 111.728 111.355 119.196 98.971 111.728 98.971 95.532 122.959 95.532 122.959 111.728"/>
    <path fill="#E1B386" d="M76.1747819,52.1455898 C76.7307819,52.1455898 77.2667819,52.2135898 77.7947819,52.3075898 C80.4027819,21.8995898 95.2547819,21.6895898 113.522782,21.6895898 C133.624782,21.6895898 149.920782,28.8295898 149.920782,61.9195898 C149.920782,84.1375898 133.624782,102.14959 113.522782,102.14959 C95.8907819,102.14959 81.1927819,88.2895898 77.8447819,69.8915898 C77.2187819,70.0275898 76.5707819,70.1055898 75.9047819,70.1055898 C70.8067819,70.1055898 66.9447819,66.4735898 66.9447819,61.3755898 C66.9447819,56.2775898 71.0787819,52.1455898 76.1747819,52.1455898"/>
    <path fill="#000000" d="M108.880782 235.55159L108.880782 231.03359 101.162782 231.03359C101.162782 231.03359 91.9747819 231.99959 92.3887819 235.55159L108.880782 235.55159M115.410782 235.55159L115.410782 231.03359 123.126782 231.03359C123.126782 231.03359 132.314782 231.99959 131.900782 235.55159L115.410782 235.55159"/>
    <path fill="#FFCC5C" d="M88.4487819,133.65359 C88.4487819,133.65359 84.3607819,139.48559 77.0387819,146.96959 C72.2667819,151.84359 60.7467819,166.04359 60.7467819,166.04359 L50.6627819,160.92359 C50.6627819,160.92359 67.4827819,140.01959 68.7367819,138.12759 C75.1467819,128.46359 85.6227819,109.09359 92.4167819,106.11559 C92.4167819,106.11559 103.408782,117.14359 88.4487819,133.65359"/>
    <path fill="#C96C38" d="M87.6087819,11.9615898 C87.6087819,11.9615898 99.8467819,67.6975898 160.420782,42.8715898 C160.420782,42.8715898 148.278782,-27.3644102 87.6087819,11.9615898"/>
    <path fill="#C96C38" d="M77.5747819,57.2135898 C77.5747819,57.2135898 119.772782,42.3595898 107.872782,8.15558981 C107.872782,8.15558981 50.8467819,8.15558981 77.5747819,57.2135898"/>
    <path fill="#415060" d="M131.348782,164.21159 L91.4367819,164.00959 L99.9450644,229.611244 L109.489115,229.611244 C110.794678,196.527809 111.794634,179.986091 112.488984,179.986091 C113.183334,179.986091 113.936632,196.527809 114.74888,229.611244 L124.164315,229.611244 L131.348782,164.21159 Z"/>
    <path fill="#FFFFFF" d="M91.9347819,157.45959 L88.1227819,119.19559 C88.1227819,111.67759 88.9267819,104.58759 98.6367819,104.58759 L99.0107819,104.98959 C105.184782,111.63759 115.552782,112.09359 122.288782,106.01559 L123.870782,104.58759 C133.580782,104.58759 134.294782,111.67759 134.294782,119.19559 L130.572782,157.45959 C129.736782,162.21559 92.7707819,162.21559 91.9347819,157.45959"/>
    <path fill="#FFCC5C" d="M134.294782,119.19559 C134.294782,111.67759 133.580782,104.58759 123.870782,104.58759 L122.288782,106.01559 C118.920782,109.05559 110.438782,125.21959 110.438782,125.21959 C110.438782,125.21959 102.098782,108.31359 99.0107819,104.98959 L98.6367819,104.58759 C88.9267819,104.58759 88.1227819,111.67759 88.1227819,119.19559 L90.7127697,166.189417 C107.96277,173.439417 119.457112,172.915417 131.993112,166.189417 L134.294782,119.19559 Z"/>
    <rect width="10" height="3" x="72.198" y="92.764" fill="#FFCC5C" transform="scale(-1 1) rotate(-22 0 491.412)" rx="1.5"/>
  </g>
</svg>
