<svg xmlns="http://www.w3.org/2000/svg" width="999" height="246" viewBox="0 0 999 246">
  <g fill="none" fill-rule="evenodd">
    <rect width="999" height="10" y="236" fill="#394047" rx="5"/>
    <g transform="translate(93)">
      <g transform="matrix(-1 0 0 1 348 0)">
        <polyline fill="#E1B386" points="67.686 233.938 75.324 233.938 74.482 192.77 64.87 192.77 67.686 233.938" transform="matrix(-1 0 0 1 140.194 0)"/>
        <path fill="#E1B386" d="M26.1216633,170.438 C26.1216633,170.438 22.6916633,179.434 28.5896633,173.37 C28.5896633,173.37 27.4416633,180.292 30.8216633,174.188 C30.8216633,174.188 32.7336633,179.674 33.6316633,173.434 C33.6316633,173.434 38.9156633,177.666 32.7076633,165.258 C31.3228803,156.549185 30.2978963,150.599177 29.6327115,147.407974 C27.9497038,139.333798 26.3264863,134.577178 25.4456633,132.825565 C21.299885,124.581229 18.4801631,137.151005 17.6628164,137.164511 C17.5967801,137.165602 15.5945323,137.918593 15.8960343,138.44064 C16.7077007,139.846029 20.7516062,142.696682 22.3460802,148.296745 C23.1694893,151.188697 24.2026837,156.882449 25.4456633,165.378 C25.4456633,165.378 16.4116633,170.672 26.1216633,170.438 Z" transform="matrix(-1 0 0 1 51.594 0)"/>
        <path fill="#FFCC5C" d="M38.3443619,142.261669 C41.3563204,147.621411 55.4488462,148.804054 48.9401269,132.102371 C45.1956055,122.493752 39.6230615,113.056005 31.3585019,107.166 C31.3585019,107.166 15.3105019,112.95 25.4585019,131.044 C25.4585019,131.044 29.2719966,127.412296 33.4048281,132.102371 C34.7806561,133.663707 37.0483226,139.955383 38.3443619,142.261669 Z" transform="matrix(-1 0 0 1 72.733 0)"/>
        <path fill="#E1B386" d="M98.6408555,170.438 C98.6408555,170.438 102.070856,179.434 96.1728555,173.37 C96.1728555,173.37 97.3208555,180.292 93.9408555,174.188 C93.9408555,174.188 92.0288555,179.674 91.1308555,173.434 C91.1308555,173.434 85.8468555,177.666 92.0548555,165.258 C93.3017308,156.40077 94.2468542,150.579881 94.8902257,147.795332 C96.4686383,140.96387 98.1743845,138.709738 98.6408555,137.721338 C104.125558,126.099869 104.464994,139.929354 105.502216,139.946493 C105.734714,139.950335 103.149277,142.621747 101.395685,149.56319 C100.737828,152.167261 100.044885,157.438865 99.3168555,165.378 C99.3168555,165.378 108.350856,170.672 98.6408555,170.438 Z" transform="matrix(-1 0 0 1 194.55 0)"/>
        <path fill="#FFCC5C" d="M83.4530536,142.602113 C80.7575596,147.863148 67.0014124,152.468731 71.7223576,137.747475 C75.3837126,126.330324 81.4179776,114.210646 91.3035442,107.166 C91.3035442,107.166 107.351544,112.95 97.2035442,131.044 C97.2035442,131.044 91.7760014,126.939861 87.0364853,133.429725 C86.0366832,134.798763 84.3662669,140.819714 83.4530536,142.602113 Z" transform="matrix(-1 0 0 1 171.312 0)"/>
        <polyline fill="#E1B386" points="47.886 233.938 55.526 233.938 58.34 192.77 48.73 192.77 47.886 233.938" transform="matrix(-1 0 0 1 106.226 0)"/>
        <path fill="#171514" d="M41.8216701,96.25 C41.8216701,96.25 -45.5926572,36.958 33.3833428,7.664 C67.6933428,-5.062 82.3273428,8.276 90.0773428,26.742 C102.677343,56.762 67.6933428,95.078 67.6933428,95.078 L64.2133428,96.25 L41.8216701,96.25 Z" transform="matrix(-1 0 0 1 93.16 0)"/>
        <polyline fill="#E1B386" points="48.43 112.446 60.034 119.914 72.418 112.446 72.418 96.25 48.43 96.25 48.43 112.446" transform="matrix(-1 0 0 1 120.848 0)"/>
        <path fill="#E1B386" d="M90.15,52.864 C89.594,52.864 89.058,52.932 88.53,53.026 C85.922,22.618 71.07,22.408 52.802,22.408 C32.7,22.408 16.404,29.548 16.404,62.638 C16.404,84.856 32.7,102.868 52.802,102.868 C70.434,102.868 85.132,89.008 88.48,70.61 C89.106,70.746 89.754,70.824 90.42,70.824 C95.518,70.824 99.38,67.192 99.38,62.094 C99.38,56.996 95.248,52.864 90.15,52.864" transform="matrix(-1 0 0 1 115.784 0)"/>
        <path fill="#000000" d="M41.834418,236.27 L41.834418,231.752 L49.552418,231.752 C49.552418,231.752 58.740418,232.718 58.326418,236.27 L41.834418,236.27" transform="matrix(-1 0 0 1 100.174 0)"/>
        <path fill="#000000" d="M81.373582,236.27 L81.373582,231.752 L73.657582,231.752 C73.657582,231.752 64.469582,232.718 64.883582,236.27 L81.373582,236.27" transform="matrix(-1 0 0 1 146.244 0)"/>
        <path fill="#171514" d="M109.88,12.68 C109.88,12.68 97.642,68.416 37.068,43.59 C37.068,43.59 49.21,-26.646 109.88,12.68" transform="matrix(-1 0 0 1 146.948 0)"/>
        <path fill="#171514" d="M52.316975,57.932 C52.316975,57.932 10.118975,43.078 22.018975,8.874 C22.018975,8.874 79.044975,8.874 52.316975,57.932" transform="matrix(-1 0 0 1 79.351 0)"/>
        <path fill="#394047" d="M42.392261,164.93 L82.304261,164.728 L78.4999536,197.151423 C82.9135395,201.516705 84.7463005,203.692264 83.9982366,203.678098 C83.2978708,203.664835 61.0322478,207.843245 39.272845,203.678098 C38.2849021,203.488987 40.4327291,201.106488 45.7163259,196.5306 L42.392261,164.93 Z" transform="matrix(-1 0 0 1 123.2 0)"/>
        <path fill="#FFCC5C" d="M79.942,158.178 L83.754,119.914 C83.754,112.396 82.95,105.306 73.24,105.306 L72.866,105.708 C66.692,112.356 56.324,112.812 49.59,106.734 L48.006,105.306 C38.296,105.306 37.582,112.396 37.582,119.914 L41.306,158.178 C42.14,162.934 79.106,162.934 79.942,158.178" transform="matrix(-1 0 0 1 121.336 0)"/>
        <path fill="#FFCC5C" d="M37.582,119.914 C37.582,112.396 38.296,105.306 48.006,105.306 L49.59,106.734 C52.956,109.774 61.438,125.938 61.438,125.938 C61.438,125.938 69.778,109.032 72.866,105.708 L73.24,105.306 C82.95,105.306 83.754,112.396 83.754,119.914 L82.0775441,166.599798 C64.8275441,173.849798 51.9940479,173.325798 39.4580479,166.599798 L37.582,119.914 Z" transform="matrix(-1 0 0 1 121.336 0)"/>
      </g>
      <g transform="translate(708 3)">
        <polyline fill="#E1B386" points="33.492 230.938 41.13 230.938 40.288 189.77 30.676 189.77 33.492 230.938"/>
        <path fill="#E1B386" d="M80.528,167.438 C80.528,167.438 77.098,176.434 82.996,170.37 C82.996,170.37 81.848,177.292 85.228,171.188 C85.228,171.188 87.14,176.674 88.038,170.434 C88.038,170.434 93.322,174.666 87.114,162.258 C85.7292169,153.549185 84.704233,147.599177 84.0390482,144.407974 C82.3560405,136.333798 78.806905,124.604818 77.9260821,122.853205 C73.7803037,114.608869 66.5771206,124.162446 66.8786226,124.684492 C67.6902891,126.089881 75.1579428,139.696682 76.7524169,145.296745 C77.575826,148.188697 78.6090204,153.882449 79.852,162.378 C79.852,162.378 70.818,167.672 80.528,167.438 Z"/>
        <path fill="#FFCC5C" d="M79.8086275,123.53946 C76.1933195,115.956358 71.2829503,108.910291 64.626,104.166 C64.626,104.166 48.578,109.95 58.726,128.044 C58.726,128.044 62.5394946,124.412296 66.6723261,129.102371 C68.0481541,130.663707 80.6817004,125.370729 79.8086275,123.53946 Z"/>
        <path fill="#E1B386" d="M10.09,167.438 C10.09,167.438 13.52,176.434 7.622,170.37 C7.622,170.37 8.77,177.292 5.39,171.188 C5.39,171.188 3.478,176.674 2.58,170.434 C2.58,170.434 -2.704,174.666 3.504,162.258 C4.75087528,153.40077 5.69599868,147.579881 6.33937021,144.795332 C7.91778283,137.96387 12.3783589,125.169076 12.8448299,124.180677 C18.329532,112.559208 21.98832,125.296989 23.0255429,125.314129 C23.25804,125.317971 14.5984211,139.621747 12.8448299,146.56319 C12.1869728,149.167261 11.4940295,154.438865 10.766,162.378 C10.766,162.378 19.8,167.672 10.09,167.438 Z"/>
        <path fill="#FFCC5C" d="M10.5349485,124.118556 C14.1752283,116.31594 19.1652862,109.030848 25.992,104.166 C25.992,104.166 42.04,109.95 31.892,128.044 C31.892,128.044 26.4644572,123.939861 21.7249411,130.429725 C20.725139,131.798763 8.90384453,127.614682 10.5349485,124.118556 Z"/>
        <polyline fill="#E1B386" points="47.66 230.938 55.3 230.938 58.114 189.77 48.504 189.77 47.66 230.938"/>
        <path fill="#534032" d="M49.6623273,94.25 C49.6623273,94.25 -37.752,34.958 41.224,5.664 C75.534,-7.062 83.691679,13.1529909 91.441679,31.6189909 C104.041679,61.6389909 58.9584712,95.6383059 54.5628907,95.6383059 L49.6623273,94.25 Z"/>
        <polyline fill="#E1B386" points="33.582 109.446 45.186 116.914 57.57 109.446 57.57 93.25 33.582 93.25 33.582 109.446"/>
        <path fill="#E1B386" d="M80.366,49.864 C79.81,49.864 79.274,49.932 78.746,50.026 C76.138,19.618 61.286,19.408 43.018,19.408 C22.916,19.408 6.62,26.548 6.62,59.638 C6.62,81.856 22.916,99.868 43.018,99.868 C60.65,99.868 75.348,86.008 78.696,67.61 C79.322,67.746 79.97,67.824 80.636,67.824 C85.734,67.824 89.596,64.192 89.596,59.094 C89.596,53.996 85.464,49.864 80.366,49.864"/>
        <path fill="#000000" d="M47.66 233.27L47.66 228.752 55.378 228.752C55.378 228.752 64.566 229.718 64.152 233.27L47.66 233.27M41.13 233.27L41.13 228.752 33.414 228.752C33.414 228.752 24.226 229.718 24.64 233.27L41.13 233.27"/>
        <path fill="#534032" d="M73.932,12.68 C73.932,12.68 61.694,68.416 1.12,43.59 C1.12,43.59 13.262,-26.646 73.932,12.68"/>
        <path fill="#534032" d="M76.966,54.932 C76.966,54.932 34.768,40.078 46.668,5.874 C46.668,5.874 103.694,5.874 76.966,54.932"/>
        <path fill="#394047" d="M25.192,161.93 L65.104,161.728 L59.2196496,202.468477 C58.5962965,202.259208 54.589778,202.259208 47.2000942,202.468477 C46.250141,202.495379 45.0967693,179.981405 44.1058602,179.989437 C43.2818011,179.996117 42.6260652,202.527971 41.7774197,202.519477 C37.6575055,202.478244 33.6041798,202.461244 29.6174426,202.468477 L25.192,161.93 Z"/>
        <path fill="#FFCC5C" d="M64.606,155.178 L68.418,116.914 C68.418,109.396 67.614,102.306 57.904,102.306 L57.53,102.708 C51.356,109.356 40.988,109.812 34.254,103.734 L32.67,102.306 C22.96,102.306 22.246,109.396 22.246,116.914 L25.97,155.178 C26.804,159.934 63.77,159.934 64.606,155.178"/>
        <path fill="#FFCC5C" d="M22.246,116.914 C22.246,109.396 22.96,102.306 32.67,102.306 L34.254,103.734 C37.62,106.774 46.102,122.938 46.102,122.938 C46.102,122.938 54.442,106.032 57.53,102.708 L57.904,102.306 C67.614,102.306 68.418,109.396 68.418,116.914 L66.7415441,163.599798 C49.4915441,170.849798 36.6580479,170.325798 24.1220479,163.599798 L22.246,116.914 Z"/>
      </g>
      <g transform="translate(385 3)">
        <path fill="#E1B386" d="M88.1365618,117.780779 C88.1365618,117.780779 73.3007805,125.117921 71.0487805,128.775921 C69.2627805,131.673921 76.2366813,140.032194 82.6926813,145.014194 L80.2867253,151.227811 C80.2867253,151.227811 52.5852098,139.929084 69.0012098,119.289084 C75.9912098,110.501084 81.2105618,108.435835 91.7925618,104.035835 C91.7925618,104.035835 101.392562,109.709835 88.1365618,124.337835" transform="matrix(-1 0 0 1 158.954 0)"/>
        <polyline fill="#E1B386" points="41.445 231.218 33.807 231.218 34.649 190.052 44.261 190.052 41.445 231.218" transform="matrix(-1 0 0 1 78.068 0)"/>
        <polyline fill="#E1B386" points="61.245 231.218 53.607 231.218 50.793 190.052 60.403 190.052 61.245 231.218" transform="matrix(-1 0 0 1 112.038 0)"/>
        <path fill="#F9C937" d="M63.5439278,70.7449397 C63.5439278,70.7449397 146.992665,38.3574947 68.0166646,9.06149469 C33.7066646,-3.66450531 23.8408815,9.35970232 16.0908815,27.8257023 C3.49288145,57.8457023 34.7812654,85.3770313 38.7231409,85.3770313 L63.5439278,70.7449397 Z" transform="matrix(-1 0 0 1 115.113 0)"/>
        <polyline fill="#E1B386" points="36.345 109.728 47.949 117.194 60.333 109.728 60.333 93.53 36.345 93.53 36.345 109.728" transform="matrix(-1 0 0 1 96.678 0)"/>
        <path fill="#E1B386" d="M21.1951987,50.143835 C21.7491987,50.143835 22.2871987,50.213835 22.8151987,50.307835 C25.4231987,19.897835 40.2731987,19.687835 58.5411987,19.687835 C78.6431987,19.687835 94.9391987,26.829835 94.9391987,59.917835 C94.9391987,82.135835 78.6431987,100.147835 58.5411987,100.147835 C40.9091987,100.147835 26.2111987,86.289835 22.8651987,67.891835 C22.2371987,68.025835 21.5911987,68.103835 20.9251987,68.103835 C15.8271987,68.103835 11.9651987,64.471835 11.9651987,59.373835 C11.9651987,54.275835 16.0971987,50.143835 21.1951987,50.143835" transform="matrix(-1 0 0 1 106.904 0)"/>
        <path fill="#000000" d="M67.2967807,233.551835 L67.2967807,229.033835 L59.5807807,229.033835 C59.5807807,229.033835 50.3927807,229.999835 50.8067807,233.551835 L67.2967807,233.551835" transform="matrix(-1 0 0 1 118.09 0)"/>
        <path fill="#000000" d="M27.7576167,233.551835 L27.7576167,229.033835 L35.4736167,229.033835 C35.4736167,229.033835 44.6616167,229.999835 44.2476167,233.551835 L27.7576167,233.551835" transform="matrix(-1 0 0 1 72.019 0)"/>
        <path fill="#F9C937" d="M17.5550244,32.7901096 C21.9437846,36.4358381 37.6685547,41.8889272 64.7293344,49.1493768 L61.1224128,30.6150029 L82.3257914,45.8916068 C81.2401941,7.42886062 59.257011,-6.59392731 16.3762423,3.82324304 C6.83911541,14.559221 7.23204277,24.2148432 17.5550244,32.7901096 Z" transform="matrix(-1 0 0 1 91.832 0)"/>
        <path fill="#E1B386" d="M5.48117561,119.090838 C5.48117561,119.090838 11.3903596,119.343146 16.6381634,122.50008 C20.2048714,124.645713 23.4596702,129.583044 24.3709205,131.063219 C26.1569205,133.961219 18.4175321,140.496213 11.9615321,145.478213 L14.1533252,151.854865 C14.1533252,151.854865 44.2212441,142.1093 27.8052441,121.4693 C20.8152441,112.6813 14.6491281,108.763835 4.06712807,104.363835 C4.06712807,104.363835 -5.75087193,111.323835 7.50512807,125.951835" transform="matrix(-1 0 0 1 33.276 0)"/>
        <path fill="#FFCC5C" d="M68.2351987,162.209835 L28.3231987,162.007835 L34.6411213,208.855438 C42.6486516,212.547721 46.7047264,212.559714 46.8093456,208.891417 C47.3423717,190.201744 47.8323228,180.856907 48.2791987,180.856907 C48.7311522,180.856907 49.5828151,190.415306 50.8341876,209.532105 C51.0676677,213.098902 55.1941467,212.957273 63.2136245,209.107219 L68.2351987,162.209835 Z" transform="matrix(-1 0 0 1 96.558 0)"/>
        <path fill="#394047" d="M29.1891987,155.457835 L25.3771987,117.193835 C25.3771987,109.675835 26.1811987,102.587835 35.8911987,102.587835 L36.2651987,102.989835 C42.4391987,109.635835 52.8071987,110.091835 59.5411987,104.015835 L61.1251987,102.587835 C70.8351987,102.587835 71.5491987,109.675835 71.5491987,117.193835 L67.8251987,155.457835 C66.9911987,160.215835 30.0231987,160.215835 29.1891987,155.457835" transform="matrix(-1 0 0 1 96.926 0)"/>
        <path fill="#394047" d="M71.5491987,117.193835 C71.5491987,109.675835 70.8351987,102.587835 61.1251987,102.587835 L59.5411987,104.015835 C56.1751987,107.053835 47.6931987,123.217835 47.6931987,123.217835 C47.6931987,123.217835 39.3511987,106.311835 36.2651987,102.989835 L35.8911987,102.587835 C26.1811987,102.587835 25.3771987,109.675835 25.3771987,117.193835 L27.9755497,164.408246 C45.2255497,171.658246 56.6798011,170.52672 69.2158011,163.80072 L71.5491987,117.193835 Z" transform="matrix(-1 0 0 1 96.926 0)"/>
        <path fill="#E1B386" d="M28.2596199,145.303835 C28.2596199,145.303835 20.8676199,138.713835 23.8396199,147.465835 C23.8396199,147.465835 14.6936199,146.907835 21.8796199,150.541835 C21.8796199,150.541835 15.2656199,151.465835 21.7696199,152.801835 C21.7696199,152.801835 17.3316199,156.095835 23.2536199,155.137835 C23.2536199,155.137835 20.9116199,161.139835 30.4156199,151.975835 L28.2596199,145.303835" transform="matrix(-1 0 0 1 49.323 0)"/>
        <path fill="#E1B386" d="M70.192335,145.055835 C70.192335,145.055835 78.112335,139.009835 74.404335,147.475835 C74.404335,147.475835 83.564335,147.701835 76.096335,150.707835 C76.096335,150.707835 82.606335,152.193835 76.012335,152.967835 C76.012335,152.967835 80.152335,156.629835 74.334335,155.169835 C74.334335,155.169835 76.156335,161.349835 67.468335,151.407835 L70.192335,145.055835" transform="matrix(-1 0 0 1 146.496 0)"/>
      </g>
      <g transform="translate(515 2)">
        <path fill="#E1B386" d="M0.188626478,100.75359 C0.188626478,100.75359 -0.515373522,89.8535898 4.95462648,98.3815898 C4.95462648,98.3815898 10.7266265,90.1615898 8.93062648,98.8015898 C8.93062648,98.8015898 14.2426265,93.7655898 10.9426265,100.25159 C10.9426265,100.25159 16.7986265,98.6995898 11.9306265,103.12159 C11.9306265,103.12159 18.6746265,105.21359 4.32662648,107.09759 L0.188626478,100.75359" transform="matrix(-1 0 0 1 14.024 0)"/>
        <path fill="#394047" d="M68.0181426,100.26359 C68.0181426,100.26359 36.4401426,116.27559 15.5381426,105.40959 C4.15614261,99.4915898 11.4761426,123.13759 11.4761426,123.13759 C11.4761426,123.13759 51.4881426,128.54759 72.9181426,107.26159 L68.0181426,100.26359" transform="matrix(-1 0 0 1 82.077 0)"/>
        <polygon fill="#E1B386" points="71.135 232.22 71.977 191.052 81.589 191.052 78.773 232.22" transform="matrix(-1 0 0 1 152.724 0)"/>
        <polyline fill="#E1B386" points="98.573 232.22 90.935 232.22 88.119 191.052 97.729 191.052 98.573 232.22" transform="matrix(-1 0 0 1 186.692 0)"/>
        <path fill="#534032" d="M105.956096,5.94558981 C71.7737192,-7.30042271 57.0120958,6.55758981 49.2620958,25.0235898 C36.6620958,55.0435898 69.9447425,119.652677 69.9447425,119.652677 L83.8375755,139.811234 C141.228877,67.0930756 148.601717,22.4711942 105.956096,5.94558981 Z" transform="matrix(-1 0 0 1 179.64 0)"/>
        <path fill="#E1B386" d="M150.224851,163.84759 C150.224851,163.84759 155.908851,173.55159 146.934851,168.23359 C146.934851,168.23359 145.424851,178.46359 143.082851,169.68359 C143.082851,169.68359 140.524851,176.77359 140.562851,169.27959 C140.562851,169.27959 135.890851,173.41559 138.326851,167.09759 C138.326851,167.09759 131.152851,168.28759 143.484851,159.92359 L150.224851,163.84759" transform="matrix(-1 0 0 1 288.252 0)"/>
        <polyline fill="#E1B386" points="98.029 110.728 86.425 118.196 74.041 110.728 74.041 94.532 98.029 94.532 98.029 110.728" transform="matrix(-1 0 0 1 172.07 0)"/>
        <path fill="#000000" d="M104.6248,234.55159 L104.6248,230.03359 L96.9068001,230.03359 C96.9068001,230.03359 87.7188001,230.99959 88.1328001,234.55159 L104.6248,234.55159" transform="matrix(-1 0 0 1 192.744 0)"/>
        <path fill="#000000" d="M65.0856361,234.55159 L65.0856361,230.03359 L72.8016361,230.03359 C72.8016361,230.03359 81.9896361,230.99959 81.5756361,234.55159 L65.0856361,234.55159" transform="matrix(-1 0 0 1 146.675 0)"/>
        <path fill="#E1B386" d="M58.23,51.456 C58.784,51.456 59.322,51.526 59.85,51.62 C62.458,21.21 77.308,21 95.576,21 C115.678,21 131.974,28.142 131.974,61.23 C131.974,83.448 115.678,101.46 95.576,101.46 C77.944,101.46 63.246,87.602 59.9,69.204 C59.272,69.338 58.626,69.416 57.96,69.416 C52.862,69.416 49,65.784 49,60.686 C49,55.588 53.132,51.456 58.23,51.456" transform="matrix(-1 0 0 1 180.974 0)"/>
        <path fill="#394047" d="M138.476954,132.65359 C138.476954,132.65359 134.388954,138.48559 127.066954,145.96959 C122.294954,150.84359 110.774954,165.04359 110.774954,165.04359 L100.690954,159.92359 C100.690954,159.92359 117.510954,139.01959 118.764954,137.12759 C125.174954,127.46359 135.650954,108.09359 142.444954,105.11559 C142.444954,105.11559 153.436954,116.14359 138.476954,132.65359" transform="matrix(-1 0 0 1 247.028 0)"/>
        <path fill="#FFCC5C" d="M105.563218,163.21159 L65.6512181,163.00959 L74.1595006,228.611244 L83.7035512,228.611244 C85.0091141,195.527809 86.0090705,178.986091 86.7034203,178.986091 C87.3977701,178.986091 88.1510686,195.527809 88.9633159,228.611244 L98.378751,228.611244 L105.563218,163.21159 Z" transform="matrix(-1 0 0 1 171.214 0)"/>
        <path fill="#FFCC5C" d="M66.5172181,156.45959 L62.7052181,118.19559 C62.7052181,110.67759 63.5092181,103.58759 73.2192181,103.58759 L73.5932181,103.98959 C79.7672181,110.63759 90.1352181,111.09359 96.8712181,105.01559 L98.4532181,103.58759 C108.163218,103.58759 108.877218,110.67759 108.877218,118.19559 L105.155218,156.45959 C104.319218,161.21559 67.3532181,161.21559 66.5172181,156.45959" transform="matrix(-1 0 0 1 171.582 0)"/>
        <path fill="#394047" d="M108.877218,118.19559 C108.877218,110.67759 108.163218,103.58759 98.4532181,103.58759 L96.8712181,105.01559 C93.5032181,108.05559 85.0212181,124.21959 85.0212181,124.21959 C85.0212181,124.21959 76.6812181,107.31359 73.5932181,103.98959 L73.2192181,103.58759 C63.5092181,103.58759 62.7052181,110.67759 62.7052181,118.19559 L65.2952059,165.189417 C82.5452059,172.439417 94.0395479,171.915417 106.575548,165.189417 L108.877218,118.19559 Z" transform="matrix(-1 0 0 1 171.582 0)"/>
        <path fill="#534032" d="M50.0485927,36.29699 C54.437353,39.9427185 70.162123,45.3958076 97.2229027,52.6562572 L93.6159811,34.1218833 L114.81936,49.3984872 C113.733762,10.935741 91.7505793,-3.08704688 48.8698106,7.33012346 C39.3326837,18.0661015 39.7256111,27.7217237 50.0485927,36.29699 Z" transform="matrix(-1 0 0 1 156.82 0)"/>
      </g>
      <g transform="translate(0 1)">
        <path fill="#E1B386" d="M138.164782,101.75359 C138.164782,101.75359 137.460782,90.8535898 142.930782,99.3815898 C142.930782,99.3815898 148.702782,91.1615898 146.906782,99.8015898 C146.906782,99.8015898 152.218782,94.7655898 148.918782,101.25159 C148.918782,101.25159 154.774782,99.6995898 149.906782,104.12159 C149.906782,104.12159 156.650782,106.21359 142.302782,108.09759 L138.164782,101.75359"/>
        <path fill="#FFCC5C" d="M137.940782,101.26359 C137.940782,101.26359 106.362782,117.27559 85.4607819,106.40959 C74.0787819,100.49159 81.3987819,124.13759 81.3987819,124.13759 C81.3987819,124.13759 121.410782,129.54759 142.840782,108.26159 L137.940782,101.26359"/>
        <path fill="#C96C38" d="M31.0067819,91.6095898 C31.0067819,91.6095898 61.4727819,114.29759 14.9727819,140.99359 C14.9727819,140.99359 0.540781935,112.02559 31.0067819,91.6095898"/>
        <polygon fill="#E1B386" points="70.411 233.22 71.253 192.052 80.865 192.052 78.049 233.22"/>
        <polyline fill="#E1B386" points="63.881 233.22 56.243 233.22 53.427 192.052 63.037 192.052 63.881 233.22"/>
        <path fill="#C96C38" d="M34.4867819,95.5315898 C34.4867819,95.5315898 144.292782,36.2395898 65.3167819,6.94558981 C31.0067819,-5.78041019 16.3727819,7.55758981 8.62278193,26.0235898 C-3.97721807,56.0435898 31.0067819,94.3595898 31.0067819,94.3595898 L34.4867819,95.5315898"/>
        <path fill="#E1B386" d="M13.9727819,164.84759 C13.9727819,164.84759 19.6567819,174.55159 10.6827819,169.23359 C10.6827819,169.23359 9.17278193,179.46359 6.83078193,170.68359 C6.83078193,170.68359 4.27278193,177.77359 4.31078193,170.27959 C4.31078193,170.27959 -0.361218065,174.41559 2.07478193,168.09759 C2.07478193,168.09759 -5.09921807,169.28759 7.23278193,160.92359 L13.9727819,164.84759"/>
        <polyline fill="#E1B386" points="77.959 111.728 66.355 119.196 53.971 111.728 53.971 95.532 77.959 95.532 77.959 111.728"/>
        <path fill="#E1B386" d="M31.1747819,52.1455898 C31.7307819,52.1455898 32.2667819,52.2135898 32.7947819,52.3075898 C35.4027819,21.8995898 50.2547819,21.6895898 68.5227819,21.6895898 C88.6247819,21.6895898 104.920782,28.8295898 104.920782,61.9195898 C104.920782,84.1375898 88.6247819,102.14959 68.5227819,102.14959 C50.8907819,102.14959 36.1927819,88.2895898 32.8447819,69.8915898 C32.2187819,70.0275898 31.5707819,70.1055898 30.9047819,70.1055898 C25.8067819,70.1055898 21.9447819,66.4735898 21.9447819,61.3755898 C21.9447819,56.2775898 26.0787819,52.1455898 31.1747819,52.1455898"/>
        <path fill="#000000" d="M63.8807819 235.55159L63.8807819 231.03359 56.1627819 231.03359C56.1627819 231.03359 46.9747819 231.99959 47.3887819 235.55159L63.8807819 235.55159M70.4107819 235.55159L70.4107819 231.03359 78.1267819 231.03359C78.1267819 231.03359 87.3147819 231.99959 86.9007819 235.55159L70.4107819 235.55159"/>
        <path fill="#FFCC5C" d="M43.4487819,133.65359 C43.4487819,133.65359 39.3607819,139.48559 32.0387819,146.96959 C27.2667819,151.84359 15.7467819,166.04359 15.7467819,166.04359 L5.66278193,160.92359 C5.66278193,160.92359 22.4827819,140.01959 23.7367819,138.12759 C30.1467819,128.46359 40.6227819,109.09359 47.4167819,106.11559 C47.4167819,106.11559 58.4087819,117.14359 43.4487819,133.65359"/>
        <path fill="#C96C38" d="M42.6087819,11.9615898 C42.6087819,11.9615898 54.8467819,67.6975898 115.420782,42.8715898 C115.420782,42.8715898 103.278782,-27.3644102 42.6087819,11.9615898"/>
        <path fill="#C96C38" d="M32.5747819,57.2135898 C32.5747819,57.2135898 74.7727819,42.3595898 62.8727819,8.15558981 C62.8727819,8.15558981 5.84678193,8.15558981 32.5747819,57.2135898"/>
        <path fill="#415060" d="M86.3487819,164.21159 L46.4367819,164.00959 L54.9450644,229.611244 L64.489115,229.611244 C65.794678,196.527809 66.7946344,179.986091 67.4889842,179.986091 C68.1833339,179.986091 68.9366325,196.527809 69.7488798,229.611244 L79.1643149,229.611244 L86.3487819,164.21159 Z"/>
        <path fill="#FFFFFF" d="M46.9347819,157.45959 L43.1227819,119.19559 C43.1227819,111.67759 43.9267819,104.58759 53.6367819,104.58759 L54.0107819,104.98959 C60.1847819,111.63759 70.5527819,112.09359 77.2887819,106.01559 L78.8707819,104.58759 C88.5807819,104.58759 89.2947819,111.67759 89.2947819,119.19559 L85.5727819,157.45959 C84.7367819,162.21559 47.7707819,162.21559 46.9347819,157.45959"/>
        <path fill="#FFCC5C" d="M89.2947819,119.19559 C89.2947819,111.67759 88.5807819,104.58759 78.8707819,104.58759 L77.2887819,106.01559 C73.9207819,109.05559 65.4387819,125.21959 65.4387819,125.21959 C65.4387819,125.21959 57.0987819,108.31359 54.0107819,104.98959 L53.6367819,104.58759 C43.9267819,104.58759 43.1227819,111.67759 43.1227819,119.19559 L45.7127697,166.189417 C62.9627697,173.439417 74.4571118,172.915417 86.9931118,166.189417 L89.2947819,119.19559 Z"/>
        <rect width="10" height="3" x="27.198" y="92.764" fill="#FFCC5C" transform="scale(-1 1) rotate(-22 0 259.907)" rx="1.5"/>
      </g>
    </g>
  </g>
</svg>
